<svg xmlns="http://www.w3.org/2000/svg" xmlns:xlink="http://www.w3.org/1999/xlink" width="1920" zoomAndPan="magnify" viewBox="0 0 1440 809.999993" height="1080" preserveAspectRatio="xMidYMid meet" version="1.0"><defs><clipPath id="ea45d33819"><path d="M 38.640625 -738.984375 L 1785.808594 451.582031 L 1510.445312 855.679688 L -236.722656 -334.886719 Z M 38.640625 -738.984375 " clip-rule="nonzero"/></clipPath><clipPath id="21fbf0460b"><path d="M 105.765625 -837.492188 L 2057.464844 492.445312 L 1184.492188 1773.539062 L -767.207031 443.601562 Z M 105.765625 -837.492188 " clip-rule="nonzero"/></clipPath><clipPath id="a55fbe126f"><path d="M 35.367188 -681.945312 L 1762.703125 495.109375 L 1516.058594 857.0625 L -211.277344 -319.992188 Z M 35.367188 -681.945312 " clip-rule="nonzero"/></clipPath><clipPath id="9abbd48591"><path d="M 46.3125 -698.007812 L 1904.425781 568.160156 L 1073.265625 1787.890625 L -784.84375 521.726562 Z M 46.3125 -698.007812 " clip-rule="nonzero"/></clipPath><clipPath id="43bc1cfd87"><path d="M 104.101562 -439.792969 L 1672.769531 629.140625 L 1380.09375 1058.652344 L -188.578125 -10.285156 Z M 104.101562 -439.792969 " clip-rule="nonzero"/></clipPath><clipPath id="69a65175a4"><path d="M 106.605469 -443.472656 L 1675.277344 625.460938 L 973.777344 1654.921875 L -594.894531 585.988281 Z M 106.605469 -443.472656 " clip-rule="nonzero"/></clipPath><clipPath id="a094c93b79"><path d="M 0 0 L 1216 0 L 1216 810 L 0 810 Z M 0 0 " clip-rule="nonzero"/></clipPath><clipPath id="5a36705b0e"><path d="M 116.921875 -225.171875 L 1373.84375 631.328125 L 1081.585938 1060.21875 L -175.335938 203.71875 Z M 116.921875 -225.171875 " clip-rule="nonzero"/></clipPath><clipPath id="fb52a157ac"><path d="M 116.921875 -225.171875 L 1373.84375 631.328125 L 811.714844 1456.261719 L -445.207031 599.761719 Z M 116.921875 -225.171875 " clip-rule="nonzero"/></clipPath><clipPath id="744366c241"><path d="M 0 92 L 1092 92 L 1092 810 L 0 810 Z M 0 92 " clip-rule="nonzero"/></clipPath><clipPath id="060a66f8a7"><path d="M 53.339844 -74.414062 L 1240.222656 734.359375 L 958.949219 1147.136719 L -227.9375 338.359375 Z M 53.339844 -74.414062 " clip-rule="nonzero"/></clipPath><clipPath id="647f4a7155"><path d="M 53.339844 -74.414062 L 1240.222656 734.359375 L 709.347656 1513.429688 L -477.539062 704.652344 Z M 53.339844 -74.414062 " clip-rule="nonzero"/></clipPath><clipPath id="5cb2b1fcf9"><path d="M 0 229 L 783 229 L 783 810 L 0 810 Z M 0 229 " clip-rule="nonzero"/></clipPath><clipPath id="76280dd7b5"><path d="M -84.539062 90.203125 L 907.117188 765.945312 L 681.164062 1097.527344 L -310.488281 421.789062 Z M -84.539062 90.203125 " clip-rule="nonzero"/></clipPath><clipPath id="226dd9ac37"><path d="M -84.539062 90.203125 L 907.117188 765.945312 L 463.660156 1416.714844 L -527.992188 740.976562 Z M -84.539062 90.203125 " clip-rule="nonzero"/></clipPath><clipPath id="0ab0fe0561"><path d="M 0 432 L 635 432 L 635 810 L 0 810 Z M 0 432 " clip-rule="nonzero"/></clipPath><clipPath id="111fd87467"><path d="M -28.625 326.09375 L 729.988281 843.035156 L 390.851562 1340.722656 L -367.761719 823.78125 Z M -28.625 326.09375 " clip-rule="nonzero"/></clipPath><clipPath id="e7bc4c582c"><path d="M -28.625 326.09375 L 729.988281 843.035156 L 390.851562 1340.722656 L -367.761719 823.78125 Z M -28.625 326.09375 " clip-rule="nonzero"/></clipPath></defs><rect x="-144" width="1728" fill="#ffffff" y="-80.999999" height="971.999992" fill-opacity="1"/><rect x="-144" width="1728" fill="#fcd2af" y="-80.999999" height="971.999992" fill-opacity="1"/><g clip-path="url(#ea45d33819)"><g clip-path="url(#21fbf0460b)"><path fill="#f9dcc4" d="M -199.503906 -320.988281 C -163.933594 -361.621094 -136.78125 -408.835938 -104.136719 -451.855469 C -71.488281 -494.875 -31.414062 -534.925781 19.511719 -552.902344 C 73.929688 -572.113281 134.621094 -563.800781 189.167969 -544.957031 C 243.710938 -526.113281 294.199219 -497.300781 347.191406 -474.453125 C 504.222656 -406.75 681.019531 -392.277344 834.816406 -317.507812 C 926.191406 -273.082031 1009.390625 -205.316406 1054.644531 -114.34375 C 1085.839844 -51.632812 1097.617188 18.613281 1117.492188 85.773438 C 1127.429688 119.355469 1139.535156 152.496094 1156.847656 182.9375 C 1174.164062 213.375 1196.90625 241.144531 1225.546875 261.296875 C 1272.609375 294.414062 1331.8125 304.753906 1389.175781 309.34375 C 1446.539062 313.933594 1504.921875 313.761719 1560.320312 329.335938 C 1624.964844 347.507812 1682.988281 387.078125 1725.632812 438.945312 C 1768.277344 490.816406 1795.695312 554.617188 1806.679688 620.863281 C 1828.648438 753.359375 1784.488281 891.378906 1705.503906 1000.003906 C 1638.765625 1091.792969 1549.414062 1164.109375 1465.4375 1240.445312 C 1416 1285.382812 1367.980469 1332.160156 1314.257812 1371.875 C 1260.539062 1411.589844 1200.300781 1444.359375 1134.753906 1457.25 C 1078.285156 1468.355469 1019.675781 1464.347656 963.308594 1452.765625 C 906.9375 1441.183594 852.402344 1422.191406 798.089844 1403.171875 C 642.964844 1348.851562 485.226562 1292.378906 354.691406 1192.507812 C 205.601562 1078.4375 100.578125 914.105469 -50.1875 802.261719 C -98.382812 766.511719 -150.695312 736.574219 -198.734375 700.613281 C -246.769531 664.648438 -291.296875 621.464844 -316.871094 567.179688 C -345.492188 506.414062 -348.148438 436.8125 -345.089844 369.714844 C -342.027344 302.613281 -333.78125 235.140625 -342.515625 168.542969 C -348.683594 121.496094 -363.203125 75.988281 -372.753906 29.511719 C -382.304688 -16.964844 -386.738281 -65.949219 -372.867188 -111.324219 C -359.464844 -155.15625 -329.992188 -192.289062 -297.707031 -224.824219 C -265.425781 -257.359375 -229.695312 -286.503906 -199.503906 -320.988281 Z M -199.503906 -320.988281 " fill-opacity="1" fill-rule="nonzero"/></g></g><g clip-path="url(#a55fbe126f)"><g clip-path="url(#9abbd48591)"><path fill="#f8edeb" d="M -244.335938 -206.246094 C -210.46875 -244.933594 -184.617188 -289.886719 -153.535156 -330.84375 C -122.453125 -371.800781 -84.296875 -409.9375 -35.8125 -427.054688 C 15.996094 -445.34375 73.78125 -437.429688 125.710938 -419.492188 C 177.640625 -401.554688 225.707031 -374.121094 276.15625 -352.371094 C 425.660156 -287.914062 593.984375 -274.140625 740.40625 -202.957031 C 827.402344 -160.660156 906.609375 -96.148438 949.691406 -9.535156 C 979.390625 50.171875 990.601562 117.050781 1009.523438 180.996094 C 1018.984375 212.96875 1030.503906 244.519531 1046.988281 273.5 C 1063.472656 302.480469 1085.125 328.917969 1112.390625 348.105469 C 1157.195312 379.632812 1213.5625 389.476562 1268.175781 393.84375 C 1322.792969 398.214844 1378.371094 398.046875 1431.117188 412.875 C 1492.660156 430.175781 1547.90625 467.847656 1588.503906 517.230469 C 1629.101562 566.613281 1655.203125 627.355469 1665.65625 690.429688 C 1686.570312 816.574219 1644.523438 947.984375 1569.324219 1051.40625 C 1505.78125 1138.796875 1420.710938 1207.652344 1340.757812 1280.332031 C 1293.6875 1323.117188 1247.96875 1367.65625 1196.820312 1405.46875 C 1145.675781 1443.285156 1088.328125 1474.480469 1025.917969 1486.757812 C 972.15625 1497.332031 916.359375 1493.519531 862.691406 1482.492188 C 809.023438 1471.46875 757.101562 1453.386719 705.394531 1435.28125 C 557.707031 1383.566406 407.53125 1329.804688 283.253906 1234.71875 C 141.3125 1126.121094 41.328125 969.664062 -102.207031 863.183594 C -148.09375 829.148438 -197.894531 800.644531 -243.628906 766.40625 C -289.363281 732.171875 -331.753906 691.054688 -356.097656 639.371094 C -383.347656 581.519531 -385.875 515.253906 -382.960938 451.367188 C -380.042969 387.484375 -372.191406 323.242188 -380.503906 259.835938 C -386.378906 215.046875 -400.199219 171.71875 -409.289062 127.46875 C -418.382812 83.21875 -422.601562 36.578125 -409.394531 -6.621094 C -396.632812 -48.351562 -368.570312 -83.707031 -337.835938 -114.683594 C -307.101562 -145.660156 -273.078125 -173.410156 -244.335938 -206.246094 Z M -244.335938 -206.246094 " fill-opacity="1" fill-rule="nonzero"/></g></g><g clip-path="url(#43bc1cfd87)"><g clip-path="url(#69a65175a4)"><path fill="#fae1dd" d="M -138.695312 -28.417969 C -110.113281 -61.070312 -88.292969 -99.011719 -62.058594 -133.578125 C -35.824219 -168.148438 -3.617188 -200.332031 37.304688 -214.773438 C 81.039062 -230.207031 129.820312 -223.523438 173.65625 -208.375 C 217.496094 -193.226562 258.074219 -170.070312 300.667969 -151.703125 C 426.878906 -97.28125 568.96875 -85.636719 692.578125 -25.535156 C 766.023438 10.171875 832.894531 64.636719 869.273438 137.746094 C 894.347656 188.144531 903.820312 244.597656 919.796875 298.574219 C 927.789062 325.5625 937.515625 352.195312 951.433594 376.660156 C 965.355469 401.125 983.632812 423.441406 1006.652344 439.640625 C 1044.480469 466.253906 1092.0625 474.570312 1138.167969 478.261719 C 1184.269531 481.957031 1231.1875 481.824219 1275.714844 494.34375 C 1327.667969 508.953125 1374.308594 540.753906 1408.585938 582.441406 C 1442.863281 624.128906 1464.902344 675.40625 1473.734375 728.644531 C 1491.398438 835.121094 1455.921875 946.035156 1392.449219 1033.324219 C 1338.820312 1107.085938 1267.011719 1165.191406 1199.527344 1226.53125 C 1159.800781 1262.640625 1121.210938 1300.230469 1078.039062 1332.140625 C 1034.867188 1364.054688 986.457031 1390.382812 933.777344 1400.738281 C 888.394531 1409.660156 841.292969 1406.433594 795.988281 1397.121094 C 750.683594 1387.808594 706.851562 1372.539062 663.195312 1357.253906 C 538.519531 1313.585938 411.742188 1268.191406 306.824219 1187.921875 C 186.992188 1096.238281 102.574219 964.167969 -18.605469 874.277344 C -57.34375 845.542969 -99.386719 821.476562 -137.996094 792.574219 C -176.609375 763.671875 -212.394531 728.960938 -232.953125 685.332031 C -255.960938 636.5 -258.101562 580.566406 -255.648438 526.644531 C -253.191406 472.71875 -246.574219 418.496094 -253.597656 364.976562 C -258.558594 327.167969 -270.230469 290.59375 -277.910156 253.246094 C -285.585938 215.894531 -289.15625 176.527344 -278.011719 140.0625 C -267.242188 104.839844 -243.558594 75 -217.613281 48.855469 C -191.671875 22.714844 -162.957031 -0.707031 -138.695312 -28.417969 Z M -138.695312 -28.417969 " fill-opacity="1" fill-rule="nonzero"/></g></g><g clip-path="url(#a094c93b79)"><g clip-path="url(#5a36705b0e)"><g clip-path="url(#fb52a157ac)"><path fill="#fcd5ce" d="M -79.644531 107.421875 C -56.742188 81.257812 -39.257812 50.855469 -18.234375 23.152344 C 2.785156 -4.546875 28.59375 -30.335938 61.386719 -41.910156 C 96.429688 -54.28125 135.515625 -48.921875 170.644531 -36.785156 C 205.769531 -24.652344 238.285156 -6.09375 272.410156 8.621094 C 373.542969 52.226562 487.398438 61.550781 586.441406 109.707031 C 645.289062 138.320312 698.871094 181.957031 728.019531 240.542969 C 748.109375 280.925781 755.699219 326.164062 768.5 369.414062 C 774.898438 391.039062 782.695312 412.378906 793.847656 431.980469 C 805 451.585938 819.644531 469.46875 838.089844 482.445312 C 868.398438 503.773438 906.527344 510.433594 943.46875 513.390625 C 980.410156 516.351562 1018.007812 516.242188 1053.683594 526.273438 C 1095.3125 537.976562 1132.683594 563.460938 1160.148438 596.863281 C 1187.613281 630.265625 1205.269531 671.355469 1212.347656 714.015625 C 1226.5 799.335938 1198.066406 888.214844 1147.207031 958.160156 C 1104.230469 1017.265625 1046.691406 1063.828125 992.617188 1112.980469 C 960.78125 1141.917969 929.859375 1172.039062 895.265625 1197.613281 C 860.671875 1223.183594 821.882812 1244.28125 779.667969 1252.582031 C 743.304688 1259.730469 705.5625 1257.148438 669.261719 1249.6875 C 632.957031 1242.226562 597.835938 1229.992188 562.859375 1217.746094 C 462.960938 1182.757812 361.375 1146.386719 277.308594 1082.066406 C 181.292969 1008.605469 113.652344 902.777344 16.554688 830.753906 C -14.484375 807.726562 -48.171875 788.445312 -79.109375 765.289062 C -110.046875 742.128906 -138.722656 714.316406 -155.191406 679.355469 C -173.628906 640.226562 -175.339844 595.40625 -173.371094 552.199219 C -171.402344 508.988281 -166.097656 465.539062 -171.722656 422.652344 C -175.699219 392.359375 -185.050781 363.050781 -191.203125 333.121094 C -197.355469 303.195312 -200.210938 271.648438 -191.28125 242.429688 C -182.652344 214.207031 -163.671875 190.292969 -142.882812 169.34375 C -122.097656 148.394531 -99.085938 129.628906 -79.644531 107.421875 Z M -79.644531 107.421875 " fill-opacity="1" fill-rule="nonzero"/></g></g></g><g clip-path="url(#744366c241)"><g clip-path="url(#060a66f8a7)"><g clip-path="url(#647f4a7155)"><path fill="#fec5bb" d="M -132.304688 239.683594 C -110.671875 214.972656 -94.160156 186.261719 -74.308594 160.101562 C -54.453125 133.9375 -30.082031 109.582031 0.886719 98.648438 C 33.980469 86.96875 70.890625 92.023438 104.058594 103.484375 C 137.230469 114.941406 167.933594 132.464844 200.15625 146.359375 C 295.65625 187.53125 403.171875 196.332031 496.695312 241.800781 C 552.265625 268.820312 602.863281 310.027344 630.382812 365.351562 C 649.351562 403.488281 656.515625 446.207031 668.601562 487.050781 C 674.644531 507.472656 682.003906 527.625 692.535156 546.136719 C 703.066406 564.648438 716.894531 581.535156 734.3125 593.789062 C 762.933594 613.929688 798.9375 620.214844 833.820312 623.007812 C 868.707031 625.800781 904.207031 625.695312 937.898438 635.167969 C 977.210938 646.21875 1012.496094 670.28125 1038.429688 701.824219 C 1064.363281 733.367188 1081.035156 772.167969 1087.714844 812.453125 C 1101.074219 893.027344 1074.222656 976.960938 1026.1875 1043.019531 C 985.601562 1098.839844 931.265625 1142.816406 880.195312 1189.238281 C 850.132812 1216.566406 820.929688 1245.011719 788.257812 1269.167969 C 755.589844 1293.320312 718.960938 1313.246094 679.097656 1321.085938 C 644.757812 1327.839844 609.117188 1325.402344 574.835938 1318.359375 C 540.554688 1311.316406 507.390625 1299.765625 474.363281 1288.199219 C 380.023438 1255.164062 284.101562 1220.824219 204.71875 1160.085938 C 114.050781 1090.71875 50.183594 990.78125 -41.5 922.769531 C -70.808594 901.027344 -102.621094 882.820312 -131.835938 860.953125 C -161.046875 839.082031 -188.125 812.820312 -203.675781 779.804688 C -221.085938 742.855469 -222.699219 700.527344 -220.839844 659.722656 C -218.976562 618.917969 -213.964844 577.886719 -219.273438 537.382812 C -223.023438 508.773438 -231.855469 481.101562 -237.664062 452.835938 C -243.46875 424.570312 -246.167969 394.78125 -237.730469 367.1875 C -229.582031 340.535156 -211.65625 317.949219 -192.023438 298.164062 C -172.394531 278.378906 -150.664062 260.65625 -132.304688 239.683594 Z M -132.304688 239.683594 " fill-opacity="1" fill-rule="nonzero"/></g></g></g><g clip-path="url(#5cb2b1fcf9)"><g clip-path="url(#76280dd7b5)"><g clip-path="url(#226dd9ac37)"><path fill="#ffb5a7" d="M -239.605469 352.582031 C -221.535156 331.941406 -207.742188 307.957031 -191.160156 286.101562 C -174.574219 264.25 -154.214844 243.902344 -128.34375 234.773438 C -100.695312 225.019531 -69.859375 229.246094 -42.148438 238.820312 C -14.433594 248.394531 11.21875 263.035156 38.140625 274.644531 C 117.929688 309.046875 207.753906 316.410156 285.894531 354.402344 C 332.320312 376.976562 374.597656 411.40625 397.59375 457.625 C 413.445312 489.484375 419.433594 525.171875 429.535156 559.292969 C 434.582031 576.355469 440.734375 593.191406 449.535156 608.65625 C 458.332031 624.121094 469.886719 638.230469 484.441406 648.46875 C 508.351562 665.292969 538.433594 670.550781 567.578125 672.886719 C 596.722656 675.21875 626.382812 675.136719 654.53125 683.050781 C 687.375 692.285156 716.855469 712.390625 738.523438 738.742188 C 760.195312 765.097656 774.125 797.511719 779.710938 831.167969 C 790.878906 898.476562 768.449219 968.59375 728.328125 1023.773438 C 694.421875 1070.398438 649.03125 1107.132812 606.371094 1145.910156 C 581.253906 1168.734375 556.859375 1192.496094 529.570312 1212.671875 C 502.277344 1232.84375 471.675781 1249.488281 438.371094 1256.035156 C 409.683594 1261.671875 379.90625 1259.632812 351.265625 1253.746094 C 322.628906 1247.863281 294.917969 1238.207031 267.324219 1228.542969 C 188.507812 1200.941406 108.363281 1172.242188 42.039062 1121.5 C -33.714844 1063.542969 -87.082031 980.050781 -163.6875 923.226562 C -188.175781 905.058594 -214.75 889.847656 -239.160156 871.578125 C -263.570312 853.304688 -286.191406 831.363281 -299.1875 803.785156 C -313.734375 772.914062 -315.085938 737.554688 -313.535156 703.464844 C -311.984375 669.378906 -307.796875 635.101562 -312.238281 601.265625 C -315.375 577.367188 -322.753906 554.246094 -327.609375 530.636719 C -332.460938 507.023438 -334.71875 482.136719 -327.671875 459.085938 C -320.867188 436.820312 -305.894531 417.957031 -289.492188 401.429688 C -273.09375 384.902344 -254.941406 370.097656 -239.605469 352.582031 Z M -239.605469 352.582031 " fill-opacity="1" fill-rule="nonzero"/></g></g></g><g clip-path="url(#0ab0fe0561)"><g clip-path="url(#111fd87467)"><g clip-path="url(#e7bc4c582c)"><path fill="#e8a598" d="M -147.210938 526.753906 C -133.390625 510.96875 -122.84375 492.625 -110.160156 475.914062 C -97.476562 459.203125 -81.90625 443.644531 -62.117188 436.664062 C -40.972656 429.203125 -17.382812 432.441406 3.816406 439.765625 C 25.015625 447.09375 44.640625 458.292969 65.234375 467.175781 C 126.269531 493.5 194.980469 499.140625 254.757812 528.207031 C 290.273438 545.476562 322.613281 571.8125 340.207031 607.167969 C 352.335938 631.535156 356.921875 658.832031 364.652344 684.929688 C 368.515625 697.980469 373.222656 710.855469 379.957031 722.6875 C 386.6875 734.515625 395.527344 745.308594 406.660156 753.140625 C 424.953125 766.011719 447.964844 770.035156 470.257812 771.824219 C 492.550781 773.613281 515.238281 773.550781 536.769531 779.609375 C 561.894531 786.675781 584.449219 802.054688 601.027344 822.214844 C 617.605469 842.371094 628.265625 867.164062 632.539062 892.90625 C 641.089844 944.390625 623.941406 998.015625 593.257812 1040.214844 C 567.328125 1075.871094 532.613281 1103.960938 499.984375 1133.613281 C 480.777344 1151.070312 462.117188 1169.242188 441.242188 1184.667969 C 420.371094 1200.09375 396.964844 1212.820312 371.492188 1217.824219 C 349.546875 1222.132812 326.769531 1220.570312 304.863281 1216.0625 C 282.953125 1211.558594 261.757812 1204.171875 240.648438 1196.777344 C 180.355469 1175.65625 119.050781 1153.699219 68.308594 1114.882812 C 10.359375 1070.542969 -30.472656 1006.683594 -89.074219 963.210938 C -107.808594 949.316406 -128.140625 937.679688 -146.8125 923.699219 C -165.484375 909.722656 -182.792969 892.9375 -192.738281 871.84375 C -203.867188 848.230469 -204.90625 821.1875 -203.722656 795.113281 C -202.539062 769.042969 -199.34375 742.828125 -202.742188 716.949219 C -205.144531 698.667969 -210.792969 680.984375 -214.507812 662.925781 C -218.222656 644.867188 -219.953125 625.832031 -214.5625 608.203125 C -209.359375 591.171875 -197.910156 576.746094 -185.367188 564.109375 C -172.824219 551.472656 -158.941406 540.148438 -147.210938 526.753906 Z M -147.210938 526.753906 " fill-opacity="1" fill-rule="nonzero"/></g></g></g></svg>