<?xml version="1.0" encoding="utf-8" ?>
<svg xmlns="http://www.w3.org/2000/svg" xmlns:xlink="http://www.w3.org/1999/xlink" width="498" height="545">
	<path fill="#006957" transform="matrix(0.648436 -0.00113426 0.00124131 0.709634 0 0.871124)" d="M-0 -0L769 0L769 841L-0 841L0 -0Z"/>
	<path fill="#B6EF7E" transform="matrix(0.648436 -0.00113426 0.00124131 0.709634 0 0.871124)" d="M460.184 142.01L440.195 81.8992C442.74 79.8754 445.64 78.184 448.3 76.2998L466.81 62.9822C479.538 53.598 492.025 42.8489 505.742 34.9827C507.088 36.6399 507.959 42.3763 508.535 44.6224L516.039 75.3186C517.722 82.799 518.933 90.7064 521.504 97.9387L522.575 98.3619C522.062 98.4623 521.628 98.5035 521.106 98.5265C519.71 98.5883 518.394 99.1059 517.021 99.3146C512.358 101.085 507.521 102.693 503.027 104.863C490.592 110.868 480.3 120.063 471.63 130.658C470.872 131.043 470.342 131.482 469.694 132.018L468.589 131.351C465.684 134.578 463.904 139.913 460.184 142.01Z"/>
	<path fill="#FFC0B3" transform="matrix(0.648436 -0.00113426 0.00124131 0.709634 0 0.871124)" d="M468.589 131.351C475.887 120.686 484.912 112.579 495.765 105.656C500.95 102.349 510.926 98.258 517.021 99.3146C512.358 101.085 507.521 102.693 503.027 104.863C490.592 110.868 480.3 120.063 471.63 130.658C470.872 131.043 470.342 131.482 469.694 132.018L468.589 131.351Z"/>
	<path fill="white" transform="matrix(0.648436 -0.00113426 0.00124131 0.709634 0 0.871124)" d="M522.575 98.3619C540.332 95.8973 557.799 99.7928 572.23 110.689C574.739 112.584 577.092 114.562 579.308 116.797C581.095 118.6 583.23 121.815 585.398 123.036C587.151 124.023 589.693 124.368 591.644 124.819L602.748 127.547L675.792 144.572C686.1 147.028 696.75 148.815 706.75 152.366C699.832 175.024 684.678 196.799 663.445 208.193C650.991 214.876 635.175 218.014 621.434 213.721C616.264 212.106 611.851 209.906 607.809 206.284C596.94 220.042 587.798 235.142 577.847 249.547L539.958 301.675L452.144 423.026L420.23 466.733C414.503 474.691 408.528 482.548 403.332 490.866C395.632 503.19 388.934 516.777 384.026 530.462C380.146 541.282 378.017 552.126 376.026 563.404C374.053 574.583 372.407 585.656 371.594 596.987C369.963 619.731 371.032 643.672 373.676 666.261C377.165 696.063 384.736 729.098 409.385 748.692C418.643 756.051 429.192 760.731 440.5 763.985C448.023 766.15 455.97 767.319 463.685 768.635L489.089 773.322C493.966 774.273 498.972 775.059 503.729 776.503C506.54 777.357 510.161 778.355 511.692 781.046C511.632 782.277 511.618 782.945 510.639 783.806C509.038 785.215 506.159 786.084 504.136 786.684C495.423 789.268 485.654 789.885 476.629 790.927L417.465 795.376C372.766 797.706 328.073 797.817 283.378 795.426C259.546 794.15 235.571 792.665 211.943 789.168C206.435 788.352 195.841 787.432 192.304 782.872L191.734 782.073C192.014 780.534 192.784 779.82 194.105 778.944C196.699 777.222 200.169 776.458 203.157 775.751L219.958 772.582C237.104 769.78 254.503 767.535 271.034 761.958C284.816 757.309 298.448 749.312 307.9 738.134C317.825 726.396 323.549 711.206 327.123 696.425C330.902 680.794 332.613 664.601 333.744 648.598C337.584 594.297 330.554 537.505 301.615 490.369C292.952 476.259 282.766 463.01 273.002 449.656L249.663 416.358L207.786 354.129L170.791 297.208L143.333 255.012L135.222 243.133C133.34 240.41 131.096 237.319 129.813 234.273C128.846 231.975 129.315 227.758 129.615 225.27L425.498 224.575C411.837 218.375 401.152 201.191 395.937 187.431C390.096 172.017 389.023 156.263 391.631 140.081C392.11 137.107 392.387 133.426 393.529 130.639L444.708 140.538C447.314 141.076 457.964 144.203 459.635 143.642L460.344 142.559L460.184 142.01C463.904 139.913 465.684 134.578 468.589 131.351L469.694 132.018C470.342 131.482 470.872 131.043 471.63 130.658C480.3 120.063 490.592 110.868 503.027 104.863C507.521 102.693 512.358 101.085 517.021 99.3146C518.394 99.1059 519.71 98.5883 521.106 98.5265C521.628 98.5035 522.062 98.4623 522.575 98.3619Z"/>
	<path fill="#08A57E" transform="matrix(0.648436 -0.00113426 0.00124131 0.709634 0 0.871124)" d="M580.917 138.907C581.319 135.914 581.498 132.62 582.708 129.835L583.422 129.292L584.007 129.764L582.838 143.289L582.194 143.116C581.907 142.532 582.028 142.305 582.089 141.672L581.59 141.546C581.601 142.319 581.477 142.865 581.241 143.6L580.768 142.028L580.917 138.907Z"/>
	<path fill="#FFC6B4" transform="matrix(0.648436 -0.00113426 0.00124131 0.709634 0 0.871124)" d="M468.589 131.351L469.694 132.018C470.342 131.482 470.872 131.043 471.63 130.658C467.622 136.381 463.557 141.522 461.014 148.11L460.352 147.471C460.741 145.998 460.966 144.645 461.054 143.123L460.344 142.559L460.184 142.01C463.904 139.913 465.684 134.578 468.589 131.351Z"/>
	<path fill="#08A57E" transform="matrix(0.648436 -0.00113426 0.00124131 0.709634 0 0.871124)" d="M552.257 221.768C558.099 222.736 564.935 222.051 570.871 222.054C572.704 222.055 575.216 221.745 576.926 222.367L575.621 223.773C572.839 224.446 569.637 224.162 566.781 224.181L550.359 224.259L538.046 224.314C535.964 224.318 533.528 224.579 531.525 224.007C531.563 223.152 531.728 222.67 532.109 221.907L544.928 222.064C547.348 222.053 549.879 222.222 552.257 221.768Z"/>
	<path fill="#08A57E" transform="matrix(0.648436 -0.00113426 0.00124131 0.709634 0 0.871124)" d="M476.195 222.697C477.906 221.884 481.052 222.488 482.992 222.426L530.114 222.188L530.939 224.007C529.621 224.684 527.862 224.46 526.4 224.468L517.611 224.509L478.11 224.75C477.374 224.093 476.796 223.479 476.195 222.697Z"/>
	<path fill="#00C57F" transform="matrix(0.648436 -0.00113426 0.00124131 0.709634 0 0.871124)" d="M580.768 142.028L581.241 143.6C581.477 142.865 581.601 142.319 581.59 141.546L582.089 141.672C582.028 142.305 581.907 142.532 582.194 143.116L582.838 143.289C582.823 158.039 585.742 172.068 592.54 185.221C593.641 187.35 594.82 189.428 596.123 191.44C596.419 191.897 597.668 193.44 597.744 193.873C597.754 193.933 595.022 197.55 594.697 198.018L587.182 181.91C583.59 173.597 582.396 164.897 581.396 155.985L581.017 152.662C580.477 149.189 580.576 145.526 580.768 142.028Z"/>
	<path fill="#B6EF7E" transform="matrix(0.648436 -0.00113426 0.00124131 0.709634 0 0.871124)" d="M532.109 221.907L532.345 221.394C532.771 220.374 532.562 218.98 532.519 217.901L531.827 209.009C531.697 207.431 530.912 185.952 531.019 185.817C531.17 185.625 531.423 185.543 531.625 185.406C532.849 186.62 533.323 188.377 534.006 189.933C534.873 191.907 535.875 193.811 536.928 195.692L546.948 212.076C548.789 215.044 551.337 218.373 552.257 221.768C549.879 222.222 547.348 222.053 544.928 222.064L532.109 221.907Z"/>
	<path fill="#C2F694" transform="matrix(0.648436 -0.00113426 0.00124131 0.709634 0 0.871124)" d="M468.939 155.973L476.352 140.587L502.669 159.25C511.018 165.13 519.389 170.52 526.95 177.441L521.725 179.259C521.134 179.015 520.628 178.833 519.996 178.714C519.208 178.566 519.514 178.656 518.721 178.403L518.143 178.21L516.09 177.396C514.279 176.803 512.24 176.076 510.534 175.235L509.932 174.933L507.058 173.701L502.95 171.851L499.257 170.253C492.586 168.012 485.336 164.306 479.086 161.048C475.767 159.317 472.462 157.247 468.939 155.973Z"/>
	<path fill="#B6EF7E" transform="matrix(0.648436 -0.00113426 0.00124131 0.709634 0 0.871124)" d="M552.257 221.768L556.529 221.655L556.791 221.132L544.535 203.178C540.635 197.345 536.466 191.398 534.292 184.643C543.295 189.068 553.011 191.853 562.453 195.173C571.513 198.358 580.852 202.507 590.299 204.194C586.106 210.429 582.043 216.83 576.926 222.367C575.216 221.745 572.704 222.055 570.871 222.054C564.935 222.051 558.099 222.736 552.257 221.768Z"/>
	<path fill="#B6EF7E" transform="matrix(0.648436 -0.00113426 0.00124131 0.709634 0 0.871124)" d="M468.939 155.973C472.462 157.247 475.767 159.317 479.086 161.048C485.336 164.306 492.586 168.012 499.257 170.253L502.95 171.851L507.058 173.701L509.932 174.933L510.534 175.235C512.24 176.076 514.279 176.803 516.09 177.396L518.143 178.21L518.721 178.403C519.514 178.656 519.208 178.566 519.996 178.714C520.628 178.833 521.134 179.015 521.725 179.259L496.713 185.592C486.155 188.509 475.664 192.402 464.813 194.081C463.524 180.993 465.035 168.483 468.939 155.973Z"/>
	<path fill="#B6EF7E" transform="matrix(0.648436 -0.00113426 0.00124131 0.709634 0 0.871124)" d="M581.017 152.662C576.412 154.358 572.086 157.839 567.94 160.456C559.643 165.696 551.436 170.979 542.653 175.387C540.679 176.377 537.577 178.201 535.348 177.458C535.266 177.233 535.103 177.022 535.1 176.782C535.087 175.301 537.073 171.727 537.726 170.328L551.267 143.614L561.998 121.451L580.547 138.598L580.917 138.907L580.768 142.028C580.576 145.526 580.477 149.189 581.017 152.662Z"/>
	<path fill="#B6EF7E" transform="matrix(0.648436 -0.00113426 0.00124131 0.709634 0 0.871124)" d="M525.277 110.648C538.008 110.925 548.931 114.308 560.211 120.08L541.961 156.668C538.723 163.127 536.016 169.938 532.023 175.983L525.277 110.648Z"/>
	<path fill="#B6EF7E" transform="matrix(0.648436 -0.00113426 0.00124131 0.709634 0 0.871124)" d="M594.697 198.018C594.007 199.553 592.932 200.906 591.967 202.278L535.574 182.09L581.396 155.985C582.396 164.897 583.59 173.597 587.182 181.91L594.697 198.018Z"/>
	<path fill="#B6EF7E" transform="matrix(0.648436 -0.00113426 0.00124131 0.709634 0 0.871124)" d="M520.461 111.49C521.248 111.281 521.66 111.287 522.452 111.471L529.486 175.622L505.698 157.747L478.035 138.265C486.373 128.023 495.603 120.061 508.028 115.137C512.025 113.553 516.299 112.541 520.461 111.49Z"/>
	<path fill="#62D6C3" transform="matrix(0.648436 -0.00113426 0.00124131 0.709634 0 0.871124)" d="M243.838 239.218L565.443 238.54C563.49 240.451 561.173 242.556 559.731 244.89L395.47 245.223C391.083 244.581 386.068 245.037 381.617 245.044L354.247 245.098L284.218 245.161L261.706 245.105C259.206 245.103 255.175 244.601 252.853 245.349C252.195 245.561 251.791 245.638 251.101 245.507C248.291 244.971 245.471 241.418 243.838 239.218Z"/>
	<path fill="#B6EF7E" transform="matrix(0.648436 -0.00113426 0.00124131 0.709634 0 0.871124)" d="M476.195 222.697C474.369 221.315 473.066 219.013 471.973 217.04C468.375 210.538 466.444 203.876 464.99 196.629C479.423 194.139 493.523 188.907 507.816 185.568C512.8 184.404 518.768 182.79 523.927 183.077C525.421 183.16 527.074 183.888 528.46 184.423C519.847 195.291 507.973 204.194 497.578 213.399C494.754 215.899 491.262 218.283 488.838 221.132L488.99 221.673C489.649 221.744 490.261 221.788 490.924 221.718C491.753 221.631 492.532 221.469 493.229 220.991C497.013 218.392 500.568 214.579 504.057 211.544C512.248 204.42 521.881 197.326 528.784 188.923L529.217 188.387L530.114 222.188L482.992 222.426C481.052 222.488 477.906 221.884 476.195 222.697Z"/>
	<path fill="#00C57F" transform="matrix(0.648436 -0.00113426 0.00124131 0.709634 0 0.871124)" d="M461.014 148.11C460.82 148.445 460.885 148.29 460.762 148.71C453.664 172.907 453.108 201.631 465.284 224.312C460.306 224.252 454.854 224.538 449.977 223.466C433.793 219.907 421.2 210.288 412.494 196.39C400.902 177.885 396.931 156.643 401.835 135.346L443.968 144.3L454.435 146.751C455.901 147.108 458.286 148.009 459.773 147.639L460.352 147.471L461.014 148.11Z"/>
	<path fill="#B6EF7E" transform="matrix(0.648436 -0.00113426 0.00124131 0.709634 0 0.871124)" d="M592.686 130.039L696.724 153.809C691.391 166.431 684.802 176.968 675.166 186.728C670.558 191.05 665.598 194.999 660.065 198.069C648.797 204.319 636.138 207.719 623.49 204.072C612.053 200.775 604.633 193.202 598.965 182.894C590.064 166.707 587.565 147.837 592.686 130.039Z"/>
	<path fill="#E1FFF2" transform="matrix(0.648436 -0.00113426 0.00124131 0.709634 0 0.871124)" d="M154.359 239.398C158.663 238.354 164.687 239.111 169.214 239.112L202.822 239.104L232.101 239.067C235.744 239.076 240.308 238.586 243.838 239.218C245.471 241.418 248.291 244.971 251.101 245.507C251.791 245.638 252.195 245.561 252.853 245.349C255.175 244.601 259.206 245.103 261.706 245.105L284.218 245.161L354.247 245.098L381.617 245.044C386.068 245.037 391.083 244.581 395.47 245.223L559.731 244.89C556.375 252.241 550.346 259.25 545.536 265.76C544.078 267.732 541.919 271.52 539.812 272.737L533.556 281.95L533.133 281.617C533.13 280.963 533.241 281.225 532.902 280.797L532.233 280.631L532.539 279.257L532.051 278.527L282.244 278.091C279.382 278.211 268.826 277.592 267.282 278.618L179.95 279.04L176.093 273.189C171.672 267.709 168.123 261.031 164.2 255.15C162.402 252.454 154.255 241.788 154.359 239.398Z"/>
	<path fill="#85E2CD" transform="matrix(0.648436 -0.00113426 0.00124131 0.709634 0 0.871124)" d="M154.359 239.398C158.663 238.354 164.687 239.111 169.214 239.112L202.822 239.104L232.101 239.067C235.744 239.076 240.308 238.586 243.838 239.218C245.471 241.418 248.291 244.971 251.101 245.507C251.791 245.638 252.195 245.561 252.853 245.349C255.175 244.601 259.206 245.103 261.706 245.105L284.218 245.161L354.247 245.098L381.617 245.044C386.068 245.037 391.083 244.581 395.47 245.223L252.593 245.507L268.179 263.652C270.635 266.484 273.649 269.34 275.79 272.379C267.791 271.517 258.914 272.185 250.832 272.18C250.592 271.678 250.376 271.246 250.01 270.82C248.452 269.005 246.103 267.539 244.171 266.161L231.934 257.822L208.628 242.502C207.634 241.855 205.651 239.842 204.661 239.557C203.697 239.279 202.07 239.502 201.034 239.502L193.191 239.503L154.359 239.398Z"/>
	<path fill="#62D6C3" transform="matrix(0.648436 -0.00113426 0.00124131 0.709634 0 0.871124)" d="M154.359 239.398L193.191 239.503L201.034 239.502C202.07 239.502 203.697 239.279 204.661 239.557C205.651 239.842 207.634 241.855 208.628 242.502L231.934 257.822L244.171 266.161C246.103 267.539 248.452 269.005 250.01 270.82C250.376 271.246 250.592 271.678 250.832 272.18L219.21 272.233C205.439 272.408 191.07 273.253 177.367 272.184C177.125 272.166 176.827 272.272 176.596 272.341L176.093 273.189C171.672 267.709 168.123 261.031 164.2 255.15C162.402 252.454 154.255 241.788 154.359 239.398Z"/>
	<path fill="#4ECBB6" transform="matrix(0.648436 -0.00113426 0.00124131 0.709634 0 0.871124)" d="M250.832 272.18C258.914 272.185 267.791 271.517 275.79 272.379C283.981 273.056 292.566 272.582 300.794 272.599L348.877 272.621L493.443 272.66L524.134 272.569L534.359 272.459C536.046 272.446 538.205 272.236 539.812 272.737L533.556 281.95L533.133 281.617C533.13 280.963 533.241 281.225 532.902 280.797L532.233 280.631L532.539 279.257L532.051 278.527L282.244 278.091C279.382 278.211 268.826 277.592 267.282 278.618L179.95 279.04L176.093 273.189L176.596 272.341C176.827 272.272 177.125 272.166 177.367 272.184C191.07 273.253 205.439 272.408 219.21 272.233L250.832 272.18Z"/>
	<path fill="white" transform="matrix(0.648436 -0.00113426 0.00124131 0.709634 0 0.871124)" d="M282.244 278.091L532.051 278.527L532.539 279.257L532.233 280.631L532.902 280.797C533.241 281.225 533.13 280.963 533.133 281.617L533.556 281.95C531.337 286.79 527.165 291.697 524.159 296.112L492.225 340.835L447.632 401.941L446.799 400.948C441.732 398.353 436.391 396.945 431.249 394.621C420.842 389.918 410.688 384.117 400.874 378.275C394.025 374.198 387.56 369.484 381.053 364.888C359.788 349.865 339.941 332.746 320.673 315.257L300.665 296.445L282.244 278.091Z"/>
	<path fill="#85E2CD" transform="matrix(0.648436 -0.00113426 0.00124131 0.709634 0 0.871124)" d="M532.539 279.257L532.233 280.631L532.902 280.797C533.241 281.225 533.13 280.963 533.133 281.617L533.556 281.95C531.337 286.79 527.165 291.697 524.159 296.112L492.225 340.835L447.632 401.941L446.799 400.948C451.222 392.935 457.064 385.861 462.224 378.327L506.537 315.694L522.756 292.858C525.826 288.472 528.765 283.038 532.539 279.257Z"/>
	<defs>
		<linearGradient id="gradient_0" gradientUnits="userSpaceOnUse" x1="316.95801" y1="280.021" x2="305.31201" y2="481.79401">
			<stop offset="0" stop-color="#4ECEBD"/>
			<stop offset="1" stop-color="#C8F6DB"/>
		</linearGradient>
	</defs>
	<path fill="url(#gradient_0)" transform="matrix(0.648436 -0.00113426 0.00124131 0.709634 0 0.871124)" d="M179.95 279.04L267.282 278.618C268.826 277.592 279.382 278.211 282.244 278.091L300.665 296.445L320.673 315.257C339.941 332.746 359.788 349.865 381.053 364.888C387.56 369.484 394.025 374.198 400.874 378.275C410.688 384.117 420.842 389.918 431.249 394.621C436.391 396.945 441.732 398.353 446.799 400.948L447.632 401.941C444.751 405.391 442.263 409.374 439.608 413.014L423.051 436.172C413.171 450.786 403.014 465.245 387.886 474.91C373.075 484.372 354.652 486.822 337.592 483C325.863 480.372 314.046 474.059 305.424 465.71C297.188 457.735 290.723 447.629 284.343 438.17L259.882 401.138L220.864 341.683L208.34 323.328L183.68 284.723L179.95 279.04Z"/>
</svg>
