<?xml version="1.0" encoding="utf-8" ?>
<svg xmlns="http://www.w3.org/2000/svg" xmlns:xlink="http://www.w3.org/1999/xlink" width="498" height="545">
	<path fill="#006A57" fill-opacity="0.015686275" transform="matrix(0.648436 -0.00113426 0.00124131 0.709634 0 0.871124)" d="M0 2.05322L0 0L697.292 0L769 0L769 841L438.007 841L272.193 841L268.469 841L254.225 841L7.40812 841L1.64229 841L0 841L0 72.1312L0 2.05322ZM521.865 108.16L516.224 109.527C511.603 108.08 504.967 111.117 500.865 113.259C487.751 120.108 477.244 131.812 468.968 143.838C466.315 147.693 464.317 152.26 460.96 155.533C460.514 155.967 460.701 155.773 460.247 156.416L460.305 157.033C458.624 158.037 457.043 157.69 455.202 157.227L393.866 143.588C392.329 147.487 392.048 152.006 391.566 156.154C389.3 175.662 391.196 194.948 399.143 213.074C403.389 222.76 409.084 232.776 416.906 240.019C419.32 242.253 422.186 243.838 424.588 246.045C414.927 247.149 404.659 246.391 394.904 246.408L345.067 246.705L187.718 247.5L149.476 247.563L129.777 247.727C129.636 251.479 129.316 255.003 130.718 258.58C131.839 261.44 133.718 264.069 135.326 266.674L143.87 280.477L166.627 318.412L250.33 456.432L276.457 497.034C289.959 517.359 303.517 537.075 313.233 559.593C322.444 580.94 328.258 603.701 331.739 626.644C333.5 638.251 334.882 650.122 335.062 661.873C336.538 673.891 335.991 687.049 335.4 699.151C335.219 702.875 335.338 706.937 334.655 710.597C334.27 722.665 332.959 734.745 331.167 746.674C330.154 753.415 329.152 760.39 327.325 766.97C323.004 789.033 311.372 811.564 292.416 824.306L287.233 827.623L280.819 831.09C279.439 831.775 275.853 834.034 274.419 833.939L273.053 835.298C272.148 836.173 271.912 837.294 271.847 838.536C271.803 839.372 272.013 840.19 272.193 841L438.007 841C438.02 840.045 438.005 839.132 438.261 838.202C438.488 837.381 438.191 837.072 437.901 836.278C436.623 835.359 435.545 834.676 434.032 834.217C427.464 830.454 420.9 827.505 414.594 823.208C411.036 820.055 407.425 817.031 404.28 813.443C391.276 798.612 383.966 779.377 379.874 760.297C376.347 743.852 374.529 727.059 373.404 710.294C371.316 679.194 372.296 648.859 377.104 618.053C378.96 606.164 381.139 594.106 384.817 582.628C388.686 570.552 393.523 558.484 399.384 547.236C410.649 525.616 425.114 505.672 438.589 485.395L484.757 415.551L574.903 278.907L608.216 225.926C614.013 230.917 618.952 233.834 626.472 235.533C639.384 238.451 654.169 234.364 665.177 227.429C680.688 217.658 692.027 202.744 699.831 186.362C702.801 180.127 705.464 173.575 706.992 166.832C695.701 162.489 683.375 160.252 671.642 157.326L610.421 141.746L595.448 137.789C592.506 137.047 588.846 136.568 586.179 135.1C583.073 133.39 580.89 129.582 578.44 127.034C575.796 124.286 572.874 121.685 569.827 119.391C555.836 108.855 538.948 105.779 521.865 108.16ZM1.82325 511.251L2.22912 511.481L2.04062 511.77C1.69731 512.496 1.60089 514.991 1.59227 515.873L1.48601 607.212L1.35144 633.279C1.32085 637.711 0.746607 642.987 1.5842 647.321L1.53439 700.095L1.51438 715.373C1.51798 718.103 1.31743 721.012 1.65728 723.711L1.58946 791.273L1.7456 825.293C1.73972 830.365 2.22936 835.986 1.64229 841L7.40812 841L254.225 841L268.469 841L272.193 841C272.013 840.19 271.803 839.372 271.847 838.536C271.912 837.294 272.148 836.173 273.053 835.298L274.419 833.939C275.853 834.034 279.439 831.775 280.819 831.09L287.233 827.623L292.416 824.306C311.372 811.564 323.004 789.033 327.325 766.97C326.917 767.567 326.527 768.182 326.026 768.708L325.792 768.932L325.769 769.548L325.378 768.936C325.168 769.536 325.153 769.767 325.264 770.42L325.382 770.985C324.784 771.281 324.77 771.546 324.454 772.114C324.705 772.739 324.637 772.813 324.561 773.449L323.941 773.654L323.528 772.936C322.896 773.412 322.713 773.981 322.44 774.708L322.298 775.092C321.306 777.306 322.777 778.356 322.298 780.43C321.447 780.552 321.566 780.527 320.861 780.225C320.558 781.929 319.491 782.895 319.052 784.504C318.783 785.491 318.099 786.366 317.885 787.308L317.782 788.438C317.612 789.133 316.741 790.849 316.14 791.211L315.528 791.517L316.14 791.928C315.901 792.576 315.817 792.867 315.319 793.365L314.701 792.852L315.109 792.339C315.092 791.572 315.1 791.139 315.317 790.388L315.729 790.285L316.341 790.285C316.341 789.283 316.612 787.479 315.935 786.795L315.216 787.514L315.109 787C312.951 785.595 311.527 786.78 309.535 785.983L309.16 785.772C308.389 786.285 308.385 786.18 307.518 786.183L307.107 786.59L306.491 786.594L304.233 787.826C303.412 788.305 303.503 788.233 302.591 788.236C301.662 788.854 300.81 788.645 299.717 788.647C298.846 789.226 298.27 789.055 297.254 789.058L296.638 789.468L295.609 789.261L293.967 788.85C292.875 788.553 291.231 786.757 290.713 785.724C290.291 784.881 289.754 784.147 289.334 783.306L288.422 781.457C287.97 780.57 287.752 779.679 287.32 778.814C286.609 777.39 285.943 775.841 285.138 774.476C284.632 773.62 283.704 772.882 283.292 772.014C282.862 771.109 283.367 771.652 282.728 771.013C282.134 770.419 281.539 769.956 281.099 769.224C280.497 768.221 279.852 767.422 279.033 766.578L278.365 765.854C277.897 764.958 278.434 765.491 277.898 764.943C276.415 763.427 275.298 761.817 274.052 760.103L273.646 759.491L269.333 753.124C269.233 752.908 269.18 752.498 269.025 752.301C268.56 751.71 268.163 751.643 267.786 750.89C267.324 749.968 267.668 750.506 267.085 749.631L265.02 746.552C264.648 746.034 264.377 745.688 264.084 745.103C263.134 743.205 261.165 741.806 260.3 739.983C259.705 738.73 258.685 737.914 257.698 736.934C254.891 734.147 251.757 731.564 248.396 729.514C247.731 729.109 246.907 728.818 246.329 728.384L245.93 728.075C245.076 727.643 243.95 727.213 243.056 726.843L241.416 726.229C240.768 725.926 240.213 725.608 239.528 725.38L238.95 725.2L238.337 724.997C237.768 724.844 237.237 724.774 236.666 724.584C235.791 724.292 234.376 724.165 233.615 723.765C232.689 723.279 232.617 723.354 231.562 723.354C230.721 722.794 230.487 722.944 229.509 722.944C228.733 722.426 228.74 722.533 227.867 722.533C226.878 721.873 225.755 722.123 224.582 722.123C223.37 721.314 220.749 721.712 219.245 721.712C218.404 721.151 218.17 721.301 217.192 721.301C215.642 720.268 207.918 720.891 205.696 720.891C204.86 721.446 204.616 721.298 203.643 721.301C202.772 721.88 202.196 721.71 201.18 721.712L200.568 722.118C199.652 722.106 198.787 722.057 197.897 722.326C197.185 722.541 196.058 722.615 195.432 722.944L194.82 723.35C194.09 723.29 193.828 723.31 193.149 723.649C192.461 723.992 192.683 723.975 191.942 724.176C191.391 724.325 190.868 724.387 190.315 724.571L187.223 725.611L186.399 725.818L185.788 726.225C185.075 726.166 184.814 726.182 184.155 726.511C183.275 726.95 183.798 726.765 182.873 727.074L182.296 727.254C181.73 727.437 181.216 727.51 180.653 727.664C179.964 727.853 178.791 727.966 178.188 728.282C177.335 728.73 177.489 728.689 176.546 728.693C175.674 729.272 175.098 729.101 174.082 729.103C173.311 729.616 173.307 729.511 172.44 729.514C171.568 730.093 170.992 729.923 169.977 729.925C168.983 730.585 167.802 730.332 166.625 730.332L156.838 730.335C155.582 729.498 152.662 729.925 151.09 729.925C149.706 729.001 145.137 729.514 143.289 729.514C142.077 728.706 139.456 729.103 137.952 729.103C136.269 727.981 128.078 728.693 125.635 728.693C124.858 728.175 124.865 728.282 123.993 728.282L123.377 727.872C122.633 727.884 121.914 727.928 121.182 727.781L117.834 727.05C116.973 726.598 117.142 726.64 116.192 726.64L115.576 726.229C114.691 726.282 114.303 726.343 113.483 725.933C111.709 725.044 109.547 724.636 107.941 723.43L107.568 723.147C106.781 722.759 106.099 722.665 105.324 722.148L103.464 720.891L102.641 720.273C100.907 719.44 100.03 717.74 98.5351 716.577C98.1086 716.245 97.6212 716.017 97.3054 715.552C96.9036 714.961 96.6993 714.9 96.0716 714.524C95.6868 713.376 94.6231 712.726 93.8155 711.856C93.022 711.002 92.4856 709.977 91.7609 709.07L90.5269 707.541C90.0123 706.907 89.4195 706.248 89.0919 705.489C88.766 704.735 89.0775 705.039 88.6175 704.579C88.001 703.962 87.3593 703.473 87.0391 702.615C86.7985 701.971 86.9341 701.9 86.4489 701.293C86.0345 700.774 85.7062 700.331 85.3968 699.74C84.9417 698.871 84.5452 698.071 83.9577 697.274L83.3439 696.455C82.9799 695.675 82.8824 695.169 82.3154 694.4C81.9376 693.887 81.6713 693.533 81.3797 692.951L81.0837 692.347L80.0593 690.706C79.7981 690.073 79.9613 690 79.4691 689.384C78.4905 688.16 77.8722 686.77 77.1853 685.368L75.3357 682.081L74.7219 681.261C74.436 680.571 74.6717 680.41 74.1294 679.732C73.5827 679.048 73.7661 679.39 73.3738 678.604L72.4617 676.742L70.8194 673.868L69.7951 672.227L69.1772 670.993C68.879 670.51 68.6038 670.36 68.4597 669.788C68.2975 669.144 68.4326 669.478 68.0748 668.761L67.7422 668.121C67.4377 667.512 67.2019 666.986 66.7917 666.439L66.5105 666.067C66.1455 665.329 65.3452 663.906 65.1622 663.179L65.0714 662.78L62.1974 657.442L59.9414 653.338L58.1827 650.257L57.2706 648.408C56.8115 647.508 56.5826 646.608 56.1425 645.727L55.8356 645.125L55.2177 643.48C54.9227 642.855 54.6264 642.412 54.4876 641.723C54.3795 641.187 54.2609 640.679 53.986 640.195C53.4968 639.333 53.5787 639.323 53.5754 638.347L52.9637 637.63L52.7543 636.91L52.3478 636.298C52.4083 635.568 52.3883 635.305 52.0495 634.626C51.3807 633.286 50.9388 631.408 50.4982 629.931L50.2909 629.107L49.8844 628.496C50.0788 626.285 48.3518 623.342 47.9182 621.191C47.7774 620.492 47.907 620.87 47.6372 620.189L47.421 619.663L47.0063 618.431L46.5998 617.819C46.6604 617.088 46.6397 616.838 46.3015 616.16C45.8995 615.355 46.0455 615.824 45.8653 615.108L45.7746 614.735C45.3393 613.873 45.3678 614.045 45.364 613.092C44.9679 612.627 44.7578 612.387 44.6338 611.772C44.4183 610.702 43.9286 609.975 43.5185 608.988C43.0896 607.955 42.3411 607.779 41.8762 606.935C39.9717 603.474 35.9391 602.228 33.6668 599.34L33.2542 598.722C32.3837 598.433 32.4747 598.243 32.0225 597.49L31.4087 597.287L30.7908 596.258L30.1729 595.845L27.2989 592.149C26.4157 591.041 25.6254 590.282 24.429 589.484C23.3441 589.441 22.0526 589.255 21.0558 589.753C20.7526 589.904 20.4877 590.125 20.1847 590.277L19.8369 590.446L19.2968 590.716L16.8334 589.484C16.6024 588.8 16.7208 589 16.3939 588.488C15.9831 587.845 15.6014 587.318 15.356 586.582C14.9798 585.453 14.5637 584.292 14.3679 583.117C14.2445 582.377 14.1989 582.326 13.6741 581.705C13.2697 581.226 13.0979 581 12.8015 580.408C12.4332 579.673 11.8557 578.967 11.0834 578.6C10.2707 578.214 9.53723 578.081 8.76313 577.55L8.21143 577.165L7.59967 577.572L7.59146 576.545L6.77443 575.933L6.66344 559.028L6.70642 551.901L6.77032 550.88C6.02325 546.018 6.33853 540.84 6.3457 535.842L5.8863 509.875C5.72861 505.293 5.82271 500.399 5.00632 495.88L4.88512 495.239C4.75543 494.504 4.75867 494.478 4.311 493.804L4.10571 495.032C4.62048 495.932 4.49234 497.1 4.51628 498.112C3.7381 499.279 4.10571 501.604 4.10571 503.04C5.11358 504.552 4.36684 507.77 4.41569 509.61C4.43471 510.326 4.60603 510.471 4.31831 511.196C4.19685 511.502 4.02996 511.646 4.10777 511.971C4.29466 512.751 4.71202 514.373 4.3151 515.154C4.26256 515.257 3.52576 515.891 3.49396 515.975C3.29249 516.507 3.49396 518.408 3.49396 519.055L3.28457 519.26L3.30498 508.57C3.30391 507.393 3.54262 505.499 3.13702 504.42L2.97664 504.068C2.78632 503.397 2.92404 503.128 3.18193 502.526L2.874 502.017L2.26225 502.424L2.26225 507.557C1.60308 508.546 1.8343 510.054 1.82325 511.251ZM0 72.1312L0 841L1.64229 841C2.22936 835.986 1.73972 830.365 1.7456 825.293L1.58946 791.273L1.65728 723.711C1.31743 721.012 1.51798 718.103 1.51438 715.373L1.53439 700.095L1.5842 647.321C0.746607 642.987 1.32085 637.711 1.35144 633.279L1.48601 607.212L1.59227 515.873C1.60089 514.991 1.69731 512.496 2.04062 511.77L2.22912 511.481L1.82325 511.251L1.44111 509.405C0.710415 507.397 1.03713 504.833 1.03917 502.656L1.24035 487.024C1.73672 486.264 1.64228 486.428 1.64252 485.617L1.65585 395.089L1.6553 372.008C1.65588 368.941 2.13388 365.151 1.54619 362.212C1.28792 360.92 1.44735 359.777 1.3323 358.493C0.745753 351.943 1.2183 344.919 1.21776 338.317L1.21836 298.954L1.22223 247.25C1.22395 238.159 0.839267 228.867 1.33436 219.797L1.84757 220.105L2.05286 219.079L1.33436 218.771L1.43289 217.436L1.21733 166.576L1.23171 73.3L0 72.1312ZM0 2.05322L123.171 2.05322C123.377 1.91634 123.551 1.71382 123.787 1.64258C124.454 1.44143 126.087 1.64258 126.836 1.64258L407.287 1.64258C407.492 1.5057 407.666 1.30258 407.903 1.23193C408.586 1.02782 410.237 1.23193 411.003 1.23193L696.124 1.23193L697.292 0L0 0L0 2.05322ZM335.062 661.873C334.926 663.393 335.184 666.58 334.414 667.708C334.509 668.478 334.695 669.015 334.41 669.726C333.569 671.83 334.179 676.925 334.191 679.396C334.193 679.888 334.375 681.462 334.205 681.875C334.095 682.143 333.696 682.221 333.593 682.491C333.428 682.926 333.593 684.225 333.593 684.75C335.054 686.22 333.877 695.1 334.323 697.726C334.497 698.752 334.363 699.711 333.98 700.669C333.664 701.46 333.719 702.588 334.057 703.378L334.205 703.639L334.045 704.352C333.906 704.994 333.873 705.445 334 706.099L334.414 706.309C334.462 707.73 334.434 709.192 334.655 710.597C335.338 706.937 335.219 702.875 335.4 699.151C335.991 687.049 336.538 673.891 335.062 661.873Z"/>
	<path fill="#006956" fill-opacity="0.10196079" transform="matrix(0.648436 -0.00113426 0.00124131 0.709634 0 0.871124)" d="M335.062 661.873C336.538 673.891 335.991 687.049 335.4 699.151C335.219 702.875 335.338 706.937 334.655 710.597C334.434 709.192 334.462 707.73 334.414 706.309L334 706.099C333.873 705.445 333.906 704.994 334.045 704.352L334.205 703.639L334.057 703.378C333.719 702.588 333.664 701.46 333.98 700.669C334.363 699.711 334.497 698.752 334.323 697.726C333.877 695.1 335.054 686.22 333.593 684.75C333.593 684.225 333.428 682.926 333.593 682.491C333.696 682.221 334.095 682.143 334.205 681.875C334.375 681.462 334.193 679.888 334.191 679.396C334.179 676.925 333.569 671.83 334.41 669.726C334.695 669.015 334.509 668.478 334.414 667.708C335.184 666.58 334.926 663.393 335.062 661.873Z"/>
	<path fill="#B7F07E" transform="matrix(0.648436 -0.00113426 0.00124131 0.709634 0 0.871124)" d="M460.247 156.416C460.216 154.356 459.32 152.087 458.721 150.105L454.676 137.375L440.382 90.5379C443.092 87.7411 446.234 85.8212 449.277 83.4539L466.591 69.757C479.698 59.275 491.895 47.4388 506.108 38.4173C507.833 43.1563 508.385 48.205 509.549 53.0971L516.513 83.9768C518.184 92.0947 519.643 100.159 521.865 108.16L516.224 109.527C511.603 108.08 504.967 111.117 500.865 113.259C487.751 120.108 477.244 131.812 468.968 143.838C466.315 147.693 464.317 152.26 460.96 155.533C460.514 155.967 460.701 155.773 460.247 156.416Z"/>
	<defs>
		<linearGradient id="gradient_0" gradientUnits="userSpaceOnUse" x1="174.36301" y1="658.06702" x2="108.473" y2="792.724">
			<stop offset="0" stop-color="#006956" stop-opacity="0.25882354"/>
			<stop offset="1" stop-color="#006855" stop-opacity="0.59215689"/>
		</linearGradient>
	</defs>
	<path fill="url(#gradient_0)" transform="matrix(0.648436 -0.00113426 0.00124131 0.709634 0 0.871124)" d="M1.82325 511.251C1.8343 510.054 1.60308 508.546 2.26225 507.557L2.26225 502.424L2.874 502.017L3.18193 502.526C2.92404 503.128 2.78632 503.397 2.97664 504.068L3.13702 504.42C3.54262 505.499 3.30391 507.393 3.30498 508.57L3.28457 519.26L3.49396 519.055C3.49396 518.408 3.29249 516.507 3.49396 515.975C3.52576 515.891 4.26256 515.257 4.3151 515.154C4.71202 514.373 4.29466 512.751 4.10777 511.971C4.02996 511.646 4.19685 511.502 4.31831 511.196C4.60603 510.471 4.43471 510.326 4.41569 509.61C4.36684 507.77 5.11358 504.552 4.10571 503.04C4.10571 501.604 3.7381 499.279 4.51628 498.112C4.49234 497.1 4.62048 495.932 4.10571 495.032L4.311 493.804C4.75867 494.478 4.75543 494.504 4.88512 495.239L5.00632 495.88C5.82271 500.399 5.72861 505.293 5.8863 509.875L6.3457 535.842C6.33853 540.84 6.02325 546.018 6.77032 550.88L6.70642 551.901L6.66344 559.028L6.77443 575.933L7.59146 576.545L7.59967 577.572L8.21143 577.165L8.76313 577.55C9.53723 578.081 10.2707 578.214 11.0834 578.6C11.8557 578.967 12.4332 579.673 12.8015 580.408C13.0979 581 13.2697 581.226 13.6741 581.705C14.1989 582.326 14.2445 582.377 14.3679 583.117C14.5637 584.292 14.9798 585.453 15.356 586.582C15.6014 587.318 15.9831 587.845 16.3939 588.488C16.7208 589 16.6024 588.8 16.8334 589.484L19.2968 590.716L19.8369 590.446L20.1847 590.277C20.4877 590.125 20.7526 589.904 21.0558 589.753C22.0526 589.255 23.3441 589.441 24.429 589.484C25.6254 590.282 26.4157 591.041 27.2989 592.149L30.1729 595.845L30.7908 596.258L31.4087 597.287L32.0225 597.49C32.4747 598.243 32.3837 598.433 33.2542 598.722L33.6668 599.34C35.9391 602.228 39.9717 603.474 41.8762 606.935C42.3411 607.779 43.0896 607.955 43.5185 608.988C43.9286 609.975 44.4183 610.702 44.6338 611.772C44.7578 612.387 44.9679 612.627 45.364 613.092C45.3678 614.045 45.3393 613.873 45.7746 614.735L45.8653 615.108C46.0455 615.824 45.8995 615.355 46.3015 616.16C46.6397 616.838 46.6604 617.088 46.5998 617.819L47.0063 618.431L47.421 619.663L47.6372 620.189C47.907 620.87 47.7774 620.492 47.9182 621.191C48.3518 623.342 50.0788 626.285 49.8844 628.496L50.2909 629.107L50.4982 629.931C50.9388 631.408 51.3807 633.286 52.0495 634.626C52.3883 635.305 52.4083 635.568 52.3478 636.298L52.7543 636.91L52.9637 637.63L53.5754 638.347C53.5787 639.323 53.4968 639.333 53.986 640.195C54.2609 640.679 54.3795 641.187 54.4876 641.723C54.6264 642.412 54.9227 642.855 55.2177 643.48L55.8356 645.125L56.1425 645.727C56.5826 646.608 56.8115 647.508 57.2706 648.408L58.1827 650.257L59.9414 653.338L62.1974 657.442L65.0714 662.78L65.1622 663.179C65.3452 663.906 66.1455 665.329 66.5105 666.067L66.7917 666.439C67.2019 666.986 67.4377 667.512 67.7422 668.121L68.0748 668.761C68.4326 669.478 68.2975 669.144 68.4597 669.788C68.6038 670.36 68.879 670.51 69.1772 670.993L69.7951 672.227L70.8194 673.868L72.4617 676.742L73.3738 678.604C73.7661 679.39 73.5827 679.048 74.1294 679.732C74.6717 680.41 74.436 680.571 74.7219 681.261L75.3357 682.081L77.1853 685.368C77.8722 686.77 78.4905 688.16 79.4691 689.384C79.9613 690 79.7981 690.073 80.0593 690.706L81.0837 692.347L81.3797 692.951C81.6713 693.533 81.9376 693.887 82.3154 694.4C82.8824 695.169 82.9799 695.675 83.3439 696.455L83.9577 697.274C84.5452 698.071 84.9417 698.871 85.3968 699.74C85.7062 700.331 86.0345 700.774 86.4489 701.293C86.9341 701.9 86.7985 701.971 87.0391 702.615C87.3593 703.473 88.001 703.962 88.6175 704.579C89.0775 705.039 88.766 704.735 89.0919 705.489C89.4195 706.248 90.0123 706.907 90.5269 707.541L91.7609 709.07C92.4856 709.977 93.022 711.002 93.8155 711.856C94.6231 712.726 95.6868 713.376 96.0716 714.524C96.6993 714.9 96.9036 714.961 97.3054 715.552C97.6212 716.017 98.1086 716.245 98.5351 716.577C100.03 717.74 100.907 719.44 102.641 720.273L103.464 720.891L105.324 722.148C106.099 722.665 106.781 722.759 107.568 723.147L107.941 723.43C109.547 724.636 111.709 725.044 113.483 725.933C114.303 726.343 114.691 726.282 115.576 726.229L116.192 726.64C117.142 726.64 116.973 726.598 117.834 727.05L121.182 727.781C121.914 727.928 122.633 727.884 123.377 727.872L123.993 728.282C124.865 728.282 124.858 728.175 125.635 728.693C128.078 728.693 136.269 727.981 137.952 729.103C139.456 729.103 142.077 728.706 143.289 729.514C145.137 729.514 149.706 729.001 151.09 729.925C152.662 729.925 155.582 729.498 156.838 730.335L166.625 730.332C167.802 730.332 168.983 730.585 169.977 729.925C170.992 729.923 171.568 730.093 172.44 729.514C173.307 729.511 173.311 729.616 174.082 729.103C175.098 729.101 175.674 729.272 176.546 728.693C177.489 728.689 177.335 728.73 178.188 728.282C178.791 727.966 179.964 727.853 180.653 727.664C181.216 727.51 181.73 727.437 182.296 727.254L182.873 727.074C183.798 726.765 183.275 726.95 184.155 726.511C184.814 726.182 185.075 726.166 185.788 726.225L186.399 725.818L187.223 725.611L190.315 724.571C190.868 724.387 191.391 724.325 191.942 724.176C192.683 723.975 192.461 723.992 193.149 723.649C193.828 723.31 194.09 723.29 194.82 723.35L195.432 722.944C196.058 722.615 197.185 722.541 197.897 722.326C198.787 722.057 199.652 722.106 200.568 722.118L201.18 721.712C202.196 721.71 202.772 721.88 203.643 721.301C204.616 721.298 204.86 721.446 205.696 720.891C207.918 720.891 215.642 720.268 217.192 721.301C218.17 721.301 218.404 721.151 219.245 721.712C220.749 721.712 223.37 721.314 224.582 722.123C225.755 722.123 226.878 721.873 227.867 722.533C228.74 722.533 228.733 722.426 229.509 722.944C230.487 722.944 230.721 722.794 231.562 723.354C232.617 723.354 232.689 723.279 233.615 723.765C234.376 724.165 235.791 724.292 236.666 724.584C237.237 724.774 237.768 724.844 238.337 724.997L238.95 725.2L239.528 725.38C240.213 725.608 240.768 725.926 241.416 726.229L243.056 726.843C243.95 727.213 245.076 727.643 245.93 728.075L246.329 728.384C246.907 728.818 247.731 729.109 248.396 729.514C251.757 731.564 254.891 734.147 257.698 736.934C258.685 737.914 259.705 738.73 260.3 739.983C261.165 741.806 263.134 743.205 264.084 745.103C264.377 745.688 264.648 746.034 265.02 746.552L267.085 749.631C267.668 750.506 267.324 749.968 267.786 750.89C268.163 751.643 268.56 751.71 269.025 752.301C269.18 752.498 269.233 752.908 269.333 753.124L273.646 759.491L274.052 760.103C275.298 761.817 276.415 763.427 277.898 764.943C278.434 765.491 277.897 764.958 278.365 765.854L279.033 766.578C279.852 767.422 280.497 768.221 281.099 769.224C281.539 769.956 282.134 770.419 282.728 771.013C283.367 771.652 282.862 771.109 283.292 772.014C283.704 772.882 284.632 773.62 285.138 774.476C285.943 775.841 286.609 777.39 287.32 778.814C287.752 779.679 287.97 780.57 288.422 781.457L289.334 783.306C289.754 784.147 290.291 784.881 290.713 785.724C291.231 786.757 292.875 788.553 293.967 788.85L295.609 789.261L296.638 789.468L297.254 789.058C298.27 789.055 298.846 789.226 299.717 788.647C300.81 788.645 301.662 788.854 302.591 788.236C303.503 788.233 303.412 788.305 304.233 787.826L306.491 786.594L307.107 786.59L307.518 786.183C308.385 786.18 308.389 786.285 309.16 785.772L309.535 785.983C311.527 786.78 312.951 785.595 315.109 787L315.216 787.514L315.935 786.795C316.612 787.479 316.341 789.283 316.341 790.285L315.729 790.285L315.317 790.388C315.1 791.139 315.092 791.572 315.109 792.339L314.701 792.852L315.319 793.365C315.817 792.867 315.901 792.576 316.14 791.928L315.528 791.517L316.14 791.211C316.741 790.849 317.612 789.133 317.782 788.438L317.885 787.308C318.099 786.366 318.783 785.491 319.052 784.504C319.491 782.895 320.558 781.929 320.861 780.225C321.566 780.527 321.447 780.552 322.298 780.43C322.777 778.356 321.306 777.306 322.298 775.092L322.44 774.708C322.713 773.981 322.896 773.412 323.528 772.936L323.941 773.654L324.561 773.449C324.637 772.813 324.705 772.739 324.454 772.114C324.77 771.546 324.784 771.281 325.382 770.985L325.264 770.42C325.153 769.767 325.168 769.536 325.378 768.936L325.769 769.548L325.792 768.932L326.026 768.708C326.527 768.182 326.917 767.567 327.325 766.97C323.004 789.033 311.372 811.564 292.416 824.306L287.233 827.623L280.819 831.09C279.439 831.775 275.853 834.034 274.419 833.939L273.053 835.298C272.148 836.173 271.912 837.294 271.847 838.536C271.803 839.372 272.013 840.19 272.193 841L268.469 841L254.225 841L7.40812 841L1.64229 841C2.22936 835.986 1.73972 830.365 1.7456 825.293L1.58946 791.273L1.65728 723.711C1.31743 721.012 1.51798 718.103 1.51438 715.373L1.53439 700.095L1.5842 647.321C0.746607 642.987 1.32085 637.711 1.35144 633.279L1.48601 607.212L1.59227 515.873C1.60089 514.991 1.69731 512.496 2.04062 511.77L2.22912 511.481L1.82325 511.251ZM1.5842 647.321L1.53439 700.095L1.51438 715.373C1.51798 718.103 1.31743 721.012 1.65728 723.711L1.58946 791.273L1.7456 825.293C1.73972 830.365 2.22936 835.986 1.64229 841L7.40812 841L254.225 841L268.469 841C268.387 839.167 268.069 837.842 269.248 836.357C268.06 836.033 266.176 836.788 264.958 837.086C264.363 836.601 263.818 836.357 263.108 836.072C262.157 836.02 261.341 835.914 260.46 836.355C259.832 836.669 259.352 836.916 258.66 837.099L257.839 837.304L256.9 837.862C254.928 838.806 253.387 837.418 251.578 836.896C251.141 837.183 250.958 837.1 250.448 837.103C249.613 837.659 249.368 837.511 248.396 837.514C247.535 836.94 247.036 837.102 246.035 837.101L245.723 836.483C246.366 835.626 246.511 835.555 247.572 835.249L248.396 835.042L249.007 834.635C249.75 834.645 250.472 834.687 251.205 834.542L252.707 834.22L253.731 834.017C255.246 833.593 255.772 833.673 256.808 832.376L256.402 831.765C256.461 831.052 256.445 830.79 256.116 830.132C255.677 829.252 255.861 829.774 255.553 828.85C255.062 827.377 254.351 827.345 253.731 826.219C253.146 825.156 252.57 824.615 251.678 823.755L251.471 822.932C250.952 821.902 251.063 821.426 251.06 820.262L250.448 819.546C249.867 818.549 248.863 817.817 247.804 817.288L247.164 816.981L245.93 816.363L244.29 815.749C243.165 815.223 241.744 814.491 240.555 814.196L240.184 814.107C238.856 813.435 240.216 813.888 239.049 813.535L238.542 813.386L238.029 813.078L236.9 812.464L236.076 811.846C235.486 811.563 235.279 811.679 234.629 811.245L232.381 809.793L231.152 809.179C230.606 808.838 230.505 808.568 229.829 808.434C227.688 808.009 226.106 806.883 224.132 806.393L223.761 806.305C222.517 805.675 220.288 805.699 218.859 805.983L218.426 806.097L217.603 806.305C216.749 806.752 216.904 806.712 215.96 806.715C215.189 807.228 215.186 807.122 214.318 807.126C213.068 808.117 211.635 808.104 210.212 808.769C209.628 809.041 209.164 809.34 208.533 809.499L208.16 809.59C207.298 810.025 207.47 809.997 206.517 810C205.588 810.618 204.737 810.409 203.643 810.411C202.807 810.967 202.563 810.819 201.59 810.822C200.605 811.477 199.474 811.231 198.306 811.232C196.713 812.291 191.01 811.642 188.863 811.643C187.93 811.021 187.087 811.232 185.989 811.232C185.148 810.672 184.914 810.822 183.936 810.822L183.32 810.411C182.626 810.473 182.334 810.463 181.689 810.14L181.06 809.793L179.83 809.179L179.007 808.561C178.223 808.188 177.872 808.266 177.162 807.537C175.794 806.133 175.929 805.459 175.926 803.631L175.519 803.019C175.53 802.277 175.571 801.554 175.426 800.822L175.105 799.32L174.901 798.295C174.606 797.238 173.551 796.349 172.593 795.871L172.029 795.628L170.385 794.599C169.325 794.13 167.988 793.464 166.897 793.164C166.345 793.012 165.552 793.017 165.05 792.753C164.189 792.301 164.358 792.343 163.407 792.343C162.418 791.683 161.295 791.932 160.123 791.932C159.282 791.371 159.048 791.521 158.07 791.521C156.857 790.713 154.237 791.111 152.733 791.111C151.799 790.489 150.957 790.7 149.859 790.7C148.511 791.595 144.25 791.11 142.468 791.111C141.473 791.772 140.287 791.513 139.107 791.511C135.915 791.505 131.096 790.891 128.1 791.725C126.644 792.13 124.395 791.711 123.171 792.226C122.238 792.62 122.359 792.745 121.119 792.745C119.77 793.644 115.512 793.156 113.728 793.156C112.892 792.6 112.648 792.748 111.675 792.745L111.064 792.339C110.027 792.386 109.067 792.518 108.109 792.04C107.318 791.645 107.859 791.756 107.045 791.591C105.971 791.375 105.064 791.293 104.068 790.796L103.466 790.489L101.22 789.577L100.592 789.257L96.6894 787.009C95.5879 786.274 94.3174 785.549 93.2994 784.705C92.7547 784.253 92.1627 783.409 91.5594 783.097C90.4793 782.538 91.3571 783.304 90.4803 782.481C89.8125 781.853 89.1539 780.965 88.2749 780.633L87.657 780.426L86.8399 779.403C86.3636 778.992 85.4903 778.032 84.9903 777.759C83.5064 776.948 82.6812 775.679 81.3581 774.62C78.0386 771.961 74.1362 768.22 70.401 766.349C69.3251 765.81 68.5472 765.044 67.5431 764.415C66.0231 763.463 64.8097 762.105 63.3341 761.219C62.2268 760.553 61.3852 759.821 60.4641 758.92L59.5349 758.048C57.2128 756.739 53.2864 752.606 51.6451 750.296C50.3366 748.453 48.66 746.48 47.6242 744.501L42.0662 734.81C41.5448 734.043 41.274 733.373 40.8477 732.59L39.8234 730.949L39.616 730.126C39.1827 729.377 38.8456 729.297 38.5789 728.37C38.3463 727.561 38.515 727.802 38.0644 727.201L37.7705 726.843L37.1526 725.198C36.494 723.787 35.7124 722.183 35.3071 720.683C34.9948 719.528 34.3886 718.557 34.0754 717.398C33.7631 716.242 33.1569 715.272 32.8436 714.113C32.6862 713.53 32.6128 713.23 32.3294 712.662C32.035 712.072 31.9869 712.075 31.8152 711.442C31.6655 710.89 31.6042 710.368 31.4196 709.814L30.7908 707.953L30.2241 706.36C29.9802 705.805 29.7542 705.319 29.635 704.718L29.5591 704.257L29.3517 703.639C29.2021 703.088 29.1407 702.566 28.9562 702.012L28.12 699.533C27.6419 697.771 27.2602 695.631 26.4777 693.989C26.081 693.157 25.6966 692.428 25.4534 691.527C25.3037 690.973 25.2321 690.651 24.9648 690.115L24.6322 689.474C24.3074 688.824 24.0214 688.232 23.6162 687.624L23.1932 687.008C22.074 685.233 21.3744 685.366 19.7074 684.343C18.4485 683.571 17.4844 682.237 17.1253 680.811L17.0346 680.438L16.6281 679.826C16.6886 679.096 16.6686 678.833 16.3298 678.155C16.027 677.548 15.8341 677.131 15.7013 676.461L14.9817 673.046C14.4682 672.066 14.5736 671.69 14.5712 670.583C14.0589 669.811 14.1641 669.808 14.1606 668.94C13.6483 668.169 13.7535 668.165 13.75 667.297C13.1326 666.368 13.3414 665.516 13.3395 664.423C12.8516 663.689 12.9517 664.011 12.818 663.206C12.6692 662.31 12.8047 662.864 12.6229 662.151L12.1077 659.7C11.8005 657.978 11.2778 657.211 10.059 656.009L8.42082 657.647C8.48064 658.934 8.3073 659.46 7.59967 660.522L7.59146 660.111L6.97971 659.7L6.87707 629.52L6.77032 628.286C6.99169 626.742 6.86581 625.575 6.86581 623.988L6.87707 620.176C6.86225 618.858 7.21077 617.467 6.99806 616.18C6.30859 612.007 6.38699 607.376 6.33722 603.133L5.82295 580.97L4.70256 536.096L1.5842 647.321ZM263.108 836.072C263.818 836.357 264.363 836.601 264.958 837.086C266.176 836.788 268.06 836.033 269.248 836.357C268.069 837.842 268.387 839.167 268.469 841L272.193 841C272.013 840.19 271.803 839.372 271.847 838.536C271.912 837.294 272.148 836.173 273.053 835.298L274.419 833.939L271.826 833.902C272.147 833.268 272.293 833.263 272.867 832.89L272.003 832.586C271.657 832.922 271.372 833.219 271.08 833.606L271.182 833.818C270.401 834.339 270.052 834.276 269.129 834.019L268.715 833.814C268.715 832.164 268.208 832.075 267.077 830.943C265.813 831.164 263.712 831.641 262.975 832.787C262.502 833.522 262.278 834.191 262.154 835.046L262.504 835.32C262.984 835.718 262.822 835.535 263.108 836.072ZM280.819 831.09L287.233 827.623C287.733 826.936 288.151 826.419 288.422 825.601L287.81 825.194L286.784 825.605L286.168 824.985C286.389 824.101 286.195 824.347 286.989 823.753L287.547 823.285C288.054 822.87 288.259 822.735 288.837 822.521C289.269 822.361 289.534 822.217 289.908 821.95C290.353 821.633 290.586 821.626 291.095 821.494L291.814 821.287L291.711 820.267C290.662 820.285 290.011 820.42 289.039 820.806C288.298 821.1 288.944 820.851 287.903 821.151C285.75 821.77 284.449 824.586 282.144 825.585C280.714 826.204 280.214 826.658 279.617 828.065C279.99 829.104 280.077 829.544 279.602 830.591C279.942 830.706 280.589 830.82 280.819 831.09Z"/>
	<defs>
		<linearGradient id="gradient_1" gradientUnits="userSpaceOnUse" x1="138.245" y1="737.59003" x2="43.752998" y2="867.37299">
			<stop offset="0" stop-color="#006855" stop-opacity="0.59215689"/>
			<stop offset="1" stop-color="#006857" stop-opacity="0.82352942"/>
		</linearGradient>
	</defs>
	<path fill="url(#gradient_1)" transform="matrix(0.648436 -0.00113426 0.00124131 0.709634 0 0.871124)" d="M1.5842 647.321L4.70256 536.096L5.82295 580.97L6.33722 603.133C6.38699 607.376 6.30859 612.007 6.99806 616.18C7.21077 617.467 6.86225 618.858 6.87707 620.176L6.86581 623.988C6.86581 625.575 6.99169 626.742 6.77032 628.286L6.87707 629.52L6.97971 659.7L7.59146 660.111L7.59967 660.522C8.3073 659.46 8.48064 658.934 8.42082 657.647L10.059 656.009C11.2778 657.211 11.8005 657.978 12.1077 659.7L12.6229 662.151C12.8047 662.864 12.6692 662.31 12.818 663.206C12.9517 664.011 12.8516 663.689 13.3395 664.423C13.3414 665.516 13.1326 666.368 13.75 667.297C13.7535 668.165 13.6483 668.169 14.1606 668.94C14.1641 669.808 14.0589 669.811 14.5712 670.583C14.5736 671.69 14.4682 672.066 14.9817 673.046L15.7013 676.461C15.8341 677.131 16.027 677.548 16.3298 678.155C16.6686 678.833 16.6886 679.096 16.6281 679.826L17.0346 680.438L17.1253 680.811C17.4844 682.237 18.4485 683.571 19.7074 684.343C21.3744 685.366 22.074 685.233 23.1932 687.008L23.6162 687.624C24.0214 688.232 24.3074 688.824 24.6322 689.474L24.9648 690.115C25.2321 690.651 25.3037 690.973 25.4534 691.527C25.6966 692.428 26.081 693.157 26.4777 693.989C27.2602 695.631 27.6419 697.771 28.12 699.533L28.9562 702.012C29.1407 702.566 29.2021 703.088 29.3517 703.639L29.5591 704.257L29.635 704.718C29.7542 705.319 29.9802 705.805 30.2241 706.36L30.7908 707.953L31.4196 709.814C31.6042 710.368 31.6655 710.89 31.8152 711.442C31.9869 712.075 32.035 712.072 32.3294 712.662C32.6128 713.23 32.6862 713.53 32.8436 714.113C33.1569 715.272 33.7631 716.242 34.0754 717.398C34.3886 718.557 34.9948 719.528 35.3071 720.683C35.7124 722.183 36.494 723.787 37.1526 725.198L37.7705 726.843L38.0644 727.201C38.515 727.802 38.3463 727.561 38.5789 728.37C38.8456 729.297 39.1827 729.377 39.616 730.126L39.8234 730.949L40.8477 732.59C41.274 733.373 41.5448 734.043 42.0662 734.81L47.6242 744.501C48.66 746.48 50.3366 748.453 51.6451 750.296C53.2864 752.606 57.2128 756.739 59.5349 758.048L60.4641 758.92C61.3852 759.821 62.2268 760.553 63.3341 761.219C64.8097 762.105 66.0231 763.463 67.5431 764.415C68.5472 765.044 69.3251 765.81 70.401 766.349C74.1362 768.22 78.0386 771.961 81.3581 774.62C82.6812 775.679 83.5064 776.948 84.9903 777.759C85.4903 778.032 86.3636 778.992 86.8399 779.403L87.657 780.426L88.2749 780.633C89.1539 780.965 89.8125 781.853 90.4803 782.481C91.3571 783.304 90.4793 782.538 91.5594 783.097C92.1627 783.409 92.7547 784.253 93.2994 784.705C94.3174 785.549 95.5879 786.274 96.6894 787.009L100.592 789.257L101.22 789.577L103.466 790.489L104.068 790.796C105.064 791.293 105.971 791.375 107.045 791.591C107.859 791.756 107.318 791.645 108.109 792.04C109.067 792.518 110.027 792.386 111.064 792.339L111.675 792.745C112.648 792.748 112.892 792.6 113.728 793.156C115.512 793.156 119.77 793.644 121.119 792.745C122.359 792.745 122.238 792.62 123.171 792.226C124.395 791.711 126.644 792.13 128.1 791.725C131.096 790.891 135.915 791.505 139.107 791.511C140.287 791.513 141.473 791.772 142.468 791.111C144.25 791.11 148.511 791.595 149.859 790.7C150.957 790.7 151.799 790.489 152.733 791.111C154.237 791.111 156.857 790.713 158.07 791.521C159.048 791.521 159.282 791.371 160.123 791.932C161.295 791.932 162.418 791.683 163.407 792.343C164.358 792.343 164.189 792.301 165.05 792.753C165.552 793.017 166.345 793.012 166.897 793.164C167.988 793.464 169.325 794.13 170.385 794.599L172.029 795.628L172.593 795.871C173.551 796.349 174.606 797.238 174.901 798.295L175.105 799.32L175.426 800.822C175.571 801.554 175.53 802.277 175.519 803.019L175.926 803.631C175.929 805.459 175.794 806.133 177.162 807.537C177.872 808.266 178.223 808.188 179.007 808.561L179.83 809.179L181.06 809.793L181.689 810.14C182.334 810.463 182.626 810.473 183.32 810.411L183.936 810.822C184.914 810.822 185.148 810.672 185.989 811.232C187.087 811.232 187.93 811.021 188.863 811.643C191.01 811.642 196.713 812.291 198.306 811.232C199.474 811.231 200.605 811.477 201.59 810.822C202.563 810.819 202.807 810.967 203.643 810.411C204.737 810.409 205.588 810.618 206.517 810C207.47 809.997 207.298 810.025 208.16 809.59L208.533 809.499C209.164 809.34 209.628 809.041 210.212 808.769C211.635 808.104 213.068 808.117 214.318 807.126C215.186 807.122 215.189 807.228 215.96 806.715C216.904 806.712 216.749 806.752 217.603 806.305L218.426 806.097L218.859 805.983C220.288 805.699 222.517 805.675 223.761 806.305L224.132 806.393C226.106 806.883 227.688 808.009 229.829 808.434C230.505 808.568 230.606 808.838 231.152 809.179L232.381 809.793L234.629 811.245C235.279 811.679 235.486 811.563 236.076 811.846L236.9 812.464L238.029 813.078L238.542 813.386L239.049 813.535C240.216 813.888 238.856 813.435 240.184 814.107L240.555 814.196C241.744 814.491 243.165 815.223 244.29 815.749L245.93 816.363L247.164 816.981L247.804 817.288C248.863 817.817 249.867 818.549 250.448 819.546L251.06 820.262C251.063 821.426 250.952 821.902 251.471 822.932L251.678 823.755C252.57 824.615 253.146 825.156 253.731 826.219C254.351 827.345 255.062 827.377 255.553 828.85C255.861 829.774 255.677 829.252 256.116 830.132C256.445 830.79 256.461 831.052 256.402 831.765L256.808 832.376C255.772 833.673 255.246 833.593 253.731 834.017L252.707 834.22L251.205 834.542C250.472 834.687 249.75 834.645 249.007 834.635L248.396 835.042L247.572 835.249C246.511 835.555 246.366 835.626 245.723 836.483L246.035 837.101C247.036 837.102 247.535 836.94 248.396 837.514C249.368 837.511 249.613 837.659 250.448 837.103C250.958 837.1 251.141 837.183 251.578 836.896C253.387 837.418 254.928 838.806 256.9 837.862L257.839 837.304L258.66 837.099C259.352 836.916 259.832 836.669 260.46 836.355C261.341 835.914 262.157 836.02 263.108 836.072C263.818 836.357 264.363 836.601 264.958 837.086C266.176 836.788 268.06 836.033 269.248 836.357C268.069 837.842 268.387 839.167 268.469 841L254.225 841L7.40812 841L1.64229 841C2.22936 835.986 1.73972 830.365 1.7456 825.293L1.58946 791.273L1.65728 723.711C1.31743 721.012 1.51798 718.103 1.51438 715.373L1.53439 700.095L1.5842 647.321ZM1.5842 647.321L1.53439 700.095L1.51438 715.373C1.51798 718.103 1.31743 721.012 1.65728 723.711L1.58946 791.273L1.7456 825.293C1.73972 830.365 2.22936 835.986 1.64229 841L7.40812 841L7.18294 840.076C7.53359 839.092 7.51787 838.379 7.35807 837.367C6.98856 835.027 7.18456 832.728 7.02656 830.376C6.33308 820.051 6.73153 809.484 6.89362 799.138L6.55607 765.758L6.00899 668.373C5.9231 652.584 4.8595 636.415 5.69236 620.677C6.40775 617.195 5.93404 612.893 5.90248 609.304C5.81998 599.923 5.30131 590.329 5.82295 580.97L4.70256 536.096L1.5842 647.321ZM264.958 837.086C261.776 838.164 258.203 839.571 254.894 840.071C254.563 840.404 254.384 840.548 254.225 841L268.469 841C268.387 839.167 268.069 837.842 269.248 836.357C268.06 836.033 266.176 836.788 264.958 837.086Z"/>
	<path fill="#006A57" fill-opacity="0.94509804" transform="matrix(0.648436 -0.00113426 0.00124131 0.709634 0 0.871124)" d="M1.5842 647.321L4.70256 536.096L5.82295 580.97C5.30131 590.329 5.81998 599.923 5.90248 609.304C5.93404 612.893 6.40775 617.195 5.69236 620.677C4.8595 636.415 5.9231 652.584 6.00899 668.373L6.55607 765.758L6.89362 799.138C6.73153 809.484 6.33308 820.051 7.02656 830.376C7.18456 832.728 6.98856 835.027 7.35807 837.367C7.51787 838.379 7.53359 839.092 7.18294 840.076L7.40812 841L1.64229 841C2.22936 835.986 1.73972 830.365 1.7456 825.293L1.58946 791.273L1.65728 723.711C1.31743 721.012 1.51798 718.103 1.51438 715.373L1.53439 700.095L1.5842 647.321ZM1.5842 647.321L1.53439 700.095L1.51438 715.373C1.51798 718.103 1.31743 721.012 1.65728 723.711C2.47263 718.701 1.93863 712.851 1.97939 707.748L2.29287 672.119L2.85988 650.588C2.90665 647.727 2.66869 644.879 2.7949 642.017L3.91707 618.033L4.66815 608.636L4.71746 579.419L4.82627 582.705L4.72568 583.321C4.72568 583.931 4.95277 584.416 4.88913 585.066C4.83075 585.662 4.85568 586.217 4.82627 586.811L4.82627 598.129C4.82627 600.254 4.53997 602.82 4.92686 604.879C5.87005 609.899 5.18936 615.518 5.69236 620.677C6.40775 617.195 5.93404 612.893 5.90248 609.304C5.81998 599.923 5.30131 590.329 5.82295 580.97L4.70256 536.096L1.5842 647.321Z"/>
	<path fill="#006956" fill-opacity="0.58823532" transform="matrix(0.648436 -0.00113426 0.00124131 0.709634 0 0.871124)" d="M1.5842 647.321L4.70256 536.096L5.82295 580.97C5.30131 590.329 5.81998 599.923 5.90248 609.304C5.93404 612.893 6.40775 617.195 5.69236 620.677C5.18936 615.518 5.87005 609.899 4.92686 604.879C4.53997 602.82 4.82627 600.254 4.82627 598.129L4.82627 586.811C4.85568 586.217 4.83075 585.662 4.88913 585.066C4.95277 584.416 4.72568 583.931 4.72568 583.321L4.82627 582.705L4.71746 579.419L4.66815 608.636L3.91707 618.033L2.7949 642.017C2.66869 644.879 2.90665 647.727 2.85988 650.588L2.29287 672.119L1.97939 707.748C1.93863 712.851 2.47263 718.701 1.65728 723.711C1.31743 721.012 1.51798 718.103 1.51438 715.373L1.53439 700.095L1.5842 647.321Z"/>
	<path fill="white" transform="matrix(0.648436 -0.00113426 0.00124131 0.709634 0 0.871124)" d="M521.865 108.16C538.948 105.779 555.836 108.855 569.827 119.391C572.874 121.685 575.796 124.286 578.44 127.034C580.89 129.582 583.073 133.39 586.179 135.1C588.846 136.568 592.506 137.047 595.448 137.789L610.421 141.746L671.642 157.326C683.375 160.252 695.701 162.489 706.992 166.832C705.464 173.575 702.801 180.127 699.831 186.362C692.027 202.744 680.688 217.658 665.177 227.429C654.169 234.364 639.384 238.451 626.472 235.533C618.952 233.834 614.013 230.917 608.216 225.926L574.903 278.907L484.757 415.551L438.589 485.395C425.114 505.672 410.649 525.616 399.384 547.236C393.523 558.484 388.686 570.552 384.817 582.628C381.139 594.106 378.96 606.164 377.104 618.053C372.296 648.859 371.316 679.194 373.404 710.294C374.529 727.059 376.347 743.852 379.874 760.297C383.966 779.377 391.276 798.612 404.28 813.443C407.425 817.031 411.036 820.055 414.594 823.208C420.9 827.505 427.464 830.454 434.032 834.217C435.545 834.676 436.623 835.359 437.901 836.278C438.191 837.072 438.488 837.381 438.261 838.202C438.005 839.132 438.02 840.045 438.007 841L272.193 841C272.013 840.19 271.803 839.372 271.847 838.536C271.912 837.294 272.148 836.173 273.053 835.298L274.419 833.939C275.853 834.034 279.439 831.775 280.819 831.09L287.233 827.623L292.416 824.306C311.372 811.564 323.004 789.033 327.325 766.97C329.152 760.39 330.154 753.415 331.167 746.674C332.959 734.745 334.27 722.665 334.655 710.597C335.338 706.937 335.219 702.875 335.4 699.151C335.991 687.049 336.538 673.891 335.062 661.873C334.882 650.122 333.5 638.251 331.739 626.644C328.258 603.701 322.444 580.94 313.233 559.593C303.517 537.075 289.959 517.359 276.457 497.034L250.33 456.432L166.627 318.412L143.87 280.477L135.326 266.674C133.718 264.069 131.839 261.44 130.718 258.58C129.316 255.003 129.636 251.479 129.777 247.727L149.476 247.563L187.718 247.5L345.067 246.705L394.904 246.408C404.659 246.391 414.927 247.149 424.588 246.045C422.186 243.838 419.32 242.253 416.906 240.019C409.084 232.776 403.389 222.76 399.143 213.074C391.196 194.948 389.3 175.662 391.566 156.154C392.048 152.006 392.329 147.487 393.866 143.588L455.202 157.227C457.043 157.69 458.624 158.037 460.305 157.033L460.247 156.416C460.701 155.773 460.514 155.967 460.96 155.533C464.317 152.26 466.315 147.693 468.968 143.838C477.244 131.812 487.751 120.108 500.865 113.259C504.967 111.117 511.603 108.08 516.224 109.527L521.865 108.16ZM177.782 301.801L258.35 436.066L279.804 471.473C287.97 485.003 295.904 499.197 306.685 510.846C314.867 519.684 326.261 526.069 337.85 529.118C353.317 533.187 370.63 531.124 384.509 523.11C403.411 512.196 414.504 492.48 425.993 474.724L446.479 443.065C445.867 443.568 445.325 444.007 444.825 444.628L444.439 445.139L443.825 445.958C443.343 446.975 442.798 447.43 441.98 448.214L441.775 447.603C442.24 446.928 443.039 445.927 443.212 445.139L443.216 444.523L444.033 443.907C444.566 442.06 446.12 442.231 446.291 440.006C445.405 439.896 445.45 439.864 444.858 439.184L444.449 439.053C442.891 438.412 441.738 438.239 440.04 438.27L439.406 439.484L439.93 440.46L439.303 440.714L438.289 440.006L438.7 437.952C439.339 437.544 439.792 437.273 440.543 437.135C441.379 437.691 441.624 437.543 442.596 437.546C443.391 438.074 443.834 438.083 444.753 438.212L445.158 438.266C437.296 434.51 429.423 431.296 421.79 427.012C383.595 405.577 350.155 374.831 319.458 343.865L299.382 323.234C295.186 318.716 291.027 313.401 286.419 309.344L286.186 309.143L284.528 308.392L283.91 308.185C282.085 304.985 279.736 306.833 276.969 305.618C276.138 305.252 275.353 305.089 274.467 304.899C272.406 305.718 270.277 305.616 268.105 305.448L268.308 305.083C269.298 305.035 270.255 304.985 271.233 304.805L269.54 304.698C267.461 304.402 256.24 304.161 254.965 305.008C254.526 305.3 254.66 305.391 254.144 305.314C252.687 305.097 251.48 304.622 249.962 304.805C247.832 305.062 244.228 305.312 242.198 304.691C241.58 304.502 241.113 304.35 240.461 304.438C239.024 304.631 237.824 304.467 236.401 304.529L235.936 304.556C233.129 304.535 230.07 304.571 227.263 304.822C226.772 304.866 226.343 304.915 225.853 304.815C225.271 304.696 224.822 304.52 224.213 304.603C222.988 304.77 221.462 304.802 220.334 305.25C218.373 306.03 214.531 305.539 212.3 305.541L188.863 305.419L181.267 305.318C180.641 304.815 180.832 305.078 180.492 304.419C180.25 303.949 179.989 303.604 179.728 303.158C179.267 302.375 178.981 301.758 178.341 301.093L177.782 301.801ZM254.467 269.196L253.117 269.63L267.702 288.142C270.357 291.442 274.336 295.181 276.123 298.968L250.7 298.957L226.45 298.903C220.949 298.883 215.235 298.513 209.802 299.445C205.339 300.21 200.576 300.084 196.062 300.056C192.799 300.035 189.492 300.187 186.238 299.951C184.393 299.816 182.544 299.679 180.725 299.34C180.176 299.237 178.475 298.802 177.983 298.958C177.627 299.07 177.457 299.486 177.194 299.751L177.008 300.681L177.782 301.801L178.341 301.093C178.981 301.758 179.267 302.375 179.728 303.158C179.989 303.604 180.25 303.949 180.492 304.419C180.832 305.078 180.641 304.815 181.267 305.318L188.863 305.419L212.3 305.541C214.531 305.539 218.373 306.03 220.334 305.25C221.462 304.802 222.988 304.77 224.213 304.603C224.822 304.52 225.271 304.696 225.853 304.815C226.343 304.915 226.772 304.866 227.263 304.822C230.07 304.571 233.129 304.535 235.936 304.556L236.401 304.529C237.824 304.467 239.024 304.631 240.461 304.438C241.113 304.35 241.58 304.502 242.198 304.691C244.228 305.312 247.832 305.062 249.962 304.805C251.48 304.622 252.687 305.097 254.144 305.314C254.66 305.391 254.526 305.3 254.965 305.008C256.24 304.161 267.461 304.402 269.54 304.698L271.233 304.805C270.255 304.985 269.298 305.035 268.308 305.083L268.105 305.448C270.277 305.616 272.406 305.718 274.467 304.899C275.353 305.089 276.138 305.252 276.969 305.618C279.736 306.833 282.085 304.985 283.91 308.185L284.528 308.392L286.186 309.143L282.686 305.095L459.816 305.05L510.329 305.045L524.3 305.052C527.033 305.055 530.004 304.818 532.697 305.272L532.906 306.405L533.818 308.269L534.396 308.44L540.281 299.039C542.441 297.269 544.277 293.841 545.854 291.522C551.109 283.788 556.104 276.422 560.281 268.023L501.064 268.201L487.05 268.541L433.974 268.57L422.019 268.987L378.583 268.592L363.173 269.176L283.519 269.25L264.614 269.319C261.292 269.345 257.757 269.64 254.467 269.196ZM454.726 245.599L460.089 245.939L457.171 244.954L457.992 244.2C458.753 241.543 459.335 240.832 461.525 239.2L462.671 239.438L461.865 237.23C453.939 212.634 454.828 187.657 461.091 162.779L460.621 162.218C455.761 162.206 450.204 160.015 445.435 158.858L421.507 153.415C420.936 152.788 416.287 152.116 415.267 151.943L402.098 148.814C400.518 158.743 399.809 168.089 400.687 178.146C402.43 198.104 412.687 221.044 428.244 234.02C434.868 239.545 445.87 245.601 454.726 245.599ZM198.635 262.857L167.867 262.751C164.531 262.725 161.137 262.552 157.808 262.76C156.915 262.815 155.464 262.768 154.709 263.222C157.311 269.452 161.259 274.746 164.751 280.475L177.008 300.681L177.194 299.751C177.457 299.486 177.627 299.07 177.983 298.958C178.475 298.802 180.176 299.237 180.725 299.34C182.544 299.679 184.393 299.816 186.238 299.951C189.492 300.187 192.799 300.035 196.062 300.056C200.576 300.084 205.339 300.21 209.802 299.445C215.235 298.513 220.949 298.883 226.45 298.903L250.7 298.957L276.123 298.968C274.336 295.181 270.357 291.442 267.702 288.142L253.117 269.63L254.467 269.196L254.405 269.063L250.732 268.799C248.859 267.504 245.795 264.96 245.109 262.775C242.008 261.801 237.105 262.446 233.773 262.443L198.635 262.857ZM595.843 216.035L598.074 212.362C593.383 205.461 589.657 197.771 587.544 189.702C587.402 188.672 587.289 187.68 586.915 186.704C584.974 181.645 584.315 174.608 583.742 169.188C583.547 167.351 583.736 165.314 583.326 163.539C582.658 160.654 583.017 155.885 583.515 152.965C583.741 151.643 583.431 150.185 583.627 148.855L584.331 143.315C584.392 142.618 584.069 142.38 583.627 141.945C581.538 144.134 581.482 149.368 581.092 152.325L562.232 133.286L546.618 168.275L540.053 182.502C538.359 186.129 536.492 189.728 535.478 193.619L535.873 194.542C537.791 195.139 539.844 194.023 541.528 193.13C549.876 188.705 557.784 183.274 565.518 177.867C570.252 174.558 575.527 169.736 580.879 167.696C581.477 168.38 581.649 169.945 581.521 170.828C581.462 171.236 581.356 171.352 581.164 171.662L580.456 171.961C576.603 173.645 572.774 176.659 569.166 178.888L535.897 199.625L592.361 221.749L595.843 216.035ZM476.992 244.477C477.866 245.507 478.048 246.096 479.482 246.256L520.575 245.914C523.661 246.355 527.124 246.04 530.253 246.03L531.038 245.155C529.7 241.369 530.335 235.332 530.238 231.217L529.636 206.748L495.278 241.014C493.248 242.796 492.189 243.651 489.401 243.478L489.097 242.896C490.924 240.068 493.983 237.644 496.476 235.367L507.494 225.105C515.196 217.823 522.319 210.454 528.975 202.202L527.578 201.713C525.868 201.113 524.486 200.732 522.657 200.799C517.773 200.977 512.806 202.329 508.111 203.589L485.341 210.465L465.304 215.793C466.972 222.984 468.625 230.008 471.772 236.737C473.105 239.586 474.57 242.401 476.992 244.477ZM245.109 262.775C245.795 264.96 248.859 267.504 250.732 268.799L254.405 269.063L254.467 269.196C257.757 269.64 261.292 269.345 264.614 269.319L283.519 269.25L363.173 269.176L378.583 268.592L422.019 268.987L433.974 268.57L487.05 268.541L501.064 268.201L560.281 268.023L560.621 267.274L561.854 265.584C563.147 264.808 564.493 262.815 565.529 261.657C563.554 261.252 561.153 261.517 559.129 261.516L546.745 261.519L492.374 261.761L245.109 262.775ZM553.775 245.588L567.01 245.891C569.059 245.955 571.527 246.274 573.532 245.983C574.65 245.821 575.285 245.573 576.115 244.811C577.888 243.359 579.355 241.138 580.702 239.297C584.351 234.313 587.521 228.971 590.743 223.706C581.749 221.863 573.547 218.168 565.049 214.86L545.756 207.548C542.135 206.102 538.33 203.696 534.678 202.664C538.509 213.335 544.857 222.605 550.838 232.157C552.802 235.294 556.123 239.405 557.169 242.896L556.735 243.375L552.939 243.392L531.549 202.346C531.286 205.381 531.534 208.432 531.604 211.476L532.2 227.839C532.474 232.623 534.11 240.499 532.027 244.744L532.163 245.563C534.329 246.865 539.517 245.79 542.053 245.751C545.565 245.696 549.927 246.264 553.326 245.722L553.775 245.588ZM527.437 314.089L447.729 439.399L445.158 438.266L444.753 438.212C443.834 438.083 443.391 438.074 442.596 437.546C441.624 437.543 441.379 437.691 440.543 437.135C439.792 437.273 439.339 437.544 438.7 437.952L438.289 440.006L439.303 440.714L439.93 440.46L439.406 439.484L440.04 438.27C441.738 438.239 442.891 438.412 444.449 439.053L444.858 439.184C445.45 439.864 445.405 439.896 446.291 440.006C446.12 442.231 444.566 442.06 444.033 443.907L443.216 444.523L443.212 445.139C443.039 445.927 442.24 446.928 441.775 447.603L441.98 448.214C442.798 447.43 443.343 446.975 443.825 445.958L444.439 445.139L444.825 444.628C445.325 444.007 445.867 443.568 446.479 443.065L529.69 316.809C529.417 316.453 529.575 316.707 529.421 315.901L529.287 315.17C528.434 314.809 528.759 314.995 527.982 314.468L527.437 314.089ZM434.032 834.217C427.464 830.454 420.9 827.505 414.594 823.208L413.856 823.962L413.465 823.692L409.929 821.78C409.015 821.323 407.87 821.104 406.874 820.88L406.568 820.88L406.654 821.511C407.587 821.918 408.2 822.171 409.237 822.213L411.474 823.967C412.973 825.295 415.04 825.917 416.059 827.709L416.481 827.808C417.726 828.217 418.8 829.215 419.938 829.874C420.719 830.326 420.348 830.083 421.04 830.634C422.435 831.744 423.758 832.087 425.404 832.537L425.968 832.787L427.405 833.403L427.339 834.547C428.914 834.865 430.213 833.408 431.397 833.963C432.237 834.358 433.13 834.26 434.032 834.217ZM460.089 245.939L465.625 245.845L462.671 239.438L461.525 239.2C459.335 240.832 458.753 241.543 457.992 244.2L457.171 244.954L460.089 245.939ZM532.906 306.405C530.822 308.827 529.137 311.388 527.437 314.089L527.982 314.468C528.759 314.995 528.434 314.809 529.287 315.17L529.421 315.901C529.575 316.707 529.417 316.453 529.69 316.809L534.396 308.44L533.818 308.269L532.906 306.405Z"/>
	<path fill="#61D6C2" fill-opacity="0.96862745" transform="matrix(0.648436 -0.00113426 0.00124131 0.709634 0 0.871124)" d="M532.906 306.405L533.818 308.269L534.396 308.44L529.69 316.809C529.417 316.453 529.575 316.707 529.421 315.901L529.287 315.17C528.434 314.809 528.759 314.995 527.982 314.468L527.437 314.089C529.137 311.388 530.822 308.827 532.906 306.405Z"/>
	<path fill="#F9C7B9" transform="matrix(0.648436 -0.00113426 0.00124131 0.709634 0 0.871124)" d="M460.247 156.416C460.701 155.773 460.514 155.967 460.96 155.533C464.317 152.26 466.315 147.693 468.968 143.838C477.244 131.812 487.751 120.108 500.865 113.259C504.967 111.117 511.603 108.08 516.224 109.527L515.812 109.733C510.787 112.205 505.685 114.036 500.778 116.834C487.147 124.607 475.067 137.8 467.022 151.117C464.743 154.891 463.291 159.075 461.091 162.779L460.621 162.218C461.053 160.664 461.038 159.099 461.092 157.498L460.305 157.033L460.247 156.416Z"/>
	<path fill="#84E3CD" fill-opacity="0.87843138" transform="matrix(0.648436 -0.00113426 0.00124131 0.709634 0 0.871124)" d="M527.437 314.089L527.982 314.468C528.759 314.995 528.434 314.809 529.287 315.17L529.421 315.901C529.575 316.707 529.417 316.453 529.69 316.809L446.479 443.065C445.867 443.568 445.325 444.007 444.825 444.628L444.439 445.139L443.825 445.958C443.343 446.975 442.798 447.43 441.98 448.214L441.775 447.603C442.24 446.928 443.039 445.927 443.212 445.139L443.216 444.523L444.033 443.907C444.566 442.06 446.12 442.231 446.291 440.006C445.405 439.896 445.45 439.864 444.858 439.184L444.449 439.053C442.891 438.412 441.738 438.239 440.04 438.27L439.406 439.484L439.93 440.46L439.303 440.714L438.289 440.006L438.7 437.952C439.339 437.544 439.792 437.273 440.543 437.135C441.379 437.691 441.624 437.543 442.596 437.546C443.391 438.074 443.834 438.083 444.753 438.212L445.158 438.266L447.729 439.399L527.437 314.089Z"/>
	<path fill="#C3F795" transform="matrix(0.648436 -0.00113426 0.00124131 0.709634 0 0.871124)" d="M469.192 171.571L476.555 154.409L527.298 194.643L520.194 197.086C517.718 195.471 515.352 194.743 512.706 193.552L495.613 185.703L469.192 171.571Z"/>
	<path fill="#B7F07E" transform="matrix(0.648436 -0.00113426 0.00124131 0.709634 0 0.871124)" d="M469.192 171.571L495.613 185.703L512.706 193.552C515.352 194.743 517.718 195.471 520.194 197.086L465.145 212.917C463.881 198.961 465.518 185.051 469.192 171.571Z"/>
	<path fill="#B7F07E" transform="matrix(0.648436 -0.00113426 0.00124131 0.709634 0 0.871124)" d="M525.434 121.467C532.135 121.938 538.616 122.785 545.033 124.876C550.422 126.633 555.479 129.22 560.533 131.75L541.305 174.011C538.5 180.48 535.882 186.983 532.17 193.002L525.434 121.467Z"/>
	<path fill="#B7F07E" transform="matrix(0.648436 -0.00113426 0.00124131 0.709634 0 0.871124)" d="M553.775 245.588L553.326 245.722C549.927 246.264 545.565 245.696 542.053 245.751C539.517 245.79 534.329 246.865 532.163 245.563L532.027 244.744C534.11 240.499 532.474 232.623 532.2 227.839L531.604 211.476C531.534 208.432 531.286 205.381 531.549 202.346L552.939 243.392L556.735 243.375L557.169 242.896C556.123 239.405 552.802 235.294 550.838 232.157C544.857 222.605 538.509 213.335 534.678 202.664C538.33 203.696 542.135 206.102 545.756 207.548L565.049 214.86C573.547 218.168 581.749 221.863 590.743 223.706C587.521 228.971 584.351 234.313 580.702 239.297C579.355 241.138 577.888 243.359 576.115 244.811C575.285 245.573 574.65 245.821 573.532 245.983C571.527 246.274 569.059 245.955 567.01 245.891L553.775 245.588ZM553.775 245.588L567.01 245.891C569.059 245.955 571.527 246.274 573.532 245.983C574.65 245.821 575.285 245.573 576.115 244.811L575.64 243.818C572.859 243.121 555.653 243.304 553.368 244.539L553.717 245.159L553.775 245.588Z"/>
	<path fill="#B7F07E" transform="matrix(0.648436 -0.00113426 0.00124131 0.709634 0 0.871124)" d="M520.811 122.401C521.48 122.25 521.788 122.276 522.452 122.361C523.17 125.292 523.27 128.469 523.567 131.473L525.088 146.437L529.842 192.408C527.063 190.84 524.451 188.233 521.957 186.187L506.689 173.644L478.322 151.821C485.654 142.207 493.992 133.529 504.958 128.049C510.039 125.51 515.37 123.961 520.811 122.401Z"/>
	<path fill="#61D6C2" transform="matrix(0.648436 -0.00113426 0.00124131 0.709634 0 0.871124)" d="M245.109 262.775L492.374 261.761L546.745 261.519L559.129 261.516C561.153 261.517 563.554 261.252 565.529 261.657C564.493 262.815 563.147 264.808 561.854 265.584L560.621 267.274L560.281 268.023L501.064 268.201L487.05 268.541L433.974 268.57L422.019 268.987L378.583 268.592L363.173 269.176L283.519 269.25L264.614 269.319C261.292 269.345 257.757 269.64 254.467 269.196L254.405 269.063L250.732 268.799C248.859 267.504 245.795 264.96 245.109 262.775ZM560.621 267.274L561.854 265.584L561.833 263.115C560.656 262.568 559.658 262.976 558.446 263.41L557.877 263.619C556.177 264.231 554.39 264.516 552.617 264.841C554.861 265.231 556.796 265.5 558.768 266.694C559.351 267.047 559.771 267.056 560.407 267.184L560.621 267.274Z"/>
	<path fill="#B7F07E" transform="matrix(0.648436 -0.00113426 0.00124131 0.709634 0 0.871124)" d="M476.992 244.477C474.57 242.401 473.105 239.586 471.772 236.737C468.625 230.008 466.972 222.984 465.304 215.793L485.341 210.465L508.111 203.589C512.806 202.329 517.773 200.977 522.657 200.799C524.486 200.732 525.868 201.113 527.578 201.713L528.975 202.202C522.319 210.454 515.196 217.823 507.494 225.105L496.476 235.367C493.983 237.644 490.924 240.068 489.097 242.896L489.401 243.478C492.189 243.651 493.248 242.796 495.278 241.014L529.636 206.748L530.238 231.217C530.335 235.332 529.7 241.369 531.038 245.155L530.253 246.03C527.124 246.04 523.661 246.355 520.575 245.914L479.482 246.256C478.048 246.096 477.866 245.507 476.992 244.477ZM476.992 244.477C477.866 245.507 478.048 246.096 479.482 246.256L520.575 245.914C523.11 245.537 525.657 245.881 528.2 245.308L528.518 244.333L527.789 243.929L485.196 244.404C483.122 244.44 480.022 243.443 478.115 243.866C477.699 243.958 477.367 244.274 476.992 244.477Z"/>
	<path fill="#B7F07E" transform="matrix(0.648436 -0.00113426 0.00124131 0.709634 0 0.871124)" d="M595.843 216.035L592.361 221.749L535.897 199.625L569.166 178.888C572.774 176.659 576.603 173.645 580.456 171.961L581.164 171.662C581.356 171.352 581.462 171.236 581.521 170.828C581.649 169.945 581.477 168.38 580.879 167.696C575.527 169.736 570.252 174.558 565.518 177.867C557.784 183.274 549.876 188.705 541.528 193.13C539.844 194.023 537.791 195.139 535.873 194.542L535.478 193.619C536.492 189.728 538.359 186.129 540.053 182.502L546.618 168.275L562.232 133.286L581.092 152.325C581.482 149.368 581.538 144.134 583.627 141.945C584.069 142.38 584.392 142.618 584.331 143.315L583.627 148.855C583.431 150.185 583.741 151.643 583.515 152.965C583.017 155.885 582.658 160.654 583.326 163.539C583.736 165.314 583.547 167.351 583.742 169.188C584.315 174.608 584.974 181.645 586.915 186.704C587.289 187.68 587.402 188.672 587.544 189.702C589.657 197.771 593.383 205.461 598.074 212.362L595.843 216.035ZM595.843 216.035L598.074 212.362C593.383 205.461 589.657 197.771 587.544 189.702L586.432 189.512L585.677 190.052C586.685 195.39 588.481 200.065 590.405 205.126C591.847 208.921 593.11 212.937 595.843 216.035Z"/>
	<path fill="#61D6C2" fill-opacity="0.94901961" transform="matrix(0.648436 -0.00113426 0.00124131 0.709634 0 0.871124)" d="M198.635 262.857L233.773 262.443C237.105 262.446 242.008 261.801 245.109 262.775C245.795 264.96 248.859 267.504 250.732 268.799L254.405 269.063L254.467 269.196L253.117 269.63L267.702 288.142C270.357 291.442 274.336 295.181 276.123 298.968L250.7 298.957L226.45 298.903C220.949 298.883 215.235 298.513 209.802 299.445C205.339 300.21 200.576 300.084 196.062 300.056C192.799 300.035 189.492 300.187 186.238 299.951C184.393 299.816 182.544 299.679 180.725 299.34C180.176 299.237 178.475 298.802 177.983 298.958C177.627 299.07 177.457 299.486 177.194 299.751L177.008 300.681L164.751 280.475C161.259 274.746 157.311 269.452 154.709 263.222C155.464 262.768 156.915 262.815 157.808 262.76C161.137 262.552 164.531 262.725 167.867 262.751L198.635 262.857ZM198.635 262.857C200.238 262.976 203.679 262.695 205.026 263.21C205.627 263.44 206.998 265 207.62 265.492L215.012 271.045L239.7 288.866C243.074 291.366 247.034 293.803 249.858 296.921C250.419 297.541 250.559 298.157 250.7 298.957L276.123 298.968C274.336 295.181 270.357 291.442 267.702 288.142L253.117 269.63L254.467 269.196L254.405 269.063L250.732 268.799C248.859 267.504 245.795 264.96 245.109 262.775C242.008 261.801 237.105 262.446 233.773 262.443L198.635 262.857Z"/>
	<path fill="#84E3CD" fill-opacity="0.98431373" transform="matrix(0.648436 -0.00113426 0.00124131 0.709634 0 0.871124)" d="M198.635 262.857L233.773 262.443C237.105 262.446 242.008 261.801 245.109 262.775C245.795 264.96 248.859 267.504 250.732 268.799L254.405 269.063L254.467 269.196L253.117 269.63L267.702 288.142C270.357 291.442 274.336 295.181 276.123 298.968L250.7 298.957C250.559 298.157 250.419 297.541 249.858 296.921C247.034 293.803 243.074 291.366 239.7 288.866L215.012 271.045L207.62 265.492C206.998 265 205.627 263.44 205.026 263.21C203.679 262.695 200.238 262.976 198.635 262.857Z"/>
	<defs>
		<linearGradient id="gradient_2" gradientUnits="userSpaceOnUse" x1="460.10501" y1="198.77499" x2="399.27802" y2="195.05299">
			<stop offset="0" stop-color="#00C47D" stop-opacity="0.64705884"/>
			<stop offset="1" stop-color="#00C47D" stop-opacity="0.72941178"/>
		</linearGradient>
	</defs>
	<path fill="url(#gradient_2)" transform="matrix(0.648436 -0.00113426 0.00124131 0.709634 0 0.871124)" d="M454.726 245.599C445.87 245.601 434.868 239.545 428.244 234.02C412.687 221.044 402.43 198.104 400.687 178.146C399.809 168.089 400.518 158.743 402.098 148.814L415.267 151.943C416.287 152.116 420.936 152.788 421.507 153.415L445.435 158.858C450.204 160.015 455.761 162.206 460.621 162.218L461.091 162.779C454.828 187.657 453.939 212.634 461.865 237.23L462.671 239.438L461.525 239.2C459.335 240.832 458.753 241.543 457.992 244.2L457.171 244.954L460.089 245.939L454.726 245.599ZM454.726 245.599L460.089 245.939L457.171 244.954L457.992 244.2C458.753 241.543 459.335 240.832 461.525 239.2L462.671 239.438L461.865 237.23C461.552 237.004 460.781 236.288 460.456 236.21C459.918 236.079 459.923 236.52 459.351 236.092C458.445 235.415 458.039 235.039 456.867 235.207C455.998 235.332 455.18 235.494 454.297 235.521C453.635 236.308 453.459 236.354 453.273 237.355L452.452 239.508L451.63 239.818L451.423 240.638L450.606 240.843C451.289 242.308 451.716 242.396 453.067 243.204L452.86 243.722L452.424 243.722C451.753 243.754 451.229 243.94 450.602 244.156L454.726 245.599ZM415.267 151.943L411.885 152.112L412.099 153.023C412.931 153.346 413.818 153.475 414.309 154.216C414.681 154.777 415.015 155.012 415.561 155.373L416.36 155.967C418.377 157.571 420.98 157.92 423.504 157.543C424.084 157.457 424.592 157.255 425.134 157.045L424.941 156.456L424.894 155.959L426.524 155.421L426.065 155.388C424.076 155.221 422.868 154.901 421.507 153.415C420.936 152.788 416.287 152.116 415.267 151.943Z"/>
	<path fill="#00C47E" fill-opacity="0.58039218" transform="matrix(0.648436 -0.00113426 0.00124131 0.709634 0 0.871124)" d="M415.267 151.943C416.287 152.116 420.936 152.788 421.507 153.415C422.868 154.901 424.076 155.221 426.065 155.388L426.524 155.421L424.894 155.959L424.941 156.456L425.134 157.045C424.592 157.255 424.084 157.457 423.504 157.543C420.98 157.92 418.377 157.571 416.36 155.967L415.561 155.373C415.015 155.012 414.681 154.777 414.309 154.216C413.818 153.475 412.931 153.346 412.099 153.023L411.885 152.112L415.267 151.943Z"/>
	<path fill="#00C47E" fill-opacity="0.47450981" transform="matrix(0.648436 -0.00113426 0.00124131 0.709634 0 0.871124)" d="M454.726 245.599L450.602 244.156C451.229 243.94 451.753 243.754 452.424 243.722L452.86 243.722L453.067 243.204C451.716 242.396 451.289 242.308 450.606 240.843L451.423 240.638L451.63 239.818L452.452 239.508L453.273 237.355C453.459 236.354 453.635 236.308 454.297 235.521C455.18 235.494 455.998 235.332 456.867 235.207C458.039 235.039 458.445 235.415 459.351 236.092C459.923 236.52 459.918 236.079 460.456 236.21C460.781 236.288 461.552 237.004 461.865 237.23L462.671 239.438L461.525 239.2C459.335 240.832 458.753 241.543 457.992 244.2L457.171 244.954L460.089 245.939L454.726 245.599Z"/>
	<path fill="#B7F07E" transform="matrix(0.648436 -0.00113426 0.00124131 0.709634 0 0.871124)" d="M592.915 142.634L697.067 168.501C691.264 182.303 684.735 194.314 674.641 205.424C670.638 209.192 666.705 212.833 662.107 215.887C652.049 222.569 639.378 226.973 627.266 224.391C616.563 222.109 608.643 215.564 602.796 206.5C590.399 187.283 588.287 164.546 592.915 142.634Z"/>
	<path fill="#E1FFF1" transform="matrix(0.648436 -0.00113426 0.00124131 0.709634 0 0.871124)" d="M254.467 269.196C257.757 269.64 261.292 269.345 264.614 269.319L283.519 269.25L363.173 269.176L378.583 268.592L422.019 268.987L433.974 268.57L487.05 268.541L501.064 268.201L560.281 268.023C556.104 276.422 551.109 283.788 545.854 291.522C544.277 293.841 542.441 297.269 540.281 299.039L534.396 308.44L533.818 308.269L532.906 306.405L532.697 305.272C530.004 304.818 527.033 305.055 524.3 305.052L510.329 305.045L459.816 305.05L282.686 305.095L286.186 309.143L284.528 308.392L283.91 308.185C282.085 304.985 279.736 306.833 276.969 305.618C276.138 305.252 275.353 305.089 274.467 304.899C272.406 305.718 270.277 305.616 268.105 305.448L268.308 305.083C269.298 305.035 270.255 304.985 271.233 304.805L269.54 304.698C267.461 304.402 256.24 304.161 254.965 305.008C254.526 305.3 254.66 305.391 254.144 305.314C252.687 305.097 251.48 304.622 249.962 304.805C247.832 305.062 244.228 305.312 242.198 304.691C241.58 304.502 241.113 304.35 240.461 304.438C239.024 304.631 237.824 304.467 236.401 304.529L235.936 304.556C233.129 304.535 230.07 304.571 227.263 304.822C226.772 304.866 226.343 304.915 225.853 304.815C225.271 304.696 224.822 304.52 224.213 304.603C222.988 304.77 221.462 304.802 220.334 305.25C218.373 306.03 214.531 305.539 212.3 305.541L188.863 305.419L181.267 305.318C180.641 304.815 180.832 305.078 180.492 304.419C180.25 303.949 179.989 303.604 179.728 303.158C179.267 302.375 178.981 301.758 178.341 301.093L177.782 301.801L177.008 300.681L177.194 299.751C177.457 299.486 177.627 299.07 177.983 298.958C178.475 298.802 180.176 299.237 180.725 299.34C182.544 299.679 184.393 299.816 186.238 299.951C189.492 300.187 192.799 300.035 196.062 300.056C200.576 300.084 205.339 300.21 209.802 299.445C215.235 298.513 220.949 298.883 226.45 298.903L250.7 298.957L276.123 298.968C274.336 295.181 270.357 291.442 267.702 288.142L253.117 269.63L254.467 269.196ZM276.123 298.968L250.7 298.957L226.45 298.903C220.949 298.883 215.235 298.513 209.802 299.445C205.339 300.21 200.576 300.084 196.062 300.056C192.799 300.035 189.492 300.187 186.238 299.951C184.393 299.816 182.544 299.679 180.725 299.34C180.176 299.237 178.475 298.802 177.983 298.958C177.627 299.07 177.457 299.486 177.194 299.751L177.008 300.681L177.782 301.801L178.341 301.093C178.981 301.758 179.267 302.375 179.728 303.158C179.989 303.604 180.25 303.949 180.492 304.419C180.832 305.078 180.641 304.815 181.267 305.318L188.863 305.419L212.3 305.541C214.531 305.539 218.373 306.03 220.334 305.25C221.462 304.802 222.988 304.77 224.213 304.603C224.822 304.52 225.271 304.696 225.853 304.815C226.343 304.915 226.772 304.866 227.263 304.822C230.07 304.571 233.129 304.535 235.936 304.556L236.401 304.529C237.824 304.467 239.024 304.631 240.461 304.438C241.113 304.35 241.58 304.502 242.198 304.691C244.228 305.312 247.832 305.062 249.962 304.805C251.48 304.622 252.687 305.097 254.144 305.314C254.66 305.391 254.526 305.3 254.965 305.008C256.24 304.161 267.461 304.402 269.54 304.698L271.233 304.805C270.255 304.985 269.298 305.035 268.308 305.083L268.105 305.448C270.277 305.616 272.406 305.718 274.467 304.899C275.353 305.089 276.138 305.252 276.969 305.618C279.736 306.833 282.085 304.985 283.91 308.185L284.528 308.392L286.186 309.143L282.686 305.095L459.816 305.05L510.329 305.045L524.3 305.052C527.033 305.055 530.004 304.818 532.697 305.272L532.906 306.405L533.818 308.269L534.396 308.44L540.281 299.039C539.295 298.412 537.874 298.551 536.733 298.541L481.35 298.994L326.334 299.004L293.315 299.308C287.597 299.312 281.821 299.493 276.123 298.968Z"/>
	<path fill="#4CCBB6" fill-opacity="0.97647059" transform="matrix(0.648436 -0.00113426 0.00124131 0.709634 0 0.871124)" d="M276.123 298.968C281.821 299.493 287.597 299.312 293.315 299.308L326.334 299.004L481.35 298.994L536.733 298.541C537.874 298.551 539.295 298.412 540.281 299.039L534.396 308.44L533.818 308.269L532.906 306.405L532.697 305.272C530.004 304.818 527.033 305.055 524.3 305.052L510.329 305.045L459.816 305.05L282.686 305.095L286.186 309.143L284.528 308.392L283.91 308.185C282.085 304.985 279.736 306.833 276.969 305.618C276.138 305.252 275.353 305.089 274.467 304.899C272.406 305.718 270.277 305.616 268.105 305.448L268.308 305.083C269.298 305.035 270.255 304.985 271.233 304.805L269.54 304.698C267.461 304.402 256.24 304.161 254.965 305.008C254.526 305.3 254.66 305.391 254.144 305.314C252.687 305.097 251.48 304.622 249.962 304.805C247.832 305.062 244.228 305.312 242.198 304.691C241.58 304.502 241.113 304.35 240.461 304.438C239.024 304.631 237.824 304.467 236.401 304.529L235.936 304.556C233.129 304.535 230.07 304.571 227.263 304.822C226.772 304.866 226.343 304.915 225.853 304.815C225.271 304.696 224.822 304.52 224.213 304.603C222.988 304.77 221.462 304.802 220.334 305.25C218.373 306.03 214.531 305.539 212.3 305.541L188.863 305.419L181.267 305.318C180.641 304.815 180.832 305.078 180.492 304.419C180.25 303.949 179.989 303.604 179.728 303.158C179.267 302.375 178.981 301.758 178.341 301.093L177.782 301.801L177.008 300.681L177.194 299.751C177.457 299.486 177.627 299.07 177.983 298.958C178.475 298.802 180.176 299.237 180.725 299.34C182.544 299.679 184.393 299.816 186.238 299.951C189.492 300.187 192.799 300.035 196.062 300.056C200.576 300.084 205.339 300.21 209.802 299.445C215.235 298.513 220.949 298.883 226.45 298.903L250.7 298.957L276.123 298.968Z"/>
	<path fill="white" transform="matrix(0.648436 -0.00113426 0.00124131 0.709634 0 0.871124)" d="M286.186 309.143L282.686 305.095L459.816 305.05L510.329 305.045L524.3 305.052C527.033 305.055 530.004 304.818 532.697 305.272L532.906 306.405C530.822 308.827 529.137 311.388 527.437 314.089L447.729 439.399L445.158 438.266C437.296 434.51 429.423 431.296 421.79 427.012C383.595 405.577 350.155 374.831 319.458 343.865L299.382 323.234C295.186 318.716 291.027 313.401 286.419 309.344L286.186 309.143Z"/>
	<defs>
		<linearGradient id="gradient_3" gradientUnits="userSpaceOnUse" x1="321.59201" y1="310.979" x2="296.354" y2="523.92999">
			<stop offset="0" stop-color="#4ECDBB" stop-opacity="0.90196079"/>
			<stop offset="1" stop-color="#C6F6DA"/>
		</linearGradient>
	</defs>
	<path fill="url(#gradient_3)" transform="matrix(0.648436 -0.00113426 0.00124131 0.709634 0 0.871124)" d="M177.782 301.801L178.341 301.093C178.981 301.758 179.267 302.375 179.728 303.158C179.989 303.604 180.25 303.949 180.492 304.419C180.832 305.078 180.641 304.815 181.267 305.318L188.863 305.419L212.3 305.541C214.531 305.539 218.373 306.03 220.334 305.25C221.462 304.802 222.988 304.77 224.213 304.603C224.822 304.52 225.271 304.696 225.853 304.815C226.343 304.915 226.772 304.866 227.263 304.822C230.07 304.571 233.129 304.535 235.936 304.556L236.401 304.529C237.824 304.467 239.024 304.631 240.461 304.438C241.113 304.35 241.58 304.502 242.198 304.691C244.228 305.312 247.832 305.062 249.962 304.805C251.48 304.622 252.687 305.097 254.144 305.314C254.66 305.391 254.526 305.3 254.965 305.008C256.24 304.161 267.461 304.402 269.54 304.698L271.233 304.805C270.255 304.985 269.298 305.035 268.308 305.083L268.105 305.448C270.277 305.616 272.406 305.718 274.467 304.899C275.353 305.089 276.138 305.252 276.969 305.618C279.736 306.833 282.085 304.985 283.91 308.185L284.528 308.392L286.186 309.143L286.419 309.344C291.027 313.401 295.186 318.716 299.382 323.234L319.458 343.865C350.155 374.831 383.595 405.577 421.79 427.012C429.423 431.296 437.296 434.51 445.158 438.266L444.753 438.212C443.834 438.083 443.391 438.074 442.596 437.546C441.624 437.543 441.379 437.691 440.543 437.135C439.792 437.273 439.339 437.544 438.7 437.952L438.289 440.006L439.303 440.714L439.93 440.46L439.406 439.484L440.04 438.27C441.738 438.239 442.891 438.412 444.449 439.053L444.858 439.184C445.45 439.864 445.405 439.896 446.291 440.006C446.12 442.231 444.566 442.06 444.033 443.907L443.216 444.523L443.212 445.139C443.039 445.927 442.24 446.928 441.775 447.603L441.98 448.214C442.798 447.43 443.343 446.975 443.825 445.958L444.439 445.139L444.825 444.628C445.325 444.007 445.867 443.568 446.479 443.065L425.993 474.724C414.504 492.48 403.411 512.196 384.509 523.11C370.63 531.124 353.317 533.187 337.85 529.118C326.261 526.069 314.867 519.684 306.685 510.846C295.904 499.197 287.97 485.003 279.804 471.473L258.35 436.066L177.782 301.801Z"/>
</svg>
