<svg xmlns="http://www.w3.org/2000/svg" xmlns:xlink="http://www.w3.org/1999/xlink" width="1920" zoomAndPan="magnify" viewBox="0 0 1440 809.999993" height="1080" preserveAspectRatio="xMidYMid meet" version="1.0"><defs><g/><clipPath id="dc5d565348"><path d="M 516 102 L 951 102 L 951 714.75 L 516 714.75 Z M 516 102 " clip-rule="nonzero"/></clipPath></defs><rect x="-144" width="1728" fill="#ffffff" y="-80.999999" height="971.999992" fill-opacity="1"/><rect x="-144" width="1728" fill="#ffffff" y="-80.999999" height="971.999992" fill-opacity="1"/><path fill="#cdf8ba" d="M 705.976562 421.746094 C 687.457031 424.214844 694.425781 451.386719 695.476562 462.984375 C 697.941406 453.726562 695.152344 436.488281 703.078125 429.949219 C 709.226562 424.878906 720.277344 431.484375 717.925781 439.996094 C 721.101562 428.492188 713.625 420.730469 705.976562 421.746094 " fill-opacity="1" fill-rule="nonzero"/><path fill="#cdf8ba" d="M 707.6875 654.476562 C 653.671875 647.585938 722.394531 644.902344 698.660156 492.121094 C 699.5 560.335938 703.410156 584.589844 682.453125 641.59375 C 680.355469 647.289062 676.527344 652.851562 694.058594 655.785156 C 693.855469 655.761719 701.632812 657.21875 707.460938 657.464844 C 716.347656 657.660156 727.210938 656.324219 732.144531 648.917969 C 729.144531 652.273438 724.863281 653.824219 720.628906 654.46875 C 716.351562 655.113281 711.980469 655.003906 707.6875 654.476562 " fill-opacity="1" fill-rule="nonzero"/><path fill="#cdf8ba" d="M 652.992188 655.433594 C 652.578125 654.882812 652.207031 654.304688 651.933594 653.675781 C 651.664062 653.089844 651.484375 652.464844 651.378906 651.785156 C 650.984375 649.128906 651.945312 645.707031 655.117188 644.441406 C 649.882812 644.195312 644.238281 653.28125 652.851562 661.933594 C 657.308594 666.480469 664.359375 670.167969 670.578125 672.308594 C 676.988281 674.566406 683.683594 675.761719 690.367188 676.105469 C 697.042969 676.453125 703.785156 675.972656 710.203125 674.183594 C 703.601562 673.4375 697.226562 672.582031 690.929688 671.386719 C 680.429688 669.25 659.332031 663.78125 652.992188 655.433594 " fill-opacity="1" fill-rule="nonzero"/><path fill="#cdf8ba" d="M 718.992188 624.503906 C 720.539062 632.253906 722.421875 639.9375 724.863281 647.472656 C 724.070312 639.589844 723.070312 631.792969 722.113281 624 C 716.894531 580.234375 715.855469 566.585938 714.242188 553.726562 C 713.550781 561.613281 713.699219 598.503906 718.992188 624.503906 " fill-opacity="1" fill-rule="nonzero"/><path fill="#cdf8ba" d="M 696.425781 411.136719 C 692.945312 411.039062 689.449219 410.863281 685.820312 410.835938 C 689.050781 412.5 692.523438 413.566406 696.066406 414.273438 C 699.609375 414.972656 703.234375 415.3125 706.851562 415.261719 C 710.46875 415.226562 714.078125 414.785156 717.601562 413.988281 C 721.125 413.195312 724.566406 412.027344 727.753906 410.273438 C 724.125 410.394531 720.636719 410.660156 717.160156 410.851562 C 713.6875 411.039062 710.246094 411.144531 706.796875 411.195312 C 703.347656 411.246094 699.902344 411.230469 696.425781 411.136719 " fill-opacity="1" fill-rule="nonzero"/><path fill="#cdf8ba" d="M 662.445312 285.324219 C 658.488281 277.949219 656.351562 270.054688 654.941406 261.933594 C 653.113281 269.457031 654.574219 278.210938 657.898438 285.324219 C 636.371094 283.601562 621.140625 260.34375 599.792969 257.566406 C 622.351562 265.128906 659.324219 317.710938 688.878906 268.226562 C 683.078125 274.625 673.296875 284.4375 662.445312 285.324219 " fill-opacity="1" fill-rule="nonzero"/><path fill="#cdf8ba" d="M 764.714844 305.414062 C 766.539062 301.71875 767.957031 297.839844 768.835938 293.839844 C 769.96875 288.703125 770.335938 283.335938 769.417969 278.21875 C 768.652344 283.355469 767.4375 288.234375 765.808594 292.960938 C 763.785156 298.621094 761.105469 304.054688 759.238281 307.039062 C 745.34375 309.816406 723.300781 301.039062 719.554688 298.769531 C 715.824219 296.597656 713.425781 292.839844 712.308594 288.476562 C 711.113281 284.128906 710.765625 279.421875 709.878906 274.851562 C 709.878906 282.289062 709.371094 289.945312 712.695312 295.847656 C 718.367188 306.160156 744.890625 312.792969 756.515625 311.386719 C 757.371094 311.285156 758.21875 311.160156 759.074219 311 C 760.085938 310.792969 761.082031 310.53125 762.054688 310.203125 C 775.0625 306.316406 783.101562 294.332031 789.566406 282.730469 C 783.664062 289.898438 774.832031 301.417969 764.714844 305.414062 " fill-opacity="1" fill-rule="nonzero"/><path fill="#cdf8ba" d="M 801.574219 205.574219 C 801.917969 209.496094 801.683594 213.539062 801.355469 217.558594 C 801.132812 219.855469 800.847656 222.171875 800.480469 224.460938 C 798.554688 224.871094 796.542969 225.339844 794.65625 225.949219 C 792.667969 226.574219 790.742188 227.265625 788.8125 227.960938 C 784.960938 229.296875 781.265625 230.78125 777.492188 231.105469 C 777.175781 231.140625 776.855469 231.140625 776.53125 231.160156 C 776.800781 230.222656 776.925781 229.210938 776.863281 228.230469 C 776.449219 220.820312 778.179688 218.449219 783.589844 214.378906 C 789.34375 210.050781 794.5 203.667969 799.117188 198.171875 C 792.757812 201.859375 786.792969 206.011719 780.960938 210.324219 C 778.007812 212.476562 775.316406 214.636719 772.660156 215.257812 C 770.144531 215.902344 767.183594 215.289062 764.054688 214.230469 C 763.769531 214.082031 763.492188 213.917969 763.207031 213.773438 C 759.332031 211.878906 755.273438 210.472656 751.148438 209.480469 C 749.941406 209.195312 748.71875 208.953125 747.488281 208.726562 C 746.011719 208.3125 744.515625 207.914062 743.003906 207.578125 C 739.835938 206.839844 729.132812 207.292969 727.460938 204.671875 C 725.652344 201.839844 730.25 199.644531 732.03125 198.144531 C 735.539062 195.175781 739.066406 192.226562 742.195312 188.84375 C 742.625 188.394531 743.023438 187.953125 743.410156 187.503906 C 743.941406 186.914062 744.464844 186.300781 744.992188 185.71875 C 747.0625 183.402344 749.152344 181.1875 751.648438 179.5 C 759.515625 173.953125 764.632812 178.210938 777.984375 183.789062 C 781.390625 185.332031 784.796875 186.75 788.101562 188.394531 C 788.433594 188.539062 788.753906 188.699219 789.078125 188.863281 C 789.851562 189.25 790.640625 189.65625 791.414062 190.058594 C 792.402344 190.570312 793.402344 191.117188 794.378906 191.683594 C 798.234375 193.898438 800.785156 196.167969 801.574219 205.574219 Z M 765.949219 230.25 L 753.964844 227.816406 L 741.933594 225.601562 C 730.808594 223.496094 730.808594 223.394531 726.328125 222.289062 C 724.511719 212.96875 721.421875 209.691406 722.828125 206.820312 C 729.371094 208.074219 735.574219 209.894531 741.675781 212.125 C 748.367188 214.589844 754.859375 217.394531 761.851562 219.917969 C 761.863281 219.917969 761.878906 219.921875 761.882812 219.921875 C 765.019531 221.484375 768.222656 223.027344 770.660156 224.882812 C 772.078125 225.984375 773.226562 227.214844 773.957031 228.851562 C 774.304688 229.597656 774.542969 230.414062 774.636719 231.261719 C 771.785156 231.277344 768.886719 230.859375 765.949219 230.25 Z M 697.621094 212.816406 C 698.050781 212.777344 698.503906 212.816406 698.980469 212.941406 C 702.988281 213.984375 706.261719 223.4375 707.632812 226.90625 C 700.527344 230.875 682.277344 233.144531 677.683594 231.621094 C 682.542969 228.898438 686.734375 225.195312 690.21875 220.855469 C 692.0625 218.550781 694.046875 213.125 697.621094 212.816406 Z M 806.875 189.527344 L 809.160156 190.140625 C 805.433594 189.8125 801.714844 189.496094 797.988281 189.1875 C 797.488281 188.984375 795.511719 187.53125 790.722656 185.390625 C 774.921875 178.441406 759.515625 173.164062 750.652344 177.796875 C 746.941406 179.707031 743.960938 182.566406 741.117188 185.332031 C 741.042969 185.414062 740.976562 185.472656 740.894531 185.535156 C 714.304688 184.367188 689.171875 184.316406 671.046875 184.945312 C 649.027344 172.695312 631.402344 169.46875 614.058594 189.128906 C 588.953125 191.832031 559.328125 195.316406 537.632812 208.339844 C 547.941406 203.199219 558.996094 199.929688 570.214844 197.835938 C 582.585938 195.464844 597.125 194.085938 610.996094 192.824219 C 605.777344 199.605469 601.617188 208.320312 598.332031 216.195312 C 619.664062 185.039062 633.039062 170.601562 667.007812 189.453125 C 690.816406 202.585938 692.199219 203.171875 691.832031 207.734375 C 689.015625 210.960938 686.988281 218.070312 675.128906 230.597656 C 673.71875 229.902344 672.15625 229.195312 670.78125 228.796875 C 664.117188 226.867188 647.761719 232.8125 631.761719 226.460938 C 620.289062 221.675781 610.597656 223.285156 605.160156 222.6875 C 594.714844 222.300781 591.144531 222.6875 594.390625 217.355469 C 595.867188 214.894531 598.066406 212.75 599.25 210.003906 C 596.722656 214.652344 582.96875 222.96875 600.59375 224.789062 L 604.976562 225.324219 C 607.9375 225.652344 610.886719 225.792969 613.785156 226.058594 C 616.691406 226.316406 619.535156 226.683594 622.296875 227.273438 C 631.160156 229.117188 634.234375 234.542969 657.289062 233.28125 C 665.386719 232.601562 666.585938 230.78125 673.109375 233.597656 C 672.910156 233.761719 672.726562 233.933594 672.523438 234.089844 C 672.789062 233.960938 673.039062 233.816406 673.296875 233.679688 C 682.609375 237.710938 701.449219 232.519531 708.050781 227.980469 C 708.148438 228.238281 708.257812 228.484375 708.359375 228.75 C 708.398438 228.410156 708.414062 228.0625 708.445312 227.722656 C 712.226562 225.019531 712.355469 222.003906 710.328125 219.652344 C 712.007812 222.253906 711.148438 224.585938 708.535156 226.363281 C 708.820312 217.816406 704.394531 209.027344 701.644531 206.546875 C 698.035156 200.847656 690.367188 193.632812 680.382812 188.78125 C 689.363281 188.5625 698.339844 188.421875 707.339844 188.476562 C 717.34375 188.433594 727.359375 188.578125 737.382812 188.761719 C 732.816406 192.679688 727.789062 196.273438 723.105469 200.519531 C 721.707031 201.839844 719.855469 203.382812 718.925781 205.882812 C 717.589844 209.761719 719.121094 209.9375 722.679688 221.335938 C 721.21875 220.96875 719.738281 220.601562 718.253906 220.285156 C 717.960938 219.5625 717.554688 218.964844 717.152344 218.359375 C 717.046875 218.332031 716.929688 218.292969 716.820312 218.265625 C 717.921875 220.929688 717.621094 220.554688 717.710938 220.828125 C 723.953125 223.054688 725.25 224.671875 741.21875 228.828125 C 749.234375 230.820312 757.128906 232.464844 765.183594 234.230469 C 769.242188 235.003906 773.617188 235.527344 777.960938 234.925781 C 780.132812 234.617188 782.265625 234.046875 784.253906 233.320312 C 786.234375 232.605469 788.148438 231.820312 790.015625 230.984375 C 793.402344 229.480469 796.644531 228.054688 800.09375 226.941406 C 800.480469 226.777344 800.867188 226.65625 801.273438 226.535156 C 801.761719 226.371094 802.222656 226.226562 802.714844 226.042969 C 804.191406 225.523438 805.671875 224.847656 806.996094 223.855469 C 807.015625 223.835938 807.035156 223.835938 807.058594 223.816406 C 807.261719 223.671875 807.464844 223.511719 807.640625 223.347656 C 809.097656 222.03125 809.976562 220.078125 810.117188 218.226562 L 810.136719 218.082031 L 810.054688 218.007812 C 810.015625 217.96875 809.949219 217.941406 809.898438 217.90625 C 809.75 217.996094 809.601562 218.082031 809.453125 218.171875 C 809.480469 218.199219 809.519531 218.21875 809.546875 218.253906 C 809.046875 220.160156 807.863281 221.703125 806.242188 222.59375 C 805.324219 223.125 804.335938 223.488281 803.304688 223.777344 C 803.773438 221.867188 804.152344 219.917969 804.476562 217.96875 C 806.03125 209.210938 806.519531 195.628906 799.511719 190.242188 C 800.316406 190.269531 811.394531 190.546875 810.6875 190.527344 L 810.726562 190.261719 L 810.6875 190.261719 L 806.875 189.527344 " fill-opacity="1" fill-rule="nonzero"/><g clip-path="url(#dc5d565348)"><path fill="#cdf8ba" d="M 923.917969 253.300781 C 923.433594 253.75 922.972656 254.210938 922.472656 254.644531 C 922.347656 254.753906 922.226562 254.847656 922.105469 254.957031 C 920.984375 255.902344 919.816406 256.832031 918.570312 257.730469 C 915.128906 260.214844 908.183594 264.441406 901.003906 264.375 C 901.242188 264.175781 901.40625 263.917969 901.480469 263.613281 C 902.160156 263.484375 902.816406 263.3125 903.476562 263.109375 C 914.328125 261.417969 923.597656 253.519531 926.054688 246.722656 C 930.5625 234.285156 929.894531 238.945312 934.671875 233.386719 C 943.320312 223.3125 945.457031 209.386719 942.574219 201.132812 C 945.417969 194.929688 949.449219 161.105469 934.898438 155.398438 C 937.007812 143.761719 923.875 116.558594 897.476562 116.757812 C 880.09375 109.554688 852.839844 117.855469 845.796875 135.703125 C 823.121094 147.722656 825.457031 195.285156 834.710938 201.925781 C 833.253906 207.886719 833.3125 214.128906 834.734375 220.050781 C 834.128906 220.160156 833.523438 220.269531 832.921875 220.363281 C 797.792969 136.648438 872.875 81.050781 926.570312 126.449219 C 956.234375 157.808594 953.820312 224.578125 923.917969 253.300781 Z M 892.554688 261.148438 C 891.355469 252.8125 891.496094 243.722656 890.214844 235.195312 C 891.054688 232.253906 891.796875 229.285156 892.414062 226.289062 L 898.316406 261.960938 C 896.371094 262.023438 894.40625 261.75 892.554688 261.148438 Z M 931.644531 156.675781 C 918.398438 167.558594 905.6875 179.316406 893.789062 191.675781 C 895.960938 166.503906 896.519531 141.832031 898.433594 119.828125 C 913.5 119.976562 920.71875 130.585938 924.859375 136.34375 C 933.527344 148.367188 931.550781 156.144531 931.644531 156.675781 Z M 940.339844 198.539062 C 927.363281 199.609375 910.425781 197.492188 896.59375 198.414062 C 896.503906 197.707031 896.390625 197.523438 896.0625 196.851562 C 895.839844 195.453125 895.515625 194.910156 895.285156 194.507812 C 907.492188 181.757812 920.597656 169.636719 934.253906 158.460938 C 944.332031 163.246094 943.136719 188.421875 940.339844 198.539062 Z M 901.140625 260.367188 C 893.628906 215.371094 894.277344 218.027344 893.878906 217.457031 C 894.378906 213.539062 894.679688 209.582031 894.761719 205.582031 C 904.132812 215.617188 914.304688 229.082031 924.019531 239.578125 C 925.476562 250.15625 912.46875 258.667969 901.140625 260.367188 Z M 895.488281 202.558594 C 895.773438 202.261719 896.003906 201.898438 896.179688 201.484375 C 909.652344 200.488281 925.703125 202.601562 939.511719 201.640625 C 942.023438 208.101562 940.359375 216.539062 937.957031 222.300781 C 934.414062 230.78125 930.777344 232.722656 925.753906 236.96875 C 914.597656 224.808594 897.625 202.613281 895.488281 202.558594 Z M 848.789062 136.382812 C 853.972656 122.320312 878.867188 113.25 895.425781 119.230469 C 893.503906 140.933594 892.886719 167.027344 890.761719 191.554688 C 890.621094 191.53125 890.480469 191.492188 890.335938 191.484375 L 890.574219 191.308594 C 877.867188 174.625 861.695312 153.367188 848.789062 136.382812 Z M 846.699219 138.671875 C 859.28125 155.234375 874.875 175.671875 887.613281 192.445312 C 887.117188 192.84375 886.757812 193.089844 886.664062 193.789062 C 878.058594 195.417969 868.773438 196.5 859.699219 197.519531 C 852.324219 198.339844 844.734375 199.210938 837.691406 200.363281 C 825.457031 186.480469 832.847656 145.480469 846.699219 138.671875 Z M 837.496094 203.484375 C 844.648438 202.28125 852.453125 201.390625 860.046875 200.542969 C 868.71875 199.570312 877.617188 198.566406 885.953125 197.050781 C 886.101562 197.925781 886.421875 198.882812 886.785156 199.847656 C 877.136719 209.929688 866.203125 213.210938 847.675781 217.429688 C 844.371094 218.21875 841.050781 218.910156 837.710938 219.53125 C 836.429688 214.285156 836.328125 208.773438 837.496094 203.484375 Z M 803.488281 235.976562 C 802.042969 236.179688 800.601562 236.363281 799.144531 236.527344 C 798.777344 236.589844 798.410156 236.628906 798.050781 236.667969 C 767.671875 240.472656 737.125 241.902344 706.269531 241.988281 C 661.78125 241.90625 604.238281 238.421875 561.453125 226.738281 C 553.722656 224.5625 546.035156 222.125 538.933594 218.714844 C 483.609375 192.292969 596.582031 168.066406 706.269531 167.863281 C 740.765625 167.925781 777.269531 169.386719 811.257812 174.460938 C 810.917969 187.945312 813.199219 203.769531 820.832031 222.335938 C 817.472656 223.203125 814.183594 224.339844 811.011719 225.757812 C 815.1875 225.597656 819.347656 225.203125 823.480469 224.570312 C 823.472656 224.585938 823.472656 224.605469 823.472656 224.617188 C 824.574219 224.585938 825.664062 224.570312 826.765625 224.507812 C 850.65625 223.265625 882.972656 211.894531 887.980469 203.007812 C 893.886719 221.464844 822.5625 233.394531 803.488281 235.976562 Z M 552.394531 232.207031 C 554.707031 232.941406 557.035156 233.648438 559.363281 234.3125 C 603.152344 246.5 661.042969 250.296875 706.269531 250.628906 C 739.089844 250.601562 771.96875 248.625 804.5 243.585938 C 824.695312 240.460938 852.5 234.792969 871.285156 226.785156 C 870.152344 230.183594 868.902344 233.539062 867.492188 236.832031 L 840.71875 242.042969 C 840.515625 242.078125 840.570312 242.042969 823.472656 245.15625 C 823.261719 245.195312 805.042969 248.207031 806.195312 248.015625 L 797.542969 249.367188 C 758.9375 254.871094 680.167969 258.152344 621.230469 251.019531 C 607.269531 249.488281 593.417969 247.097656 579.683594 244.183594 C 575.121094 243.246094 570.566406 242.214844 566.042969 241.09375 C 565.585938 240.96875 565.132812 240.867188 564.671875 240.746094 C 564.386719 240.671875 564.09375 240.589844 563.808594 240.515625 C 560.722656 239.691406 557.652344 238.808594 554.59375 237.90625 C 553.824219 236.019531 553.085938 234.121094 552.394531 232.207031 Z M 873.734375 257.648438 C 846.34375 309.292969 786.175781 332.195312 728.582031 335.917969 C 731.039062 340.667969 756.386719 338.113281 784.355469 330.433594 C 784.335938 330.476562 784.316406 330.53125 784.289062 330.578125 C 783.175781 333.050781 782.042969 335.511719 780.828125 337.929688 C 778.757812 342.207031 776.542969 346.414062 774.105469 350.457031 C 771.753906 354.539062 769.121094 358.4375 766.277344 362.195312 C 763.492188 365.992188 760.390625 369.503906 757.128906 372.914062 C 750.550781 379.640625 742.984375 385.449219 734.304688 389.890625 C 743.878906 387.828125 752.804688 382.828125 760.351562 376.394531 C 764.183594 373.199219 767.597656 369.546875 770.800781 365.75 C 773.945312 361.910156 776.769531 357.785156 779.339844 353.546875 C 781.816406 349.261719 784.070312 344.851562 786.058594 340.367188 C 787.640625 336.589844 789.160156 332.8125 790.4375 328.945312 C 790.476562 328.851562 790.503906 328.757812 790.539062 328.65625 C 793.957031 327.636719 797.386719 326.550781 800.804688 325.386719 C 797.597656 330.773438 794.683594 336.230469 791.839844 341.554688 C 775.714844 371.765625 761.722656 397.550781 705.140625 398.90625 C 648.566406 397.550781 634.566406 371.765625 618.449219 341.554688 C 615.707031 336.421875 612.890625 331.167969 609.816406 325.964844 C 613.472656 327.289062 617.117188 328.5 620.722656 329.566406 C 632.863281 357.066406 657.234375 385.367188 685.207031 388.738281 C 659.425781 378.34375 642.011719 356.957031 629.640625 331.984375 C 654.214844 338.050781 675.550781 338.464844 683.105469 336.761719 C 646.308594 334.417969 604.515625 321.609375 574.90625 299.359375 C 549.679688 280.203125 532.214844 253.027344 525.945312 219.964844 C 529.0625 222.292969 532.320312 224.089844 535.601562 225.683594 C 538.589844 227.136719 541.617188 228.367188 544.65625 229.515625 C 545.214844 231.222656 545.914062 233.203125 546.78125 235.445312 C 541.699219 233.804688 536.640625 232.070312 531.621094 230.140625 C 536.90625 233.253906 542.390625 236.011719 548.003906 238.496094 C 575.007812 303.660156 625.371094 312.667969 629.164062 315.570312 C 654.609375 324.503906 678.246094 331.855469 709.449219 326.601562 C 664.503906 325.664062 636.398438 311.71875 622.4375 305.882812 L 613.574219 301.324219 C 595.617188 289.203125 575.230469 284.410156 556.355469 242.207031 C 556.316406 242.105469 556.277344 242.007812 556.234375 241.90625 C 562.070312 244.171875 568.015625 246.179688 574.015625 247.960938 C 588.761719 252.375 603.882812 255.367188 619.085938 257.566406 C 654.558594 262.34375 708.929688 264.332031 768.957031 258.367188 C 790.722656 256.203125 814.074219 254.355469 841.777344 246.675781 C 848.359375 244.910156 860.277344 241.378906 866.664062 238.804688 C 863.8125 245.3125 860.5625 251.65625 856.75 257.640625 C 841.5 282.765625 818.222656 302.839844 790.484375 312.878906 C 820.296875 307.535156 845.597656 286.8125 861.925781 260.847656 C 871.402344 245.472656 875.609375 231.675781 877.535156 223.878906 C 880.929688 222.144531 884.277344 220.195312 887.371094 217.585938 C 887.371094 217.585938 887.378906 217.585938 887.378906 217.585938 C 884.960938 232.015625 880.222656 245.488281 873.734375 257.648438 Z M 731.675781 632.90625 C 731.773438 633.152344 731.878906 633.394531 731.984375 633.640625 C 732.246094 634.25 732.511719 634.84375 732.789062 635.425781 C 733 635.886719 733.210938 636.351562 733.421875 636.792969 C 733.585938 637.125 733.753906 637.4375 733.917969 637.761719 C 734.222656 638.367188 734.527344 638.960938 734.839844 639.53125 C 734.90625 639.644531 734.976562 639.761719 735.042969 639.875 C 741.871094 652.042969 745.773438 649.203125 744.4375 652.90625 C 743.90625 653.210938 743.289062 653.667969 742.488281 654.460938 C 740.683594 656.277344 720.703125 667.28125 691.234375 660.421875 C 687.3125 659.511719 677.503906 656.941406 672.292969 653.523438 C 670.269531 652.207031 669.925781 649.277344 671.585938 647.527344 C 680.683594 637.96875 685.554688 618.824219 688.050781 606.546875 C 688.152344 606.066406 688.257812 605.597656 688.359375 605.101562 C 698.925781 551.578125 698.410156 442.433594 678.28125 402.472656 C 684.875 403.894531 692.246094 404.824219 700.472656 405.226562 L 700.472656 405.46875 C 702.066406 405.46875 703.605469 405.441406 705.140625 405.402344 C 706.683594 405.441406 708.222656 405.46875 709.816406 405.46875 L 709.816406 405.226562 C 718.925781 404.777344 726.953125 403.671875 734.085938 401.992188 C 713.144531 442.554688 709.558594 580.371094 731.675781 632.90625 Z M 811.542969 657.4375 C 819.496094 662.914062 818.609375 667.566406 818.695312 667.769531 C 818.296875 675.421875 805.402344 681.441406 798.289062 684.273438 C 772.226562 694.429688 734.65625 697.511719 706.8125 697.574219 C 583.082031 697.636719 549.304688 650.332031 670.78125 638.449219 C 668.113281 642.796875 646.375 656.234375 689.851562 666.351562 C 717.132812 672.710938 746.832031 664.488281 750.382812 654.359375 C 751.738281 650.472656 749.609375 645.964844 746.195312 644.542969 C 744.367188 642.972656 742.863281 640.964844 741.566406 638.917969 C 761.46875 640.753906 795.160156 645.863281 811.542969 657.4375 Z M 818.695312 685.378906 C 807.390625 698.117188 765.238281 709.761719 706.734375 709.761719 C 644.117188 709.761719 601.265625 696.535156 593.160156 683.207031 L 593.160156 678.28125 C 612.386719 699.714844 677.675781 704.714844 706.8125 705.019531 C 737.195312 704.667969 798.144531 699.210938 818.695312 679.671875 Z M 913.152344 112.78125 C 865.917969 89.105469 794.949219 132.695312 828.773438 221.003906 L 825.449219 221.300781 C 825.429688 221.300781 825.40625 221.308594 825.386719 221.308594 C 790.800781 140.355469 857.15625 83.332031 913.152344 112.78125 Z M 950.253906 176.042969 C 949.332031 165.332031 945.816406 154.175781 941.601562 144.257812 C 934.855469 128.394531 924.234375 115.390625 908.464844 108.128906 C 894.304688 101.613281 878.011719 100.503906 863.03125 104.691406 C 847.300781 109.09375 833.585938 119.203125 824.445312 132.722656 C 821.003906 137.816406 818.207031 143.347656 816.070312 149.113281 C 815.453125 150.765625 810.363281 168.753906 811.257812 168.875 C 776.679688 163.871094 741.898438 161.972656 706.269531 161.804688 C 625.941406 161.558594 499.171875 174.628906 518.398438 211.71875 C 521.1875 245.949219 538.753906 281.277344 570.5 305.230469 C 580.097656 312.390625 590.582031 318.078125 601.191406 322.566406 L 600.753906 322.851562 C 605.324219 329.882812 609.265625 337.277344 613.078125 344.421875 C 625.636719 367.960938 637.675781 390.515625 669.945312 400.335938 C 689.667969 427.847656 695.0625 541.097656 682.214844 604.699219 C 680.34375 613.953125 677.609375 624.550781 673.617188 633.097656 C 646.027344 635.242188 583.355469 645.957031 587.753906 671.34375 C 587.753906 671.34375 588.492188 683.089844 589.101562 684.292969 L 589.921875 685.726562 C 600.519531 702.222656 647.527344 714.835938 706.097656 714.835938 C 757.398438 714.835938 810.726562 703.941406 823.113281 686.40625 C 825.664062 681.753906 825.367188 685.53125 823.867188 662.710938 C 815.742188 641.828125 760.722656 634.753906 738.417969 633.054688 C 734.636719 624.863281 731.359375 613.375 728.828125 599.136719 C 724.136719 572.75 722.691406 542.804688 722.910156 516.191406 C 723.296875 477.835938 727.433594 440.601562 734.460938 417.671875 C 734.546875 417.394531 734.636719 417.113281 734.71875 416.84375 C 734.878906 416.332031 735.035156 415.832031 735.199219 415.335938 C 736.835938 410.382812 739.222656 404.363281 742.285156 400.15625 L 741.851562 399.839844 C 772.972656 389.785156 784.851562 367.589844 797.210938 344.421875 C 801.023438 337.277344 804.964844 329.882812 809.535156 322.851562 L 808.949219 322.472656 C 811.664062 321.445312 814.34375 320.386719 816.980469 319.285156 C 846.167969 307.003906 877.902344 276.570312 887.933594 242.390625 C 888.144531 244.503906 888.125 254.257812 889.074219 261.601562 L 888.984375 261.699219 C 889.019531 261.730469 889.058594 261.75 889.09375 261.785156 C 889.109375 261.894531 889.121094 262.011719 889.132812 262.117188 C 889.1875 262.140625 889.242188 262.160156 889.296875 262.1875 C 889.414062 262.199219 889.527344 262.226562 889.644531 262.246094 C 893.296875 265.304688 897.265625 266.460938 901.132812 266.460938 C 908.824219 266.460938 916.117188 262.011719 919.761719 259.375 C 927.175781 254.015625 932.40625 247.574219 936.59375 240.835938 C 937.640625 239.265625 938.648438 237.65625 939.566406 235.996094 C 940.742188 233.882812 941.800781 231.722656 942.769531 229.535156 C 942.988281 229.109375 943.199219 228.671875 943.40625 228.246094 L 943.339844 228.210938 C 950.25 211.859375 951.769531 193.695312 950.253906 176.042969 " fill-opacity="1" fill-rule="nonzero"/></g><path fill="#cdf8ba" d="M 884.289062 126.234375 C 879.46875 123.945312 884.289062 142.476562 885.308594 147.046875 C 885.308594 147.046875 887.363281 127.6875 884.289062 126.234375 " fill-opacity="1" fill-rule="nonzero"/><path fill="#cdf8ba" d="M 876.402344 150.71875 C 871.15625 150.242188 881.199219 165.011719 883.515625 168.707031 C 883.515625 168.707031 879.75 151.015625 876.402344 150.71875 " fill-opacity="1" fill-rule="nonzero"/><path fill="#cdf8ba" d="M 861.996094 171.117188 C 861.996094 171.117188 849.046875 156.601562 845.902344 157.898438 C 840.976562 159.941406 857.929688 168.800781 861.996094 171.117188 " fill-opacity="1" fill-rule="nonzero"/><path fill="#cdf8ba" d="M 907.152344 160.519531 C 907.152344 160.519531 918.40625 144.644531 916.429688 141.863281 C 913.34375 137.515625 908.496094 156.035156 907.152344 160.519531 " fill-opacity="1" fill-rule="nonzero"/><path fill="#cdf8ba" d="M 917.972656 181.871094 C 917.972656 181.871094 935.480469 174.957031 935.296875 171.582031 C 935 166.28125 921.40625 178.910156 917.972656 181.871094 " fill-opacity="1" fill-rule="nonzero"/><path fill="#cdf8ba" d="M 906.785156 205.433594 C 906.785156 205.433594 917.082031 216.316406 919.871094 214.617188 C 924.253906 211.941406 910.152344 206.832031 906.785156 205.433594 " fill-opacity="1" fill-rule="nonzero"/><path fill="#cdf8ba" d="M 911.488281 240.289062 C 916.605469 240.140625 906.890625 228.714844 904.65625 225.828125 C 904.65625 225.828125 908.21875 240.386719 911.488281 240.289062 " fill-opacity="1" fill-rule="nonzero"/><path fill="#cdf8ba" d="M 845.644531 189.496094 C 843.183594 194.230469 861.867188 190.125 866.46875 189.292969 C 866.46875 189.292969 847.226562 186.480469 845.644531 189.496094 " fill-opacity="1" fill-rule="nonzero"/><path fill="#cdf8ba" d="M 867.03125 205.011719 C 867.03125 205.011719 852.953125 205.441406 852.464844 208.652344 C 851.699219 213.695312 863.96875 206.585938 867.03125 205.011719 " fill-opacity="1" fill-rule="nonzero"/><g fill="#2b2b2b" fill-opacity="1"><g transform="translate(569.683034, 368.791612)"><g><path d="M 14.644531 -18.777344 L 14.644531 -10.390625 L 4.289062 -10.390625 L 4.289062 -18.777344 L 2.285156 -18.777344 L 2.285156 0 L 4.289062 0 L 4.289062 -8.386719 L 14.644531 -8.386719 L 14.644531 0 L 16.648438 0 L 16.648438 -18.777344 Z M 14.644531 -18.777344 "/></g></g></g><g fill="#2b2b2b" fill-opacity="1"><g transform="translate(595.923271, 368.791612)"><g><path d="M 15.710938 -1.628906 C 15.019531 -1.628906 14.425781 -2.097656 14.425781 -3.253906 L 14.425781 -12.515625 L 12.484375 -12.515625 L 12.484375 -10.890625 C 11.328125 -12.046875 9.699219 -12.769531 7.917969 -12.769531 C 4.320312 -12.769531 1.410156 -9.859375 1.410156 -6.257812 C 1.410156 -2.660156 4.320312 0.25 7.917969 0.25 C 9.796875 0.25 11.484375 -0.625 12.675781 -1.910156 C 13.082031 -0.625 14.082031 0.25 15.554688 0.25 C 15.898438 0.25 16.242188 0.15625 16.492188 0 L 16.492188 -1.628906 Z M 7.917969 -1.691406 C 5.382812 -1.691406 3.347656 -3.722656 3.347656 -6.257812 C 3.347656 -8.792969 5.382812 -10.828125 7.917969 -10.828125 C 10.421875 -10.828125 12.484375 -8.792969 12.484375 -6.257812 C 12.484375 -3.722656 10.421875 -1.691406 7.917969 -1.691406 Z M 7.917969 -1.691406 "/></g></g></g><g fill="#2b2b2b" fill-opacity="1"><g transform="translate(620.098433, 368.791612)"><g><path d="M 10.109375 -12.515625 L 6.257812 -2.253906 L 2.378906 -12.515625 L 0.28125 -12.515625 L 5.289062 0 L 7.167969 0 L 12.203125 -12.515625 Z M 10.109375 -12.515625 "/></g></g></g><g fill="#2b2b2b" fill-opacity="1"><g transform="translate(639.893129, 368.791612)"><g><path d="M 14.425781 -6.382812 C 14.332031 -9.984375 11.484375 -12.769531 7.917969 -12.769531 C 4.320312 -12.769531 1.410156 -9.859375 1.410156 -6.257812 C 1.410156 -2.660156 4.320312 0.25 7.917969 0.25 C 10.890625 0.25 13.363281 -1.722656 14.175781 -4.414062 L 12.109375 -4.414062 C 11.421875 -2.785156 9.796875 -1.691406 7.917969 -1.691406 C 5.445312 -1.691406 3.472656 -3.566406 3.347656 -5.976562 L 14.394531 -5.976562 Z M 7.917969 -10.828125 C 9.921875 -10.828125 11.609375 -9.542969 12.203125 -7.730469 L 3.597656 -7.730469 C 4.226562 -9.542969 5.914062 -10.828125 7.917969 -10.828125 Z M 7.917969 -10.828125 "/></g></g></g><g fill="#2b2b2b" fill-opacity="1"><g transform="translate(662.910595, 368.791612)"><g/></g></g><g fill="#2b2b2b" fill-opacity="1"><g transform="translate(677.761627, 368.791612)"><g><path d="M 5.382812 0.25 C 7.574219 0.25 9.386719 -1.21875 9.386719 -3.378906 C 9.386719 -5.632812 7.511719 -6.507812 5.882812 -7.167969 C 4.351562 -7.824219 3.566406 -8.167969 3.566406 -9.261719 C 3.566406 -10.328125 4.289062 -10.828125 5.320312 -10.828125 C 6.132812 -10.828125 6.851562 -10.484375 7.199219 -9.828125 L 8.886719 -10.703125 C 8.417969 -11.828125 6.820312 -12.769531 5.226562 -12.769531 C 3.378906 -12.769531 1.597656 -11.484375 1.597656 -9.199219 C 1.597656 -7.230469 2.910156 -6.226562 5.132812 -5.382812 C 6.632812 -4.789062 7.449219 -4.382812 7.449219 -3.378906 C 7.449219 -2.285156 6.507812 -1.660156 5.382812 -1.660156 C 4.226562 -1.660156 3.097656 -2.316406 2.910156 -3.222656 L 1.03125 -2.472656 C 1.503906 -0.96875 3.378906 0.25 5.382812 0.25 Z M 5.382812 0.25 "/></g></g></g><g fill="#2b2b2b" fill-opacity="1"><g transform="translate(695.428671, 368.791612)"><g><path d="M 15.710938 -1.628906 C 15.019531 -1.628906 14.425781 -2.097656 14.425781 -3.253906 L 14.425781 -12.515625 L 12.484375 -12.515625 L 12.484375 -10.890625 C 11.328125 -12.046875 9.699219 -12.769531 7.917969 -12.769531 C 4.320312 -12.769531 1.410156 -9.859375 1.410156 -6.257812 C 1.410156 -2.660156 4.320312 0.25 7.917969 0.25 C 9.796875 0.25 11.484375 -0.625 12.675781 -1.910156 C 13.082031 -0.625 14.082031 0.25 15.554688 0.25 C 15.898438 0.25 16.242188 0.15625 16.492188 0 L 16.492188 -1.628906 Z M 7.917969 -1.691406 C 5.382812 -1.691406 3.347656 -3.722656 3.347656 -6.257812 C 3.347656 -8.792969 5.382812 -10.828125 7.917969 -10.828125 C 10.421875 -10.828125 12.484375 -8.792969 12.484375 -6.257812 C 12.484375 -3.722656 10.421875 -1.691406 7.917969 -1.691406 Z M 7.917969 -1.691406 "/></g></g></g><g fill="#2b2b2b" fill-opacity="1"><g transform="translate(719.603834, 368.791612)"><g><path d="M 2.285156 0 L 4.226562 0 L 4.226562 -23.03125 L 2.285156 -23.03125 Z M 2.285156 0 "/></g></g></g><g fill="#2b2b2b" fill-opacity="1"><g transform="translate(733.422322, 368.791612)"><g><path d="M 8.042969 -10.640625 L 8.042969 -12.515625 L 4.695312 -12.515625 L 4.695312 -17.960938 L 2.753906 -17.960938 L 2.753906 -12.515625 L 0.65625 -12.515625 L 0.65625 -10.640625 L 2.753906 -10.640625 L 2.753906 -3.285156 C 2.753906 -1.3125 4.414062 0.25 6.351562 0.25 C 6.976562 0.25 7.667969 0.0625 8.011719 -0.15625 L 8.011719 -1.628906 L 6.570312 -1.628906 C 5.570312 -1.628906 4.695312 -2.378906 4.695312 -3.535156 L 4.695312 -10.640625 Z M 8.042969 -10.640625 "/></g></g></g><g fill="#2b2b2b" fill-opacity="1"><g transform="translate(749.806518, 368.791612)"><g/></g></g><g fill="#2b2b2b" fill-opacity="1"><g transform="translate(764.657549, 368.791612)"><g><path d="M 3.503906 -14.863281 C 4.226562 -14.863281 4.851562 -15.460938 4.851562 -16.179688 C 4.851562 -16.960938 4.226562 -17.523438 3.503906 -17.523438 C 2.753906 -17.523438 2.128906 -16.960938 2.128906 -16.179688 C 2.128906 -15.460938 2.753906 -14.863281 3.503906 -14.863281 Z M 2.535156 0 L 4.476562 0 L 4.476562 -12.515625 L 2.535156 -12.515625 Z M 2.535156 0 "/></g></g></g><g fill="#2b2b2b" fill-opacity="1"><g transform="translate(778.945383, 368.791612)"><g><path d="M 7.261719 -12.769531 C 6.101562 -12.769531 5.039062 -12.296875 4.226562 -11.515625 L 4.226562 -12.515625 L 2.285156 -12.515625 L 2.285156 0 L 4.226562 0 L 4.226562 -7.980469 C 4.226562 -9.574219 5.507812 -10.828125 7.105469 -10.828125 C 8.699219 -10.828125 9.953125 -9.574219 9.953125 -7.980469 L 9.953125 0 L 11.890625 0 L 11.890625 -7.980469 C 11.890625 -10.640625 9.667969 -12.769531 7.261719 -12.769531 Z M 7.261719 -12.769531 "/></g></g></g><g fill="#2b2b2b" fill-opacity="1"><g transform="translate(800.273255, 368.791612)"><g/></g></g><g fill="#2b2b2b" fill-opacity="1"><g transform="translate(815.124298, 368.791612)"><g><path d="M 10.328125 -12.515625 L 6.445312 -2.253906 L 2.441406 -12.515625 L 0.28125 -12.515625 L 5.414062 0.09375 L 2.410156 7.511719 L 4.476562 7.511719 L 7.136719 0.9375 L 12.515625 -12.515625 Z M 10.328125 -12.515625 "/></g></g></g><g fill="#2b2b2b" fill-opacity="1"><g transform="translate(835.231887, 368.791612)"><g><path d="M 7.917969 0.25 C 11.515625 0.25 14.425781 -2.660156 14.425781 -6.257812 C 14.425781 -9.859375 11.515625 -12.769531 7.917969 -12.769531 C 4.320312 -12.769531 1.410156 -9.859375 1.410156 -6.257812 C 1.410156 -2.660156 4.320312 0.25 7.917969 0.25 Z M 7.917969 -1.691406 C 5.382812 -1.691406 3.347656 -3.722656 3.347656 -6.257812 C 3.347656 -8.792969 5.382812 -10.828125 7.917969 -10.828125 C 10.421875 -10.828125 12.484375 -8.792969 12.484375 -6.257812 C 12.484375 -3.722656 10.421875 -1.691406 7.917969 -1.691406 Z M 7.917969 -1.691406 "/></g></g></g><g fill="#2b2b2b" fill-opacity="1"><g transform="translate(858.374518, 368.791612)"><g><path d="M 6.570312 0.25 C 9.355469 0.25 11.265625 -1.597656 11.265625 -4.507812 L 11.265625 -12.515625 L 9.355469 -12.515625 L 9.355469 -4.726562 C 9.355469 -2.847656 8.199219 -1.691406 6.570312 -1.691406 C 4.976562 -1.691406 3.785156 -2.847656 3.785156 -4.726562 L 3.785156 -12.515625 L 1.878906 -12.515625 L 1.878906 -4.507812 C 1.878906 -1.597656 3.753906 0.25 6.570312 0.25 Z M 6.570312 0.25 "/></g></g></g><g fill="#2b2b2b" fill-opacity="1"><g transform="translate(878.79501, 368.791612)"><g><path d="M 8.386719 -12.769531 C 6.601562 -12.769531 5.164062 -11.984375 4.226562 -10.734375 L 4.226562 -12.515625 L 2.285156 -12.515625 L 2.285156 0 L 4.226562 0 L 4.226562 -6.789062 C 4.226562 -9.074219 6.101562 -10.828125 8.386719 -10.828125 C 8.761719 -10.828125 9.074219 -10.796875 9.355469 -10.703125 L 9.355469 -12.675781 C 9.074219 -12.738281 8.761719 -12.769531 8.386719 -12.769531 Z M 8.386719 -12.769531 "/></g></g></g><g fill="#2b2b2b" fill-opacity="1"><g transform="translate(895.617252, 368.791612)"><g><path d="M 5.382812 0.25 C 7.574219 0.25 9.386719 -1.21875 9.386719 -3.378906 C 9.386719 -5.632812 7.511719 -6.507812 5.882812 -7.167969 C 4.351562 -7.824219 3.566406 -8.167969 3.566406 -9.261719 C 3.566406 -10.328125 4.289062 -10.828125 5.320312 -10.828125 C 6.132812 -10.828125 6.851562 -10.484375 7.199219 -9.828125 L 8.886719 -10.703125 C 8.417969 -11.828125 6.820312 -12.769531 5.226562 -12.769531 C 3.378906 -12.769531 1.597656 -11.484375 1.597656 -9.199219 C 1.597656 -7.230469 2.910156 -6.226562 5.132812 -5.382812 C 6.632812 -4.789062 7.449219 -4.382812 7.449219 -3.378906 C 7.449219 -2.285156 6.507812 -1.660156 5.382812 -1.660156 C 4.226562 -1.660156 3.097656 -2.316406 2.910156 -3.222656 L 1.03125 -2.472656 C 1.503906 -0.96875 3.378906 0.25 5.382812 0.25 Z M 5.382812 0.25 "/></g></g></g><g fill="#2b2b2b" fill-opacity="1"><g transform="translate(913.284297, 368.791612)"><g><path d="M 14.425781 -6.382812 C 14.332031 -9.984375 11.484375 -12.769531 7.917969 -12.769531 C 4.320312 -12.769531 1.410156 -9.859375 1.410156 -6.257812 C 1.410156 -2.660156 4.320312 0.25 7.917969 0.25 C 10.890625 0.25 13.363281 -1.722656 14.175781 -4.414062 L 12.109375 -4.414062 C 11.421875 -2.785156 9.796875 -1.691406 7.917969 -1.691406 C 5.445312 -1.691406 3.472656 -3.566406 3.347656 -5.976562 L 14.394531 -5.976562 Z M 7.917969 -10.828125 C 9.921875 -10.828125 11.609375 -9.542969 12.203125 -7.730469 L 3.597656 -7.730469 C 4.226562 -9.542969 5.914062 -10.828125 7.917969 -10.828125 Z M 7.917969 -10.828125 "/></g></g></g><g fill="#2b2b2b" fill-opacity="1"><g transform="translate(936.301775, 368.791612)"><g><path d="M 2.285156 0 L 4.226562 0 L 4.226562 -23.03125 L 2.285156 -23.03125 Z M 2.285156 0 "/></g></g></g><g fill="#2b2b2b" fill-opacity="1"><g transform="translate(950.120263, 368.791612)"><g><path d="M 10.109375 -12.515625 L 6.257812 -2.253906 L 2.378906 -12.515625 L 0.28125 -12.515625 L 5.289062 0 L 7.167969 0 L 12.203125 -12.515625 Z M 10.109375 -12.515625 "/></g></g></g><g fill="#2b2b2b" fill-opacity="1"><g transform="translate(969.914948, 368.791612)"><g><path d="M 14.425781 -6.382812 C 14.332031 -9.984375 11.484375 -12.769531 7.917969 -12.769531 C 4.320312 -12.769531 1.410156 -9.859375 1.410156 -6.257812 C 1.410156 -2.660156 4.320312 0.25 7.917969 0.25 C 10.890625 0.25 13.363281 -1.722656 14.175781 -4.414062 L 12.109375 -4.414062 C 11.421875 -2.785156 9.796875 -1.691406 7.917969 -1.691406 C 5.445312 -1.691406 3.472656 -3.566406 3.347656 -5.976562 L 14.394531 -5.976562 Z M 7.917969 -10.828125 C 9.921875 -10.828125 11.609375 -9.542969 12.203125 -7.730469 L 3.597656 -7.730469 C 4.226562 -9.542969 5.914062 -10.828125 7.917969 -10.828125 Z M 7.917969 -10.828125 "/></g></g></g><g fill="#2b2b2b" fill-opacity="1"><g transform="translate(992.932402, 368.791612)"><g><path d="M 5.382812 0.25 C 7.574219 0.25 9.386719 -1.21875 9.386719 -3.378906 C 9.386719 -5.632812 7.511719 -6.507812 5.882812 -7.167969 C 4.351562 -7.824219 3.566406 -8.167969 3.566406 -9.261719 C 3.566406 -10.328125 4.289062 -10.828125 5.320312 -10.828125 C 6.132812 -10.828125 6.851562 -10.484375 7.199219 -9.828125 L 8.886719 -10.703125 C 8.417969 -11.828125 6.820312 -12.769531 5.226562 -12.769531 C 3.378906 -12.769531 1.597656 -11.484375 1.597656 -9.199219 C 1.597656 -7.230469 2.910156 -6.226562 5.132812 -5.382812 C 6.632812 -4.789062 7.449219 -4.382812 7.449219 -3.378906 C 7.449219 -2.285156 6.507812 -1.660156 5.382812 -1.660156 C 4.226562 -1.660156 3.097656 -2.316406 2.910156 -3.222656 L 1.03125 -2.472656 C 1.503906 -0.96875 3.378906 0.25 5.382812 0.25 Z M 5.382812 0.25 "/></g></g></g><g fill="#2b2b2b" fill-opacity="1"><g transform="translate(1010.59947, 368.791612)"><g><path d="M 1.785156 3.878906 L 5.632812 -3.160156 L 3.441406 -3.160156 L 0.15625 3.878906 Z M 1.785156 3.878906 "/></g></g></g><g fill="#2b2b2b" fill-opacity="1"><g transform="translate(187.753547, 540.136097)"><g><path d="M 15.710938 -1.628906 C 15.019531 -1.628906 14.425781 -2.097656 14.425781 -3.253906 L 14.425781 -12.515625 L 12.484375 -12.515625 L 12.484375 -10.890625 C 11.328125 -12.046875 9.699219 -12.769531 7.917969 -12.769531 C 4.320312 -12.769531 1.410156 -9.859375 1.410156 -6.257812 C 1.410156 -2.660156 4.320312 0.25 7.917969 0.25 C 9.796875 0.25 11.484375 -0.625 12.675781 -1.910156 C 13.082031 -0.625 14.082031 0.25 15.554688 0.25 C 15.898438 0.25 16.242188 0.15625 16.492188 0 L 16.492188 -1.628906 Z M 7.917969 -1.691406 C 5.382812 -1.691406 3.347656 -3.722656 3.347656 -6.257812 C 3.347656 -8.792969 5.382812 -10.828125 7.917969 -10.828125 C 10.421875 -10.828125 12.484375 -8.792969 12.484375 -6.257812 C 12.484375 -3.722656 10.421875 -1.691406 7.917969 -1.691406 Z M 7.917969 -1.691406 "/></g></g></g><g fill="#2b2b2b" fill-opacity="1"><g transform="translate(211.928709, 540.136097)"><g><path d="M 7.261719 -12.769531 C 6.101562 -12.769531 5.039062 -12.296875 4.226562 -11.515625 L 4.226562 -12.515625 L 2.285156 -12.515625 L 2.285156 0 L 4.226562 0 L 4.226562 -7.980469 C 4.226562 -9.574219 5.507812 -10.828125 7.105469 -10.828125 C 8.699219 -10.828125 9.953125 -9.574219 9.953125 -7.980469 L 9.953125 0 L 11.890625 0 L 11.890625 -7.980469 C 11.890625 -10.640625 9.667969 -12.769531 7.261719 -12.769531 Z M 7.261719 -12.769531 "/></g></g></g><g fill="#2b2b2b" fill-opacity="1"><g transform="translate(233.256569, 540.136097)"><g><path d="M 12.484375 -23.03125 L 12.484375 -10.890625 C 11.296875 -12.046875 9.699219 -12.769531 7.917969 -12.769531 C 4.320312 -12.769531 1.410156 -9.859375 1.410156 -6.257812 C 1.410156 -2.660156 4.320312 0.25 7.917969 0.25 C 9.699219 0.25 11.296875 -0.46875 12.484375 -1.628906 L 12.484375 0 L 14.425781 0 L 14.425781 -23.03125 Z M 7.917969 -1.691406 C 5.382812 -1.691406 3.347656 -3.722656 3.347656 -6.257812 C 3.347656 -8.792969 5.382812 -10.828125 7.917969 -10.828125 C 10.421875 -10.828125 12.484375 -8.792969 12.484375 -6.257812 C 12.484375 -3.722656 10.421875 -1.691406 7.917969 -1.691406 Z M 7.917969 -1.691406 "/></g></g></g><g fill="#2b2b2b" fill-opacity="1"><g transform="translate(257.27529, 540.136097)"><g/></g></g><g fill="#2b2b2b" fill-opacity="1"><g transform="translate(272.126322, 540.136097)"><g><path d="M 8.792969 -12.769531 C 7.011719 -12.769531 5.414062 -12.046875 4.226562 -10.890625 L 4.226562 -23.03125 L 2.285156 -23.03125 L 2.285156 0 L 4.226562 0 L 4.226562 -1.628906 C 5.414062 -0.46875 7.011719 0.25 8.792969 0.25 C 12.390625 0.25 15.300781 -2.660156 15.300781 -6.257812 C 15.300781 -9.859375 12.390625 -12.769531 8.792969 -12.769531 Z M 8.792969 -1.691406 C 6.257812 -1.691406 4.226562 -3.722656 4.226562 -6.257812 C 4.226562 -8.792969 6.257812 -10.828125 8.792969 -10.828125 C 11.328125 -10.828125 13.363281 -8.792969 13.363281 -6.257812 C 13.363281 -3.722656 11.328125 -1.691406 8.792969 -1.691406 Z M 8.792969 -1.691406 "/></g></g></g><g fill="#2b2b2b" fill-opacity="1"><g transform="translate(296.145043, 540.136097)"><g><path d="M 14.425781 -6.382812 C 14.332031 -9.984375 11.484375 -12.769531 7.917969 -12.769531 C 4.320312 -12.769531 1.410156 -9.859375 1.410156 -6.257812 C 1.410156 -2.660156 4.320312 0.25 7.917969 0.25 C 10.890625 0.25 13.363281 -1.722656 14.175781 -4.414062 L 12.109375 -4.414062 C 11.421875 -2.785156 9.796875 -1.691406 7.917969 -1.691406 C 5.445312 -1.691406 3.472656 -3.566406 3.347656 -5.976562 L 14.394531 -5.976562 Z M 7.917969 -10.828125 C 9.921875 -10.828125 11.609375 -9.542969 12.203125 -7.730469 L 3.597656 -7.730469 C 4.226562 -9.542969 5.914062 -10.828125 7.917969 -10.828125 Z M 7.917969 -10.828125 "/></g></g></g><g fill="#2b2b2b" fill-opacity="1"><g transform="translate(319.162509, 540.136097)"><g/></g></g><g fill="#2b2b2b" fill-opacity="1"><g transform="translate(334.013541, 540.136097)"><g><path d="M 15.710938 -1.628906 C 15.019531 -1.628906 14.425781 -2.097656 14.425781 -3.253906 L 14.425781 -12.515625 L 12.484375 -12.515625 L 12.484375 -10.890625 C 11.328125 -12.046875 9.699219 -12.769531 7.917969 -12.769531 C 4.320312 -12.769531 1.410156 -9.859375 1.410156 -6.257812 C 1.410156 -2.660156 4.320312 0.25 7.917969 0.25 C 9.796875 0.25 11.484375 -0.625 12.675781 -1.910156 C 13.082031 -0.625 14.082031 0.25 15.554688 0.25 C 15.898438 0.25 16.242188 0.15625 16.492188 0 L 16.492188 -1.628906 Z M 7.917969 -1.691406 C 5.382812 -1.691406 3.347656 -3.722656 3.347656 -6.257812 C 3.347656 -8.792969 5.382812 -10.828125 7.917969 -10.828125 C 10.421875 -10.828125 12.484375 -8.792969 12.484375 -6.257812 C 12.484375 -3.722656 10.421875 -1.691406 7.917969 -1.691406 Z M 7.917969 -1.691406 "/></g></g></g><g fill="#2b2b2b" fill-opacity="1"><g transform="translate(358.188703, 540.136097)"><g><path d="M 8.042969 -10.640625 L 8.042969 -12.515625 L 4.695312 -12.515625 L 4.695312 -17.960938 L 2.753906 -17.960938 L 2.753906 -12.515625 L 0.65625 -12.515625 L 0.65625 -10.640625 L 2.753906 -10.640625 L 2.753906 -3.285156 C 2.753906 -1.3125 4.414062 0.25 6.351562 0.25 C 6.976562 0.25 7.667969 0.0625 8.011719 -0.15625 L 8.011719 -1.628906 L 6.570312 -1.628906 C 5.570312 -1.628906 4.695312 -2.378906 4.695312 -3.535156 L 4.695312 -10.640625 Z M 8.042969 -10.640625 "/></g></g></g><g fill="#2b2b2b" fill-opacity="1"><g transform="translate(374.572899, 540.136097)"><g/></g></g><g fill="#2b2b2b" fill-opacity="1"><g transform="translate(389.42393, 540.136097)"><g><path d="M 8.792969 -12.769531 C 7.011719 -12.769531 5.414062 -12.046875 4.226562 -10.890625 L 4.226562 -12.515625 L 2.285156 -12.515625 L 2.285156 7.511719 L 4.226562 7.511719 L 4.226562 -1.628906 C 5.414062 -0.46875 7.011719 0.25 8.792969 0.25 C 12.390625 0.25 15.300781 -2.660156 15.300781 -6.257812 C 15.300781 -9.859375 12.390625 -12.769531 8.792969 -12.769531 Z M 8.792969 -1.691406 C 6.257812 -1.691406 4.226562 -3.722656 4.226562 -6.257812 C 4.226562 -8.792969 6.257812 -10.828125 8.792969 -10.828125 C 11.328125 -10.828125 13.363281 -8.792969 13.363281 -6.257812 C 13.363281 -3.722656 11.328125 -1.691406 8.792969 -1.691406 Z M 8.792969 -1.691406 "/></g></g></g><g fill="#2b2b2b" fill-opacity="1"><g transform="translate(413.442651, 540.136097)"><g><path d="M 14.425781 -6.382812 C 14.332031 -9.984375 11.484375 -12.769531 7.917969 -12.769531 C 4.320312 -12.769531 1.410156 -9.859375 1.410156 -6.257812 C 1.410156 -2.660156 4.320312 0.25 7.917969 0.25 C 10.890625 0.25 13.363281 -1.722656 14.175781 -4.414062 L 12.109375 -4.414062 C 11.421875 -2.785156 9.796875 -1.691406 7.917969 -1.691406 C 5.445312 -1.691406 3.472656 -3.566406 3.347656 -5.976562 L 14.394531 -5.976562 Z M 7.917969 -10.828125 C 9.921875 -10.828125 11.609375 -9.542969 12.203125 -7.730469 L 3.597656 -7.730469 C 4.226562 -9.542969 5.914062 -10.828125 7.917969 -10.828125 Z M 7.917969 -10.828125 "/></g></g></g><g fill="#2b2b2b" fill-opacity="1"><g transform="translate(436.460129, 540.136097)"><g><path d="M 15.710938 -1.628906 C 15.019531 -1.628906 14.425781 -2.097656 14.425781 -3.253906 L 14.425781 -12.515625 L 12.484375 -12.515625 L 12.484375 -10.890625 C 11.328125 -12.046875 9.699219 -12.769531 7.917969 -12.769531 C 4.320312 -12.769531 1.410156 -9.859375 1.410156 -6.257812 C 1.410156 -2.660156 4.320312 0.25 7.917969 0.25 C 9.796875 0.25 11.484375 -0.625 12.675781 -1.910156 C 13.082031 -0.625 14.082031 0.25 15.554688 0.25 C 15.898438 0.25 16.242188 0.15625 16.492188 0 L 16.492188 -1.628906 Z M 7.917969 -1.691406 C 5.382812 -1.691406 3.347656 -3.722656 3.347656 -6.257812 C 3.347656 -8.792969 5.382812 -10.828125 7.917969 -10.828125 C 10.421875 -10.828125 12.484375 -8.792969 12.484375 -6.257812 C 12.484375 -3.722656 10.421875 -1.691406 7.917969 -1.691406 Z M 7.917969 -1.691406 "/></g></g></g><g fill="#2b2b2b" fill-opacity="1"><g transform="translate(460.635291, 540.136097)"><g><path d="M 7.917969 0.25 C 10.828125 0.25 13.269531 -1.628906 14.113281 -4.257812 L 12.046875 -4.257812 C 11.296875 -2.722656 9.730469 -1.691406 7.917969 -1.691406 C 5.382812 -1.691406 3.347656 -3.691406 3.347656 -6.257812 C 3.347656 -8.824219 5.382812 -10.828125 7.917969 -10.828125 C 9.730469 -10.828125 11.296875 -9.796875 12.046875 -8.261719 L 14.113281 -8.261719 C 13.269531 -10.890625 10.828125 -12.769531 7.917969 -12.769531 C 4.320312 -12.769531 1.410156 -9.859375 1.410156 -6.257812 C 1.410156 -2.660156 4.320312 0.25 7.917969 0.25 Z M 7.917969 0.25 "/></g></g></g><g fill="#2b2b2b" fill-opacity="1"><g transform="translate(482.870542, 540.136097)"><g><path d="M 14.425781 -6.382812 C 14.332031 -9.984375 11.484375 -12.769531 7.917969 -12.769531 C 4.320312 -12.769531 1.410156 -9.859375 1.410156 -6.257812 C 1.410156 -2.660156 4.320312 0.25 7.917969 0.25 C 10.890625 0.25 13.363281 -1.722656 14.175781 -4.414062 L 12.109375 -4.414062 C 11.421875 -2.785156 9.796875 -1.691406 7.917969 -1.691406 C 5.445312 -1.691406 3.472656 -3.566406 3.347656 -5.976562 L 14.394531 -5.976562 Z M 7.917969 -10.828125 C 9.921875 -10.828125 11.609375 -9.542969 12.203125 -7.730469 L 3.597656 -7.730469 C 4.226562 -9.542969 5.914062 -10.828125 7.917969 -10.828125 Z M 7.917969 -10.828125 "/></g></g></g><g fill="#2b2b2b" fill-opacity="1"><g transform="translate(505.88802, 540.136097)"><g/></g></g><g fill="#2b2b2b" fill-opacity="1"><g transform="translate(520.739063, 540.136097)"><g><path d="M 17.710938 -12.515625 L 14.394531 -2.253906 L 10.984375 -12.515625 L 9.136719 -12.515625 L 5.726562 -2.316406 L 2.472656 -12.515625 L 0.28125 -12.515625 L 4.601562 0 L 6.726562 0 L 10.078125 -9.828125 L 13.394531 0 L 15.523438 0 L 19.808594 -12.515625 Z M 17.710938 -12.515625 "/></g></g></g><g fill="#2b2b2b" fill-opacity="1"><g transform="translate(548.136996, 540.136097)"><g><path d="M 3.503906 -14.863281 C 4.226562 -14.863281 4.851562 -15.460938 4.851562 -16.179688 C 4.851562 -16.960938 4.226562 -17.523438 3.503906 -17.523438 C 2.753906 -17.523438 2.128906 -16.960938 2.128906 -16.179688 C 2.128906 -15.460938 2.753906 -14.863281 3.503906 -14.863281 Z M 2.535156 0 L 4.476562 0 L 4.476562 -12.515625 L 2.535156 -12.515625 Z M 2.535156 0 "/></g></g></g><g fill="#2b2b2b" fill-opacity="1"><g transform="translate(562.42483, 540.136097)"><g><path d="M 8.042969 -10.640625 L 8.042969 -12.515625 L 4.695312 -12.515625 L 4.695312 -17.960938 L 2.753906 -17.960938 L 2.753906 -12.515625 L 0.65625 -12.515625 L 0.65625 -10.640625 L 2.753906 -10.640625 L 2.753906 -3.285156 C 2.753906 -1.3125 4.414062 0.25 6.351562 0.25 C 6.976562 0.25 7.667969 0.0625 8.011719 -0.15625 L 8.011719 -1.628906 L 6.570312 -1.628906 C 5.570312 -1.628906 4.695312 -2.378906 4.695312 -3.535156 L 4.695312 -10.640625 Z M 8.042969 -10.640625 "/></g></g></g><g fill="#2b2b2b" fill-opacity="1"><g transform="translate(578.809038, 540.136097)"><g><path d="M 7.011719 -12.769531 C 5.976562 -12.769531 5.007812 -12.421875 4.226562 -11.859375 L 4.226562 -23.03125 L 2.285156 -23.03125 L 2.285156 0 L 4.226562 0 L 4.226562 -8.011719 C 4.226562 -9.605469 5.476562 -10.828125 7.011719 -10.828125 C 8.542969 -10.828125 9.828125 -9.605469 9.828125 -8.011719 L 9.828125 0 L 11.734375 0 L 11.734375 -8.011719 C 11.734375 -10.671875 9.636719 -12.769531 7.011719 -12.769531 Z M 7.011719 -12.769531 "/></g></g></g><g fill="#2b2b2b" fill-opacity="1"><g transform="translate(599.98047, 540.136097)"><g/></g></g><g fill="#2b2b2b" fill-opacity="1"><g transform="translate(614.831513, 540.136097)"><g><path d="M 7.917969 0.25 C 11.515625 0.25 14.425781 -2.660156 14.425781 -6.257812 C 14.425781 -9.859375 11.515625 -12.769531 7.917969 -12.769531 C 4.320312 -12.769531 1.410156 -9.859375 1.410156 -6.257812 C 1.410156 -2.660156 4.320312 0.25 7.917969 0.25 Z M 7.917969 -1.691406 C 5.382812 -1.691406 3.347656 -3.722656 3.347656 -6.257812 C 3.347656 -8.792969 5.382812 -10.828125 7.917969 -10.828125 C 10.421875 -10.828125 12.484375 -8.792969 12.484375 -6.257812 C 12.484375 -3.722656 10.421875 -1.691406 7.917969 -1.691406 Z M 7.917969 -1.691406 "/></g></g></g><g fill="#2b2b2b" fill-opacity="1"><g transform="translate(637.974167, 540.136097)"><g><path d="M 7.261719 -12.769531 C 6.101562 -12.769531 5.039062 -12.296875 4.226562 -11.515625 L 4.226562 -12.515625 L 2.285156 -12.515625 L 2.285156 0 L 4.226562 0 L 4.226562 -7.980469 C 4.226562 -9.574219 5.507812 -10.828125 7.105469 -10.828125 C 8.699219 -10.828125 9.953125 -9.574219 9.953125 -7.980469 L 9.953125 0 L 11.890625 0 L 11.890625 -7.980469 C 11.890625 -10.640625 9.667969 -12.769531 7.261719 -12.769531 Z M 7.261719 -12.769531 "/></g></g></g><g fill="#2b2b2b" fill-opacity="1"><g transform="translate(659.302016, 540.136097)"><g><path d="M 14.425781 -6.382812 C 14.332031 -9.984375 11.484375 -12.769531 7.917969 -12.769531 C 4.320312 -12.769531 1.410156 -9.859375 1.410156 -6.257812 C 1.410156 -2.660156 4.320312 0.25 7.917969 0.25 C 10.890625 0.25 13.363281 -1.722656 14.175781 -4.414062 L 12.109375 -4.414062 C 11.421875 -2.785156 9.796875 -1.691406 7.917969 -1.691406 C 5.445312 -1.691406 3.472656 -3.566406 3.347656 -5.976562 L 14.394531 -5.976562 Z M 7.917969 -10.828125 C 9.921875 -10.828125 11.609375 -9.542969 12.203125 -7.730469 L 3.597656 -7.730469 C 4.226562 -9.542969 5.914062 -10.828125 7.917969 -10.828125 Z M 7.917969 -10.828125 "/></g></g></g><g fill="#2b2b2b" fill-opacity="1"><g transform="translate(682.319471, 540.136097)"><g/></g></g><g fill="#2b2b2b" fill-opacity="1"><g transform="translate(697.170514, 540.136097)"><g><path d="M 15.710938 -1.628906 C 15.019531 -1.628906 14.425781 -2.097656 14.425781 -3.253906 L 14.425781 -12.515625 L 12.484375 -12.515625 L 12.484375 -10.890625 C 11.328125 -12.046875 9.699219 -12.769531 7.917969 -12.769531 C 4.320312 -12.769531 1.410156 -9.859375 1.410156 -6.257812 C 1.410156 -2.660156 4.320312 0.25 7.917969 0.25 C 9.796875 0.25 11.484375 -0.625 12.675781 -1.910156 C 13.082031 -0.625 14.082031 0.25 15.554688 0.25 C 15.898438 0.25 16.242188 0.15625 16.492188 0 L 16.492188 -1.628906 Z M 7.917969 -1.691406 C 5.382812 -1.691406 3.347656 -3.722656 3.347656 -6.257812 C 3.347656 -8.792969 5.382812 -10.828125 7.917969 -10.828125 C 10.421875 -10.828125 12.484375 -8.792969 12.484375 -6.257812 C 12.484375 -3.722656 10.421875 -1.691406 7.917969 -1.691406 Z M 7.917969 -1.691406 "/></g></g></g><g fill="#2b2b2b" fill-opacity="1"><g transform="translate(721.345653, 540.136097)"><g><path d="M 7.261719 -12.769531 C 6.101562 -12.769531 5.039062 -12.296875 4.226562 -11.515625 L 4.226562 -12.515625 L 2.285156 -12.515625 L 2.285156 0 L 4.226562 0 L 4.226562 -7.980469 C 4.226562 -9.574219 5.507812 -10.828125 7.105469 -10.828125 C 8.699219 -10.828125 9.953125 -9.574219 9.953125 -7.980469 L 9.953125 0 L 11.890625 0 L 11.890625 -7.980469 C 11.890625 -10.640625 9.667969 -12.769531 7.261719 -12.769531 Z M 7.261719 -12.769531 "/></g></g></g><g fill="#2b2b2b" fill-opacity="1"><g transform="translate(742.673503, 540.136097)"><g><path d="M 7.917969 0.25 C 11.515625 0.25 14.425781 -2.660156 14.425781 -6.257812 C 14.425781 -9.859375 11.515625 -12.769531 7.917969 -12.769531 C 4.320312 -12.769531 1.410156 -9.859375 1.410156 -6.257812 C 1.410156 -2.660156 4.320312 0.25 7.917969 0.25 Z M 7.917969 -1.691406 C 5.382812 -1.691406 3.347656 -3.722656 3.347656 -6.257812 C 3.347656 -8.792969 5.382812 -10.828125 7.917969 -10.828125 C 10.421875 -10.828125 12.484375 -8.792969 12.484375 -6.257812 C 12.484375 -3.722656 10.421875 -1.691406 7.917969 -1.691406 Z M 7.917969 -1.691406 "/></g></g></g><g fill="#2b2b2b" fill-opacity="1"><g transform="translate(765.816156, 540.136097)"><g><path d="M 8.042969 -10.640625 L 8.042969 -12.515625 L 4.695312 -12.515625 L 4.695312 -17.960938 L 2.753906 -17.960938 L 2.753906 -12.515625 L 0.65625 -12.515625 L 0.65625 -10.640625 L 2.753906 -10.640625 L 2.753906 -3.285156 C 2.753906 -1.3125 4.414062 0.25 6.351562 0.25 C 6.976562 0.25 7.667969 0.0625 8.011719 -0.15625 L 8.011719 -1.628906 L 6.570312 -1.628906 C 5.570312 -1.628906 4.695312 -2.378906 4.695312 -3.535156 L 4.695312 -10.640625 Z M 8.042969 -10.640625 "/></g></g></g><g fill="#2b2b2b" fill-opacity="1"><g transform="translate(782.200341, 540.136097)"><g><path d="M 7.011719 -12.769531 C 5.976562 -12.769531 5.007812 -12.421875 4.226562 -11.859375 L 4.226562 -23.03125 L 2.285156 -23.03125 L 2.285156 0 L 4.226562 0 L 4.226562 -8.011719 C 4.226562 -9.605469 5.476562 -10.828125 7.011719 -10.828125 C 8.542969 -10.828125 9.828125 -9.605469 9.828125 -8.011719 L 9.828125 0 L 11.734375 0 L 11.734375 -8.011719 C 11.734375 -10.671875 9.636719 -12.769531 7.011719 -12.769531 Z M 7.011719 -12.769531 "/></g></g></g><g fill="#2b2b2b" fill-opacity="1"><g transform="translate(803.371773, 540.136097)"><g><path d="M 14.425781 -6.382812 C 14.332031 -9.984375 11.484375 -12.769531 7.917969 -12.769531 C 4.320312 -12.769531 1.410156 -9.859375 1.410156 -6.257812 C 1.410156 -2.660156 4.320312 0.25 7.917969 0.25 C 10.890625 0.25 13.363281 -1.722656 14.175781 -4.414062 L 12.109375 -4.414062 C 11.421875 -2.785156 9.796875 -1.691406 7.917969 -1.691406 C 5.445312 -1.691406 3.472656 -3.566406 3.347656 -5.976562 L 14.394531 -5.976562 Z M 7.917969 -10.828125 C 9.921875 -10.828125 11.609375 -9.542969 12.203125 -7.730469 L 3.597656 -7.730469 C 4.226562 -9.542969 5.914062 -10.828125 7.917969 -10.828125 Z M 7.917969 -10.828125 "/></g></g></g><g fill="#2b2b2b" fill-opacity="1"><g transform="translate(826.389228, 540.136097)"><g><path d="M 8.386719 -12.769531 C 6.601562 -12.769531 5.164062 -11.984375 4.226562 -10.734375 L 4.226562 -12.515625 L 2.285156 -12.515625 L 2.285156 0 L 4.226562 0 L 4.226562 -6.789062 C 4.226562 -9.074219 6.101562 -10.828125 8.386719 -10.828125 C 8.761719 -10.828125 9.074219 -10.796875 9.355469 -10.703125 L 9.355469 -12.675781 C 9.074219 -12.738281 8.761719 -12.769531 8.386719 -12.769531 Z M 8.386719 -12.769531 "/></g></g></g><g fill="#2b2b2b" fill-opacity="1"><g transform="translate(843.211493, 540.136097)"><g><path d="M 2.972656 0.25 C 3.910156 0.25 4.695312 -0.53125 4.695312 -1.472656 C 4.695312 -2.410156 3.910156 -3.191406 2.972656 -3.191406 C 2.066406 -3.191406 1.25 -2.410156 1.25 -1.472656 C 1.25 -0.53125 2.066406 0.25 2.972656 0.25 Z M 2.972656 0.25 "/></g></g></g><g fill="#2b2b2b" fill-opacity="1"><g transform="translate(765.192154, 671.270266)"><g><path d="M 10.558594 -10.523438 L 6.507812 -1.351562 L 2.472656 -10.523438 L 1.28125 -10.523438 L 1.28125 0 L 2.402344 0 L 2.402344 -8.3125 L 6.035156 0 L 6.964844 0 L 10.628906 -8.277344 L 10.628906 0 L 11.734375 0 L 11.734375 -10.523438 Z M 10.558594 -10.523438 "/></g></g></g><g fill="#2b2b2b" fill-opacity="1"><g transform="translate(782.300936, 671.270266)"><g><path d="M 8.804688 -0.914062 C 8.417969 -0.914062 8.085938 -1.175781 8.085938 -1.824219 L 8.085938 -7.015625 L 7 -7.015625 L 7 -6.105469 C 6.351562 -6.753906 5.4375 -7.15625 4.4375 -7.15625 C 2.421875 -7.15625 0.789062 -5.523438 0.789062 -3.507812 C 0.789062 -1.492188 2.421875 0.140625 4.4375 0.140625 C 5.488281 0.140625 6.4375 -0.351562 7.105469 -1.070312 C 7.332031 -0.351562 7.894531 0.140625 8.71875 0.140625 C 8.910156 0.140625 9.105469 0.0859375 9.242188 0 L 9.242188 -0.914062 Z M 4.4375 -0.945312 C 3.015625 -0.945312 1.875 -2.085938 1.875 -3.507812 C 1.875 -4.929688 3.015625 -6.070312 4.4375 -6.070312 C 5.839844 -6.070312 7 -4.929688 7 -3.507812 C 7 -2.085938 5.839844 -0.945312 4.4375 -0.945312 Z M 4.4375 -0.945312 "/></g></g></g><g fill="#2b2b2b" fill-opacity="1"><g transform="translate(795.850285, 671.270266)"><g><path d="M 4.699219 -7.15625 C 3.699219 -7.15625 2.894531 -6.71875 2.367188 -6.015625 L 2.367188 -7.015625 L 1.28125 -7.015625 L 1.28125 0 L 2.367188 0 L 2.367188 -3.804688 C 2.367188 -5.085938 3.421875 -6.070312 4.699219 -6.070312 C 4.910156 -6.070312 5.085938 -6.050781 5.246094 -6 L 5.246094 -7.105469 C 5.085938 -7.140625 4.910156 -7.15625 4.699219 -7.15625 Z M 4.699219 -7.15625 "/></g></g></g><g fill="#2b2b2b" fill-opacity="1"><g transform="translate(805.279121, 671.270266)"><g><path d="M 7.417969 0 L 3.859375 -3.894531 L 7.121094 -7.015625 L 5.664062 -7.015625 L 2.472656 -3.945312 L 2.472656 -12.910156 L 1.386719 -12.910156 L 1.386719 0 L 2.472656 0 L 2.472656 -3.910156 L 5.929688 0 Z M 7.417969 0 "/></g></g></g><g fill="#2b2b2b" fill-opacity="1"><g transform="translate(816.619177, 671.270266)"><g/></g></g><g fill="#2b2b2b" fill-opacity="1"><g transform="translate(824.943363, 671.270266)"><g><path d="M 8.332031 -7.226562 C 8.226562 -9.191406 6.523438 -10.734375 4.492188 -10.628906 C 2.492188 -10.523438 0.894531 -8.894531 0.980469 -6.894531 C 1.070312 -4.824219 2.910156 -3.507812 4.527344 -3.527344 C 4.875 -3.527344 5.15625 -3.597656 5.386719 -3.664062 L 2.296875 0 L 3.71875 0 L 7.417969 -4.683594 C 8 -5.386719 8.367188 -6.246094 8.332031 -7.226562 Z M 4.804688 -4.472656 C 3.316406 -4.386719 2.15625 -5.421875 2.070312 -6.910156 C 1.980469 -8.332031 3 -9.453125 4.507812 -9.542969 C 5.980469 -9.628906 7.121094 -8.648438 7.210938 -7.210938 C 7.296875 -5.71875 6.28125 -4.5625 4.804688 -4.472656 Z M 4.804688 -4.472656 "/></g></g></g><g fill="#2b2b2b" fill-opacity="1"><g transform="translate(838.334912, 671.270266)"><g><path d="M 2.175781 -5.648438 C 2.597656 -5.648438 2.945312 -5.980469 2.945312 -6.402344 C 2.945312 -6.804688 2.597656 -7.15625 2.175781 -7.15625 C 1.773438 -7.15625 1.421875 -6.804688 1.421875 -6.402344 C 1.421875 -5.980469 1.773438 -5.648438 2.175781 -5.648438 Z M 2.175781 0.140625 C 2.597656 0.140625 2.945312 -0.191406 2.945312 -0.613281 C 2.945312 -1.015625 2.597656 -1.367188 2.175781 -1.367188 C 1.773438 -1.367188 1.421875 -1.015625 1.421875 -0.613281 C 1.421875 -0.191406 1.773438 0.140625 2.175781 0.140625 Z M 2.175781 0.140625 "/></g></g></g><g fill="#2b2b2b" fill-opacity="1"><g transform="translate(846.799368, 671.270266)"><g><path d="M 4.472656 -6.964844 C 3.71875 -6.964844 3 -6.734375 2.457031 -6.332031 L 2.839844 -9.367188 L 7.226562 -9.367188 L 7.226562 -10.488281 L 1.839844 -10.488281 L 1.246094 -5.578125 L 2.226562 -5 C 2.738281 -5.523438 3.457031 -5.839844 4.246094 -5.839844 C 5.613281 -5.839844 6.71875 -4.859375 6.71875 -3.402344 C 6.71875 -2.050781 5.769531 -0.980469 4.070312 -0.980469 C 3.050781 -0.980469 1.808594 -1.367188 0.980469 -2.542969 L 0.878906 -2.542969 L 0.738281 -1.210938 C 1.457031 -0.367188 2.804688 0.140625 4.105469 0.140625 C 6.386719 0.140625 7.839844 -1.386719 7.839844 -3.4375 C 7.839844 -5.457031 6.417969 -6.964844 4.472656 -6.964844 Z M 4.472656 -6.964844 "/></g></g></g><g fill="#2b2b2b" fill-opacity="1"><g transform="translate(859.717498, 671.270266)"><g><path d="M 4.875 0.140625 C 7.3125 0.140625 8.664062 -2.175781 8.664062 -5.261719 C 8.664062 -8.347656 7.3125 -10.664062 4.875 -10.664062 C 2.4375 -10.664062 1.105469 -8.347656 1.105469 -5.261719 C 1.105469 -2.175781 2.4375 0.140625 4.875 0.140625 Z M 4.894531 -0.980469 C 3.121094 -0.980469 2.246094 -2.769531 2.246094 -5.261719 C 2.246094 -7.753906 3.121094 -9.542969 4.894531 -9.542969 C 6.648438 -9.542969 7.542969 -7.753906 7.542969 -5.261719 C 7.542969 -2.769531 6.648438 -0.980469 4.894531 -0.980469 Z M 4.894531 -0.980469 "/></g></g></g></svg>